<?xml version="1.0" encoding="UTF-8" standalone="no"?>
<!DOCTYPE svg PUBLIC "-//W3C//DTD SVG 1.1//EN"
 "http://www.w3.org/Graphics/SVG/1.1/DTD/svg11.dtd">
<!-- Generated by graphviz version 12.2.0 (20241103.1931)
 -->
<!-- Title: dependency&#45;cruiser output Pages: 1 -->
<svg width="1725pt" height="716pt"
 viewBox="0.00 0.00 1724.62 716.00" xmlns="http://www.w3.org/2000/svg" xmlns:xlink="http://www.w3.org/1999/xlink">
<g id="graph0" class="graph" transform="scale(1 1) rotate(0) translate(4 712)">
<title>dependency&#45;cruiser output</title>
<polygon fill="white" stroke="none" points="-4,4 -4,-712 1720.62,-712 1720.62,4 -4,4"/>
<g id="clust1" class="cluster">
<title>cluster_src</title>
<path fill="#ffffff" stroke="black" stroke-width="2" d="M20,-8C20,-8 1696.62,-8 1696.62,-8 1702.62,-8 1708.62,-14 1708.62,-20 1708.62,-20 1708.62,-688 1708.62,-688 1708.62,-694 1702.62,-700 1696.62,-700 1696.62,-700 20,-700 20,-700 14,-700 8,-694 8,-688 8,-688 8,-20 8,-20 8,-14 14,-8 20,-8"/>
<text text-anchor="middle" x="858.31" y="-687.45" font-family="Helvetica,sans-Serif" font-weight="bold" font-size="9.00">src</text>
</g>
<g id="clust2" class="cluster">
<title>cluster_src/main</title>
<path fill="#ffffff" stroke="black" stroke-width="2" d="M28,-16C28,-16 1688.62,-16 1688.62,-16 1694.62,-16 1700.62,-22 1700.62,-28 1700.62,-28 1700.62,-661 1700.62,-661 1700.62,-667 1694.62,-673 1688.62,-673 1688.62,-673 28,-673 28,-673 22,-673 16,-667 16,-661 16,-661 16,-28 16,-28 16,-22 22,-16 28,-16"/>
<text text-anchor="middle" x="858.31" y="-660.45" font-family="Helvetica,sans-Serif" font-weight="bold" font-size="9.00">main</text>
</g>
<g id="clust3" class="cluster">
<title>cluster_src/main/auth</title>
<path fill="#ffffff" stroke="black" stroke-width="2" d="M421.38,-24C421.38,-24 927,-24 927,-24 933,-24 939,-30 939,-36 939,-36 939,-319 939,-319 939,-325 933,-331 927,-331 927,-331 421.38,-331 421.38,-331 415.38,-331 409.38,-325 409.38,-319 409.38,-319 409.38,-36 409.38,-36 409.38,-30 415.38,-24 421.38,-24"/>
<text text-anchor="middle" x="674.19" y="-318.45" font-family="Helvetica,sans-Serif" font-weight="bold" font-size="9.00">auth</text>
</g>
<g id="clust4" class="cluster">
<title>cluster_src/main/auth/controllers</title>
<path fill="#ffffff" stroke="black" stroke-width="2" d="M731.75,-32C731.75,-32 807.25,-32 807.25,-32 813.25,-32 819.25,-38 819.25,-44 819.25,-44 819.25,-73 819.25,-73 819.25,-79 813.25,-85 807.25,-85 807.25,-85 731.75,-85 731.75,-85 725.75,-85 719.75,-79 719.75,-73 719.75,-73 719.75,-44 719.75,-44 719.75,-38 725.75,-32 731.75,-32"/>
<text text-anchor="middle" x="769.5" y="-72.45" font-family="Helvetica,sans-Serif" font-weight="bold" font-size="9.00">controllers</text>
</g>
<g id="clust5" class="cluster">
<title>cluster_src/main/auth/middlewares</title>
<path fill="#ffffff" stroke="black" stroke-width="2" d="M576.75,-193C576.75,-193 671,-193 671,-193 677,-193 683,-199 683,-205 683,-205 683,-265 683,-265 683,-271 677,-277 671,-277 671,-277 576.75,-277 576.75,-277 570.75,-277 564.75,-271 564.75,-265 564.75,-265 564.75,-205 564.75,-205 564.75,-199 570.75,-193 576.75,-193"/>
<text text-anchor="middle" x="623.88" y="-264.45" font-family="Helvetica,sans-Serif" font-weight="bold" font-size="9.00">middlewares</text>
</g>
<g id="clust6" class="cluster">
<title>cluster_src/main/auth/router</title>
<path fill="#ffffff" stroke="black" stroke-width="2" d="M429.38,-219C429.38,-219 492.12,-219 492.12,-219 498.12,-219 504.12,-225 504.12,-231 504.12,-231 504.12,-260 504.12,-260 504.12,-266 498.12,-272 492.12,-272 492.12,-272 429.38,-272 429.38,-272 423.38,-272 417.38,-266 417.38,-260 417.38,-260 417.38,-231 417.38,-231 417.38,-225 423.38,-219 429.38,-219"/>
<text text-anchor="middle" x="460.75" y="-259.45" font-family="Helvetica,sans-Serif" font-weight="bold" font-size="9.00">router</text>
</g>
<g id="clust7" class="cluster">
<title>cluster_src/main/auth/services</title>
<path fill="#ffffff" stroke="black" stroke-width="2" d="M852.5,-235C852.5,-235 919,-235 919,-235 925,-235 931,-241 931,-247 931,-247 931,-276 931,-276 931,-282 925,-288 919,-288 919,-288 852.5,-288 852.5,-288 846.5,-288 840.5,-282 840.5,-276 840.5,-276 840.5,-247 840.5,-247 840.5,-241 846.5,-235 852.5,-235"/>
<text text-anchor="middle" x="885.75" y="-275.45" font-family="Helvetica,sans-Serif" font-weight="bold" font-size="9.00">services</text>
</g>
<g id="clust8" class="cluster">
<title>cluster_src/main/auth/strategies</title>
<path fill="#ffffff" stroke="black" stroke-width="2" d="M733.25,-220C733.25,-220 805.75,-220 805.75,-220 811.75,-220 817.75,-226 817.75,-232 817.75,-232 817.75,-292 817.75,-292 817.75,-298 811.75,-304 805.75,-304 805.75,-304 733.25,-304 733.25,-304 727.25,-304 721.25,-298 721.25,-292 721.25,-292 721.25,-232 721.25,-232 721.25,-226 727.25,-220 733.25,-220"/>
<text text-anchor="middle" x="769.5" y="-291.45" font-family="Helvetica,sans-Serif" font-weight="bold" font-size="9.00">strategies</text>
</g>
<g id="clust9" class="cluster">
<title>cluster_src/main/auth/validations</title>
<path fill="#ffffff" stroke="black" stroke-width="2" d="M718.5,-93C718.5,-93 820.5,-93 820.5,-93 826.5,-93 832.5,-99 832.5,-105 832.5,-105 832.5,-200 832.5,-200 832.5,-206 826.5,-212 820.5,-212 820.5,-212 718.5,-212 718.5,-212 712.5,-212 706.5,-206 706.5,-200 706.5,-200 706.5,-105 706.5,-105 706.5,-99 712.5,-93 718.5,-93"/>
<text text-anchor="middle" x="769.5" y="-199.45" font-family="Helvetica,sans-Serif" font-weight="bold" font-size="9.00">validations</text>
</g>
<g id="clust10" class="cluster">
<title>cluster_src/main/auth/validations/dto</title>
<path fill="#ffffff" stroke="black" stroke-width="2" d="M726.5,-101C726.5,-101 812.5,-101 812.5,-101 818.5,-101 824.5,-107 824.5,-113 824.5,-113 824.5,-173 824.5,-173 824.5,-179 818.5,-185 812.5,-185 812.5,-185 726.5,-185 726.5,-185 720.5,-185 714.5,-179 714.5,-173 714.5,-173 714.5,-113 714.5,-113 714.5,-107 720.5,-101 726.5,-101"/>
<text text-anchor="middle" x="769.5" y="-172.45" font-family="Helvetica,sans-Serif" font-weight="bold" font-size="9.00">dto</text>
</g>
<g id="clust11" class="cluster">
<title>cluster_src/main/controllers</title>
<path fill="#ffffff" stroke="black" stroke-width="2" d="M966.12,-342C966.12,-342 1079.38,-342 1079.38,-342 1085.38,-342 1091.38,-348 1091.38,-354 1091.38,-354 1091.38,-634 1091.38,-634 1091.38,-640 1085.38,-646 1079.38,-646 1079.38,-646 966.12,-646 966.12,-646 960.12,-646 954.12,-640 954.12,-634 954.12,-634 954.12,-354 954.12,-354 954.12,-348 960.12,-342 966.12,-342"/>
<text text-anchor="middle" x="1022.75" y="-633.45" font-family="Helvetica,sans-Serif" font-weight="bold" font-size="9.00">controllers</text>
</g>
<g id="clust12" class="cluster">
<title>cluster_src/main/controllers/academy</title>
<path fill="#ffffff" stroke="black" stroke-width="2" d="M974.12,-411C974.12,-411 1071.38,-411 1071.38,-411 1077.38,-411 1083.38,-417 1083.38,-423 1083.38,-423 1083.38,-607 1083.38,-607 1083.38,-613 1077.38,-619 1071.38,-619 1071.38,-619 974.12,-619 974.12,-619 968.12,-619 962.12,-613 962.12,-607 962.12,-607 962.12,-423 962.12,-423 962.12,-417 968.12,-411 974.12,-411"/>
<text text-anchor="middle" x="1022.75" y="-606.45" font-family="Helvetica,sans-Serif" font-weight="bold" font-size="9.00">academy</text>
</g>
<g id="clust13" class="cluster">
<title>cluster_src/main/controllers/user</title>
<path fill="#ffffff" stroke="black" stroke-width="2" d="M984.62,-350C984.62,-350 1060.88,-350 1060.88,-350 1066.88,-350 1072.88,-356 1072.88,-362 1072.88,-362 1072.88,-391 1072.88,-391 1072.88,-397 1066.88,-403 1060.88,-403 1060.88,-403 984.62,-403 984.62,-403 978.62,-403 972.62,-397 972.62,-391 972.62,-391 972.62,-362 972.62,-362 972.62,-356 978.62,-350 984.62,-350"/>
<text text-anchor="middle" x="1022.75" y="-390.45" font-family="Helvetica,sans-Serif" font-weight="bold" font-size="9.00">user</text>
</g>
<g id="clust14" class="cluster">
<title>cluster_src/main/database</title>
<path fill="#ffffff" stroke="black" stroke-width="2" d="M160.62,-334C160.62,-334 242.88,-334 242.88,-334 248.88,-334 254.88,-340 254.88,-346 254.88,-346 254.88,-375 254.88,-375 254.88,-381 248.88,-387 242.88,-387 242.88,-387 160.62,-387 160.62,-387 154.62,-387 148.62,-381 148.62,-375 148.62,-375 148.62,-346 148.62,-346 148.62,-340 154.62,-334 160.62,-334"/>
<text text-anchor="middle" x="201.75" y="-374.45" font-family="Helvetica,sans-Serif" font-weight="bold" font-size="9.00">database</text>
</g>
<g id="clust15" class="cluster">
<title>cluster_src/main/entities</title>
<path fill="#ffffff" stroke="black" stroke-width="2" d="M1247.62,-407C1247.62,-407 1680.62,-407 1680.62,-407 1686.62,-407 1692.62,-413 1692.62,-419 1692.62,-419 1692.62,-541 1692.62,-541 1692.62,-547 1686.62,-553 1680.62,-553 1680.62,-553 1247.62,-553 1247.62,-553 1241.62,-553 1235.62,-547 1235.62,-541 1235.62,-541 1235.62,-419 1235.62,-419 1235.62,-413 1241.62,-407 1247.62,-407"/>
<text text-anchor="middle" x="1464.12" y="-540.45" font-family="Helvetica,sans-Serif" font-weight="bold" font-size="9.00">entities</text>
</g>
<g id="clust16" class="cluster">
<title>cluster_src/main/errors</title>
<path fill="#ffffff" stroke="black" stroke-width="2" d="M36,-109C36,-109 111.75,-109 111.75,-109 117.75,-109 123.75,-115 123.75,-121 123.75,-121 123.75,-216 123.75,-216 123.75,-222 117.75,-228 111.75,-228 111.75,-228 36,-228 36,-228 30,-228 24,-222 24,-216 24,-216 24,-121 24,-121 24,-115 30,-109 36,-109"/>
<text text-anchor="middle" x="73.88" y="-215.45" font-family="Helvetica,sans-Serif" font-weight="bold" font-size="9.00">errors</text>
</g>
<g id="clust17" class="cluster">
<title>cluster_src/main/errors/base</title>
<path fill="#ffffff" stroke="black" stroke-width="2" d="M44,-117C44,-117 103.75,-117 103.75,-117 109.75,-117 115.75,-123 115.75,-129 115.75,-129 115.75,-189 115.75,-189 115.75,-195 109.75,-201 103.75,-201 103.75,-201 44,-201 44,-201 38,-201 32,-195 32,-189 32,-189 32,-129 32,-129 32,-123 38,-117 44,-117"/>
<text text-anchor="middle" x="73.88" y="-188.45" font-family="Helvetica,sans-Serif" font-weight="bold" font-size="9.00">base</text>
</g>
<g id="clust18" class="cluster">
<title>cluster_src/main/middlewares</title>
<path fill="#ffffff" stroke="black" stroke-width="2" d="M392.25,-347C392.25,-347 529.25,-347 529.25,-347 535.25,-347 541.25,-353 541.25,-359 541.25,-359 541.25,-419 541.25,-419 541.25,-425 535.25,-431 529.25,-431 529.25,-431 392.25,-431 392.25,-431 386.25,-431 380.25,-425 380.25,-419 380.25,-419 380.25,-359 380.25,-359 380.25,-353 386.25,-347 392.25,-347"/>
<text text-anchor="middle" x="460.75" y="-418.45" font-family="Helvetica,sans-Serif" font-weight="bold" font-size="9.00">middlewares</text>
</g>
<g id="clust19" class="cluster">
<title>cluster_src/main/routers</title>
<path fill="#ffffff" stroke="black" stroke-width="2" d="M143.75,-466C143.75,-466 934.12,-466 934.12,-466 940.12,-466 946.12,-472 946.12,-478 946.12,-478 946.12,-634 946.12,-634 946.12,-640 940.12,-646 934.12,-646 934.12,-646 143.75,-646 143.75,-646 137.75,-646 131.75,-640 131.75,-634 131.75,-634 131.75,-478 131.75,-478 131.75,-472 137.75,-466 143.75,-466"/>
<text text-anchor="middle" x="538.94" y="-633.45" font-family="Helvetica,sans-Serif" font-weight="bold" font-size="9.00">routers</text>
</g>
<g id="clust20" class="cluster">
<title>cluster_src/main/routers/academy</title>
<path fill="#ffffff" stroke="black" stroke-width="2" d="M283.75,-535C283.75,-535 926.12,-535 926.12,-535 932.12,-535 938.12,-541 938.12,-547 938.12,-547 938.12,-607 938.12,-607 938.12,-613 932.12,-619 926.12,-619 926.12,-619 283.75,-619 283.75,-619 277.75,-619 271.75,-613 271.75,-607 271.75,-607 271.75,-547 271.75,-547 271.75,-541 277.75,-535 283.75,-535"/>
<text text-anchor="middle" x="604.94" y="-606.45" font-family="Helvetica,sans-Serif" font-weight="bold" font-size="9.00">academy</text>
</g>
<g id="clust21" class="cluster">
<title>cluster_src/main/routers/user</title>
<path fill="#ffffff" stroke="black" stroke-width="2" d="M294.25,-474C294.25,-474 357.75,-474 357.75,-474 363.75,-474 369.75,-480 369.75,-486 369.75,-486 369.75,-515 369.75,-515 369.75,-521 363.75,-527 357.75,-527 357.75,-527 294.25,-527 294.25,-527 288.25,-527 282.25,-521 282.25,-515 282.25,-515 282.25,-486 282.25,-486 282.25,-480 288.25,-474 294.25,-474"/>
<text text-anchor="middle" x="326" y="-514.45" font-family="Helvetica,sans-Serif" font-weight="bold" font-size="9.00">user</text>
</g>
<g id="clust22" class="cluster">
<title>cluster_src/main/services</title>
<path fill="#ffffff" stroke="black" stroke-width="2" d="M1111.38,-316C1111.38,-316 1215.62,-316 1215.62,-316 1221.62,-316 1227.62,-322 1227.62,-328 1227.62,-328 1227.62,-634 1227.62,-634 1227.62,-640 1221.62,-646 1215.62,-646 1215.62,-646 1111.38,-646 1111.38,-646 1105.38,-646 1099.38,-640 1099.38,-634 1099.38,-634 1099.38,-328 1099.38,-328 1099.38,-322 1105.38,-316 1111.38,-316"/>
<text text-anchor="middle" x="1163.5" y="-633.45" font-family="Helvetica,sans-Serif" font-weight="bold" font-size="9.00">services</text>
</g>
<g id="clust23" class="cluster">
<title>cluster_src/main/services/academy</title>
<path fill="#ffffff" stroke="black" stroke-width="2" d="M1119.38,-411C1119.38,-411 1207.62,-411 1207.62,-411 1213.62,-411 1219.62,-417 1219.62,-423 1219.62,-423 1219.62,-607 1219.62,-607 1219.62,-613 1213.62,-619 1207.62,-619 1207.62,-619 1119.38,-619 1119.38,-619 1113.38,-619 1107.38,-613 1107.38,-607 1107.38,-607 1107.38,-423 1107.38,-423 1107.38,-417 1113.38,-411 1119.38,-411"/>
<text text-anchor="middle" x="1163.5" y="-606.45" font-family="Helvetica,sans-Serif" font-weight="bold" font-size="9.00">academy</text>
</g>
<g id="clust24" class="cluster">
<title>cluster_src/main/services/user</title>
<path fill="#ffffff" stroke="black" stroke-width="2" d="M1129.88,-350C1129.88,-350 1197.12,-350 1197.12,-350 1203.12,-350 1209.12,-356 1209.12,-362 1209.12,-362 1209.12,-391 1209.12,-391 1209.12,-397 1203.12,-403 1197.12,-403 1197.12,-403 1129.88,-403 1129.88,-403 1123.88,-403 1117.88,-397 1117.88,-391 1117.88,-391 1117.88,-362 1117.88,-362 1117.88,-356 1123.88,-350 1129.88,-350"/>
<text text-anchor="middle" x="1163.5" y="-390.45" font-family="Helvetica,sans-Serif" font-weight="bold" font-size="9.00">user</text>
</g>
<g id="clust25" class="cluster">
<title>cluster_src/main/validations</title>
<path fill="#ffffff" stroke="black" stroke-width="2" d="M561.25,-339C561.25,-339 686.5,-339 686.5,-339 692.5,-339 698.5,-345 698.5,-351 698.5,-351 698.5,-446 698.5,-446 698.5,-452 692.5,-458 686.5,-458 686.5,-458 561.25,-458 561.25,-458 555.25,-458 549.25,-452 549.25,-446 549.25,-446 549.25,-351 549.25,-351 549.25,-345 555.25,-339 561.25,-339"/>
<text text-anchor="middle" x="623.88" y="-445.45" font-family="Helvetica,sans-Serif" font-weight="bold" font-size="9.00">validations</text>
</g>
<g id="clust26" class="cluster">
<title>cluster_src/main/validations/dto</title>
<path fill="#ffffff" stroke="black" stroke-width="2" d="M569.25,-347C569.25,-347 678.5,-347 678.5,-347 684.5,-347 690.5,-353 690.5,-359 690.5,-359 690.5,-419 690.5,-419 690.5,-425 684.5,-431 678.5,-431 678.5,-431 569.25,-431 569.25,-431 563.25,-431 557.25,-425 557.25,-419 557.25,-419 557.25,-359 557.25,-359 557.25,-353 563.25,-347 569.25,-347"/>
<text text-anchor="middle" x="623.88" y="-418.45" font-family="Helvetica,sans-Serif" font-weight="bold" font-size="9.00">dto</text>
</g>
<!-- src/main/App.ts -->
<g id="node1" class="node">
<title>src/main/App.ts</title>
<g id="a_node1"><a xlink:href="src/main/App.ts" xlink:title="App.ts">
<path fill="#ddfeff" stroke="black" d="M94.71,-334.25C94.71,-334.25 53.04,-334.25 53.04,-334.25 49.96,-334.25 46.88,-331.17 46.88,-328.08 46.88,-328.08 46.88,-321.92 46.88,-321.92 46.88,-318.83 49.96,-315.75 53.04,-315.75 53.04,-315.75 94.71,-315.75 94.71,-315.75 97.79,-315.75 100.88,-318.83 100.88,-321.92 100.88,-321.92 100.88,-328.08 100.88,-328.08 100.88,-331.17 97.79,-334.25 94.71,-334.25"/>
<text text-anchor="start" x="61.12" y="-321.7" font-family="Helvetica,sans-Serif" font-size="9.00">App.ts</text>
</a>
</g>
</g>
<!-- src/main/auth/middlewares/ApiKeyMiddleware.ts -->
<g id="node2" class="node">
<title>src/main/auth/middlewares/ApiKeyMiddleware.ts</title>
<g id="a_node2"><a xlink:href="src/main/auth/middlewares/ApiKeyMiddleware.ts" xlink:title="ApiKeyMiddleware.ts">
<path fill="#ddfeff" stroke="black" d="M668.83,-219.25C668.83,-219.25 578.92,-219.25 578.92,-219.25 575.83,-219.25 572.75,-216.17 572.75,-213.08 572.75,-213.08 572.75,-206.92 572.75,-206.92 572.75,-203.83 575.83,-200.75 578.92,-200.75 578.92,-200.75 668.83,-200.75 668.83,-200.75 671.92,-200.75 675,-203.83 675,-206.92 675,-206.92 675,-213.08 675,-213.08 675,-216.17 671.92,-219.25 668.83,-219.25"/>
<text text-anchor="start" x="580.75" y="-206.7" font-family="Helvetica,sans-Serif" font-size="9.00">ApiKeyMiddleware.ts</text>
</a>
</g>
</g>
<!-- src/main/App.ts&#45;&gt;src/main/auth/middlewares/ApiKeyMiddleware.ts -->
<g id="edge1" class="edge">
<title>src/main/App.ts&#45;&gt;src/main/auth/middlewares/ApiKeyMiddleware.ts</title>
<path fill="none" stroke="#000000" stroke-width="2" stroke-opacity="0.200000" d="M82.2,-315.35C92.07,-303.07 110.83,-282.12 131.75,-271 272.45,-196.2 467.05,-197.76 563.61,-204.3"/>
<polygon fill="#000000" fill-opacity="0.200000" stroke="#000000" stroke-width="2" stroke-opacity="0.200000" points="563.2,-206.38 569.34,-204.71 563.5,-202.19 563.2,-206.38"/>
</g>
<!-- src/main/auth/router/AuthRouter.ts -->
<g id="node3" class="node">
<title>src/main/auth/router/AuthRouter.ts</title>
<g id="a_node3"><a xlink:href="src/main/auth/router/AuthRouter.ts" xlink:title="AuthRouter.ts">
<path fill="#ddfeff" stroke="black" d="M489.96,-245.25C489.96,-245.25 431.54,-245.25 431.54,-245.25 428.46,-245.25 425.38,-242.17 425.38,-239.08 425.38,-239.08 425.38,-232.92 425.38,-232.92 425.38,-229.83 428.46,-226.75 431.54,-226.75 431.54,-226.75 489.96,-226.75 489.96,-226.75 493.04,-226.75 496.12,-229.83 496.12,-232.92 496.12,-232.92 496.12,-239.08 496.12,-239.08 496.12,-242.17 493.04,-245.25 489.96,-245.25"/>
<text text-anchor="start" x="433.38" y="-232.7" font-family="Helvetica,sans-Serif" font-size="9.00">AuthRouter.ts</text>
</a>
</g>
</g>
<!-- src/main/App.ts&#45;&gt;src/main/auth/router/AuthRouter.ts -->
<g id="edge2" class="edge">
<title>src/main/App.ts&#45;&gt;src/main/auth/router/AuthRouter.ts</title>
<path fill="none" stroke="#000000" stroke-width="2" stroke-opacity="0.200000" d="M101.37,-316.15C110.9,-313.09 121.76,-309.74 131.75,-307 241.12,-276.98 269,-271.05 380.25,-249 391.95,-246.68 404.67,-244.47 416.44,-242.54"/>
<polygon fill="#000000" fill-opacity="0.200000" stroke="#000000" stroke-width="2" stroke-opacity="0.200000" points="416.64,-244.63 422.23,-241.61 415.98,-240.49 416.64,-244.63"/>
</g>
<!-- src/main/auth/strategies/JwtStrategy.ts -->
<g id="node4" class="node">
<title>src/main/auth/strategies/JwtStrategy.ts</title>
<g id="a_node4"><a xlink:href="src/main/auth/strategies/JwtStrategy.ts" xlink:title="JwtStrategy.ts">
<path fill="#ddfeff" stroke="black" d="M799.08,-246.25C799.08,-246.25 739.92,-246.25 739.92,-246.25 736.83,-246.25 733.75,-243.17 733.75,-240.08 733.75,-240.08 733.75,-233.92 733.75,-233.92 733.75,-230.83 736.83,-227.75 739.92,-227.75 739.92,-227.75 799.08,-227.75 799.08,-227.75 802.17,-227.75 805.25,-230.83 805.25,-233.92 805.25,-233.92 805.25,-240.08 805.25,-240.08 805.25,-243.17 802.17,-246.25 799.08,-246.25"/>
<text text-anchor="start" x="741.75" y="-233.7" font-family="Helvetica,sans-Serif" font-size="9.00">JwtStrategy.ts</text>
</a>
</g>
</g>
<!-- src/main/App.ts&#45;&gt;src/main/auth/strategies/JwtStrategy.ts -->
<g id="edge3" class="edge">
<title>src/main/App.ts&#45;&gt;src/main/auth/strategies/JwtStrategy.ts</title>
<path fill="none" stroke="#000000" stroke-width="2" stroke-opacity="0.200000" d="M101.14,-322.56C146.67,-318.55 243.23,-311 325,-311 325,-311 325,-311 461.75,-311 514.81,-311 658.72,-315.12 698.5,-280 707.88,-271.72 697.49,-261.69 706.5,-253 711.73,-247.95 718.34,-244.44 725.27,-242"/>
<polygon fill="#000000" fill-opacity="0.200000" stroke="#000000" stroke-width="2" stroke-opacity="0.200000" points="725.42,-244.15 730.6,-240.46 724.25,-240.11 725.42,-244.15"/>
</g>
<!-- src/main/auth/strategies/LocalStrategy.ts -->
<g id="node5" class="node">
<title>src/main/auth/strategies/LocalStrategy.ts</title>
<g id="a_node5"><a xlink:href="src/main/auth/strategies/LocalStrategy.ts" xlink:title="LocalStrategy.ts">
<path fill="#ddfeff" stroke="black" d="M803.58,-277.25C803.58,-277.25 735.42,-277.25 735.42,-277.25 732.33,-277.25 729.25,-274.17 729.25,-271.08 729.25,-271.08 729.25,-264.92 729.25,-264.92 729.25,-261.83 732.33,-258.75 735.42,-258.75 735.42,-258.75 803.58,-258.75 803.58,-258.75 806.67,-258.75 809.75,-261.83 809.75,-264.92 809.75,-264.92 809.75,-271.08 809.75,-271.08 809.75,-274.17 806.67,-277.25 803.58,-277.25"/>
<text text-anchor="start" x="737.25" y="-264.7" font-family="Helvetica,sans-Serif" font-size="9.00">LocalStrategy.ts</text>
</a>
</g>
</g>
<!-- src/main/App.ts&#45;&gt;src/main/auth/strategies/LocalStrategy.ts -->
<g id="edge4" class="edge">
<title>src/main/App.ts&#45;&gt;src/main/auth/strategies/LocalStrategy.ts</title>
<path fill="none" stroke="#000000" stroke-width="2" stroke-opacity="0.200000" d="M101.16,-325C146.74,-325 243.36,-325 325,-325 325,-325 325,-325 461.75,-325 567.07,-325 598.42,-347.8 698.5,-315 718.45,-308.46 738.02,-294.49 751.37,-283.48"/>
<polygon fill="#000000" fill-opacity="0.200000" stroke="#000000" stroke-width="2" stroke-opacity="0.200000" points="752.61,-285.18 755.81,-279.69 749.88,-281.99 752.61,-285.18"/>
</g>
<!-- src/main/database/AppDataSource.ts -->
<g id="node6" class="node">
<title>src/main/database/AppDataSource.ts</title>
<g id="a_node6"><a xlink:href="src/main/database/AppDataSource.ts" xlink:title="AppDataSource.ts">
<path fill="#ddfeff" stroke="black" d="M240.71,-360.25C240.71,-360.25 162.79,-360.25 162.79,-360.25 159.71,-360.25 156.62,-357.17 156.62,-354.08 156.62,-354.08 156.62,-347.92 156.62,-347.92 156.62,-344.83 159.71,-341.75 162.79,-341.75 162.79,-341.75 240.71,-341.75 240.71,-341.75 243.79,-341.75 246.88,-344.83 246.88,-347.92 246.88,-347.92 246.88,-354.08 246.88,-354.08 246.88,-357.17 243.79,-360.25 240.71,-360.25"/>
<text text-anchor="start" x="164.62" y="-347.7" font-family="Helvetica,sans-Serif" font-size="9.00">AppDataSource.ts</text>
</a>
</g>
</g>
<!-- src/main/App.ts&#45;&gt;src/main/database/AppDataSource.ts -->
<g id="edge5" class="edge">
<title>src/main/App.ts&#45;&gt;src/main/database/AppDataSource.ts</title>
<path fill="none" stroke="#000000" stroke-width="2" stroke-opacity="0.200000" d="M101.16,-331.23C110.77,-333.45 121.74,-335.91 131.75,-338 136.8,-339.05 142.06,-340.11 147.32,-341.15"/>
<polygon fill="#000000" fill-opacity="0.200000" stroke="#000000" stroke-width="2" stroke-opacity="0.200000" points="146.9,-343.2 153.19,-342.28 147.7,-339.08 146.9,-343.2"/>
</g>
<!-- src/main/routers/AcademySchemaRouter.ts -->
<g id="node7" class="node">
<title>src/main/routers/AcademySchemaRouter.ts</title>
<g id="a_node7"><a xlink:href="src/main/routers/AcademySchemaRouter.ts" xlink:title="AcademySchemaRouter.ts">
<path fill="#ddfeff" stroke="black" d="M257.58,-542.25C257.58,-542.25 145.92,-542.25 145.92,-542.25 142.83,-542.25 139.75,-539.17 139.75,-536.08 139.75,-536.08 139.75,-529.92 139.75,-529.92 139.75,-526.83 142.83,-523.75 145.92,-523.75 145.92,-523.75 257.58,-523.75 257.58,-523.75 260.67,-523.75 263.75,-526.83 263.75,-529.92 263.75,-529.92 263.75,-536.08 263.75,-536.08 263.75,-539.17 260.67,-542.25 257.58,-542.25"/>
<text text-anchor="start" x="147.75" y="-529.7" font-family="Helvetica,sans-Serif" font-size="9.00">AcademySchemaRouter.ts</text>
</a>
</g>
</g>
<!-- src/main/App.ts&#45;&gt;src/main/routers/AcademySchemaRouter.ts -->
<g id="edge6" class="edge">
<title>src/main/App.ts&#45;&gt;src/main/routers/AcademySchemaRouter.ts</title>
<path fill="none" stroke="#000000" stroke-width="2" stroke-opacity="0.200000" d="M75.5,-334.47C77.83,-362.68 88.29,-447.39 131.75,-498 139.78,-507.35 150.91,-514.49 161.9,-519.81"/>
<polygon fill="#000000" fill-opacity="0.200000" stroke="#000000" stroke-width="2" stroke-opacity="0.200000" points="160.72,-521.59 167.06,-522.12 162.44,-517.75 160.72,-521.59"/>
</g>
<!-- src/main/routers/UserSchemaRouter.ts -->
<g id="node8" class="node">
<title>src/main/routers/UserSchemaRouter.ts</title>
<g id="a_node8"><a xlink:href="src/main/routers/UserSchemaRouter.ts" xlink:title="UserSchemaRouter.ts">
<path fill="#ddfeff" stroke="black" d="M248.21,-492.25C248.21,-492.25 155.29,-492.25 155.29,-492.25 152.21,-492.25 149.12,-489.17 149.12,-486.08 149.12,-486.08 149.12,-479.92 149.12,-479.92 149.12,-476.83 152.21,-473.75 155.29,-473.75 155.29,-473.75 248.21,-473.75 248.21,-473.75 251.29,-473.75 254.38,-476.83 254.38,-479.92 254.38,-479.92 254.38,-486.08 254.38,-486.08 254.38,-489.17 251.29,-492.25 248.21,-492.25"/>
<text text-anchor="start" x="157.12" y="-479.7" font-family="Helvetica,sans-Serif" font-size="9.00">UserSchemaRouter.ts</text>
</a>
</g>
</g>
<!-- src/main/App.ts&#45;&gt;src/main/routers/UserSchemaRouter.ts -->
<g id="edge7" class="edge">
<title>src/main/App.ts&#45;&gt;src/main/routers/UserSchemaRouter.ts</title>
<path fill="none" stroke="#000000" stroke-width="2" stroke-opacity="0.200000" d="M82.37,-334.41C103.14,-360.47 161.59,-433.84 187.77,-466.71"/>
<polygon fill="#000000" fill-opacity="0.200000" stroke="#000000" stroke-width="2" stroke-opacity="0.200000" points="185.87,-467.69 191.25,-471.07 189.15,-465.07 185.87,-467.69"/>
</g>
<!-- src/main/auth/controllers/AuthController.ts -->
<g id="node9" class="node">
<title>src/main/auth/controllers/AuthController.ts</title>
<g id="a_node9"><a xlink:href="src/main/auth/controllers/AuthController.ts" xlink:title="AuthController.ts">
<path fill="#ddfeff" stroke="black" d="M805.08,-58.25C805.08,-58.25 733.92,-58.25 733.92,-58.25 730.83,-58.25 727.75,-55.17 727.75,-52.08 727.75,-52.08 727.75,-45.92 727.75,-45.92 727.75,-42.83 730.83,-39.75 733.92,-39.75 733.92,-39.75 805.08,-39.75 805.08,-39.75 808.17,-39.75 811.25,-42.83 811.25,-45.92 811.25,-45.92 811.25,-52.08 811.25,-52.08 811.25,-55.17 808.17,-58.25 805.08,-58.25"/>
<text text-anchor="start" x="735.75" y="-45.7" font-family="Helvetica,sans-Serif" font-size="9.00">AuthController.ts</text>
</a>
</g>
</g>
<!-- src/main/auth/router/AuthRouter.ts&#45;&gt;src/main/auth/controllers/AuthController.ts -->
<g id="edge12" class="edge">
<title>src/main/auth/router/AuthRouter.ts&#45;&gt;src/main/auth/controllers/AuthController.ts</title>
<path fill="none" stroke="#000000" stroke-width="2" stroke-opacity="0.200000" d="M477.38,-226.47C527.63,-195.84 685.17,-99.8 745.07,-63.28"/>
<polygon fill="#000000" fill-opacity="0.200000" stroke="#000000" stroke-width="2" stroke-opacity="0.200000" points="745.92,-65.23 749.95,-60.31 743.73,-61.64 745.92,-65.23"/>
</g>
<!-- src/main/auth/middlewares/AuthMiddleware.ts -->
<g id="node12" class="node">
<title>src/main/auth/middlewares/AuthMiddleware.ts</title>
<g id="a_node12"><a xlink:href="src/main/auth/middlewares/AuthMiddleware.ts" xlink:title="AuthMiddleware.ts">
<path fill="#ddfeff" stroke="black" d="M663.58,-250.25C663.58,-250.25 584.17,-250.25 584.17,-250.25 581.08,-250.25 578,-247.17 578,-244.08 578,-244.08 578,-237.92 578,-237.92 578,-234.83 581.08,-231.75 584.17,-231.75 584.17,-231.75 663.58,-231.75 663.58,-231.75 666.67,-231.75 669.75,-234.83 669.75,-237.92 669.75,-237.92 669.75,-244.08 669.75,-244.08 669.75,-247.17 666.67,-250.25 663.58,-250.25"/>
<text text-anchor="start" x="586" y="-237.7" font-family="Helvetica,sans-Serif" font-size="9.00">AuthMiddleware.ts</text>
</a>
</g>
</g>
<!-- src/main/auth/router/AuthRouter.ts&#45;&gt;src/main/auth/middlewares/AuthMiddleware.ts -->
<g id="edge13" class="edge">
<title>src/main/auth/router/AuthRouter.ts&#45;&gt;src/main/auth/middlewares/AuthMiddleware.ts</title>
<path fill="none" stroke="#000000" stroke-width="2" stroke-opacity="0.200000" d="M496.32,-237.07C517.39,-237.73 544.77,-238.58 568.68,-239.32"/>
<polygon fill="#000000" fill-opacity="0.200000" stroke="#000000" stroke-width="2" stroke-opacity="0.200000" points="568.56,-241.42 574.62,-239.5 568.69,-237.22 568.56,-241.42"/>
</g>
<!-- src/main/auth/services/AuthService.ts -->
<g id="node10" class="node">
<title>src/main/auth/services/AuthService.ts</title>
<g id="a_node10"><a xlink:href="src/main/auth/services/AuthService.ts" xlink:title="AuthService.ts">
<path fill="#ddfeff" stroke="black" d="M916.83,-261.25C916.83,-261.25 854.67,-261.25 854.67,-261.25 851.58,-261.25 848.5,-258.17 848.5,-255.08 848.5,-255.08 848.5,-248.92 848.5,-248.92 848.5,-245.83 851.58,-242.75 854.67,-242.75 854.67,-242.75 916.83,-242.75 916.83,-242.75 919.92,-242.75 923,-245.83 923,-248.92 923,-248.92 923,-255.08 923,-255.08 923,-258.17 919.92,-261.25 916.83,-261.25"/>
<text text-anchor="start" x="856.5" y="-248.7" font-family="Helvetica,sans-Serif" font-size="9.00">AuthService.ts</text>
</a>
</g>
</g>
<!-- src/main/auth/strategies/JwtStrategy.ts&#45;&gt;src/main/auth/services/AuthService.ts -->
<g id="edge15" class="edge">
<title>src/main/auth/strategies/JwtStrategy.ts&#45;&gt;src/main/auth/services/AuthService.ts</title>
<path fill="none" stroke="#000000" stroke-width="2" stroke-opacity="0.200000" d="M805.71,-241.62C816.37,-243.02 828.23,-244.58 839.45,-246.05"/>
<polygon fill="#000000" fill-opacity="0.200000" stroke="#000000" stroke-width="2" stroke-opacity="0.200000" points="839.05,-248.12 845.27,-246.82 839.6,-243.95 839.05,-248.12"/>
</g>
<!-- src/main/auth/strategies/LocalStrategy.ts&#45;&gt;src/main/auth/services/AuthService.ts -->
<g id="edge16" class="edge">
<title>src/main/auth/strategies/LocalStrategy.ts&#45;&gt;src/main/auth/services/AuthService.ts</title>
<path fill="none" stroke="#000000" stroke-width="2" stroke-opacity="0.200000" d="M810.14,-262.45C819.61,-261.12 829.8,-259.7 839.5,-258.34"/>
<polygon fill="#000000" fill-opacity="0.200000" stroke="#000000" stroke-width="2" stroke-opacity="0.200000" points="839.6,-260.44 845.25,-257.53 839.02,-256.28 839.6,-260.44"/>
</g>
<!-- src/main/middlewares/AcademySchemaMiddleware.ts -->
<g id="node43" class="node">
<title>src/main/middlewares/AcademySchemaMiddleware.ts</title>
<g id="a_node43"><a xlink:href="src/main/middlewares/AcademySchemaMiddleware.ts" xlink:title="AcademySchemaMiddleware.ts">
<path fill="#ddfeff" stroke="black" d="M527.08,-373.25C527.08,-373.25 394.42,-373.25 394.42,-373.25 391.33,-373.25 388.25,-370.17 388.25,-367.08 388.25,-367.08 388.25,-360.92 388.25,-360.92 388.25,-357.83 391.33,-354.75 394.42,-354.75 394.42,-354.75 527.08,-354.75 527.08,-354.75 530.17,-354.75 533.25,-357.83 533.25,-360.92 533.25,-360.92 533.25,-367.08 533.25,-367.08 533.25,-370.17 530.17,-373.25 527.08,-373.25"/>
<text text-anchor="start" x="396.25" y="-360.7" font-family="Helvetica,sans-Serif" font-size="9.00">AcademySchemaMiddleware.ts</text>
</a>
</g>
</g>
<!-- src/main/routers/AcademySchemaRouter.ts&#45;&gt;src/main/middlewares/AcademySchemaMiddleware.ts -->
<g id="edge38" class="edge">
<title>src/main/routers/AcademySchemaRouter.ts&#45;&gt;src/main/middlewares/AcademySchemaMiddleware.ts</title>
<path fill="none" stroke="#000000" stroke-width="2" stroke-opacity="0.200000" d="M229.03,-523.31C241.16,-517.62 254.81,-509.3 263.75,-498 271.51,-488.18 264.36,-481.1 271.75,-471 303.61,-427.49 339.38,-445.76 372.25,-403 378.85,-394.42 372.09,-387.11 380.25,-380 380.77,-379.55 381.29,-379.11 381.83,-378.68"/>
<polygon fill="#000000" fill-opacity="0.200000" stroke="#000000" stroke-width="2" stroke-opacity="0.200000" points="382.9,-380.49 386.71,-375.4 380.56,-377 382.9,-380.49"/>
</g>
<!-- src/main/routers/academy/LevelRouter.ts -->
<g id="node47" class="node">
<title>src/main/routers/academy/LevelRouter.ts</title>
<g id="a_node47"><a xlink:href="src/main/routers/academy/LevelRouter.ts" xlink:title="LevelRouter.ts">
<path fill="#ddfeff" stroke="black" d="M357.08,-561.25C357.08,-561.25 294.92,-561.25 294.92,-561.25 291.83,-561.25 288.75,-558.17 288.75,-555.08 288.75,-555.08 288.75,-548.92 288.75,-548.92 288.75,-545.83 291.83,-542.75 294.92,-542.75 294.92,-542.75 357.08,-542.75 357.08,-542.75 360.17,-542.75 363.25,-545.83 363.25,-548.92 363.25,-548.92 363.25,-555.08 363.25,-555.08 363.25,-558.17 360.17,-561.25 357.08,-561.25"/>
<text text-anchor="start" x="296.75" y="-548.7" font-family="Helvetica,sans-Serif" font-size="9.00">LevelRouter.ts</text>
</a>
</g>
</g>
<!-- src/main/routers/AcademySchemaRouter.ts&#45;&gt;src/main/routers/academy/LevelRouter.ts -->
<g id="edge39" class="edge">
<title>src/main/routers/AcademySchemaRouter.ts&#45;&gt;src/main/routers/academy/LevelRouter.ts</title>
<path fill="none" stroke="#000000" stroke-width="2" stroke-opacity="0.200000" d="M264.23,-542.56C269.44,-543.36 274.63,-544.17 279.68,-544.96"/>
<polygon fill="#000000" fill-opacity="0.200000" stroke="#000000" stroke-width="2" stroke-opacity="0.200000" points="279.32,-547.03 285.57,-545.87 279.96,-542.88 279.32,-547.03"/>
</g>
<!-- src/main/routers/academy/UniversityRouter.ts -->
<g id="node48" class="node">
<title>src/main/routers/academy/UniversityRouter.ts</title>
<g id="a_node48"><a xlink:href="src/main/routers/academy/UniversityRouter.ts" xlink:title="UniversityRouter.ts">
<path fill="#ddfeff" stroke="black" d="M366.08,-592.25C366.08,-592.25 285.92,-592.25 285.92,-592.25 282.83,-592.25 279.75,-589.17 279.75,-586.08 279.75,-586.08 279.75,-579.92 279.75,-579.92 279.75,-576.83 282.83,-573.75 285.92,-573.75 285.92,-573.75 366.08,-573.75 366.08,-573.75 369.17,-573.75 372.25,-576.83 372.25,-579.92 372.25,-579.92 372.25,-586.08 372.25,-586.08 372.25,-589.17 369.17,-592.25 366.08,-592.25"/>
<text text-anchor="start" x="287.75" y="-579.7" font-family="Helvetica,sans-Serif" font-size="9.00">UniversityRouter.ts</text>
</a>
</g>
</g>
<!-- src/main/routers/AcademySchemaRouter.ts&#45;&gt;src/main/routers/academy/UniversityRouter.ts -->
<g id="edge40" class="edge">
<title>src/main/routers/AcademySchemaRouter.ts&#45;&gt;src/main/routers/academy/UniversityRouter.ts</title>
<path fill="none" stroke="#000000" stroke-width="2" stroke-opacity="0.200000" d="M220.25,-542.63C233.99,-549.94 253.73,-559.91 271.75,-567 274.8,-568.2 277.99,-569.37 281.21,-570.48"/>
<polygon fill="#000000" fill-opacity="0.200000" stroke="#000000" stroke-width="2" stroke-opacity="0.200000" points="280.54,-572.47 286.9,-572.37 281.86,-568.49 280.54,-572.47"/>
</g>
<!-- src/main/middlewares/UserSchemaMiddleware.ts -->
<g id="node44" class="node">
<title>src/main/middlewares/UserSchemaMiddleware.ts</title>
<g id="a_node44"><a xlink:href="src/main/middlewares/UserSchemaMiddleware.ts" xlink:title="UserSchemaMiddleware.ts">
<path fill="#ddfeff" stroke="black" d="M517.71,-404.25C517.71,-404.25 403.79,-404.25 403.79,-404.25 400.71,-404.25 397.62,-401.17 397.62,-398.08 397.62,-398.08 397.62,-391.92 397.62,-391.92 397.62,-388.83 400.71,-385.75 403.79,-385.75 403.79,-385.75 517.71,-385.75 517.71,-385.75 520.79,-385.75 523.88,-388.83 523.88,-391.92 523.88,-391.92 523.88,-398.08 523.88,-398.08 523.88,-401.17 520.79,-404.25 517.71,-404.25"/>
<text text-anchor="start" x="405.62" y="-391.7" font-family="Helvetica,sans-Serif" font-size="9.00">UserSchemaMiddleware.ts</text>
</a>
</g>
</g>
<!-- src/main/routers/UserSchemaRouter.ts&#45;&gt;src/main/middlewares/UserSchemaMiddleware.ts -->
<g id="edge41" class="edge">
<title>src/main/routers/UserSchemaRouter.ts&#45;&gt;src/main/middlewares/UserSchemaMiddleware.ts</title>
<path fill="none" stroke="#000000" stroke-width="2" stroke-opacity="0.200000" d="M231.24,-473.26C264.93,-461.74 322.67,-441.98 372.25,-425 388.91,-419.29 407.36,-412.97 423.01,-407.6"/>
<polygon fill="#000000" fill-opacity="0.200000" stroke="#000000" stroke-width="2" stroke-opacity="0.200000" points="423.52,-409.65 428.52,-405.71 422.16,-405.67 423.52,-409.65"/>
</g>
<!-- src/main/routers/user/UserRouter.ts -->
<g id="node49" class="node">
<title>src/main/routers/user/UserRouter.ts</title>
<g id="a_node49"><a xlink:href="src/main/routers/user/UserRouter.ts" xlink:title="UserRouter.ts">
<path fill="#ddfeff" stroke="black" d="M355.58,-500.25C355.58,-500.25 296.42,-500.25 296.42,-500.25 293.33,-500.25 290.25,-497.17 290.25,-494.08 290.25,-494.08 290.25,-487.92 290.25,-487.92 290.25,-484.83 293.33,-481.75 296.42,-481.75 296.42,-481.75 355.58,-481.75 355.58,-481.75 358.67,-481.75 361.75,-484.83 361.75,-487.92 361.75,-487.92 361.75,-494.08 361.75,-494.08 361.75,-497.17 358.67,-500.25 355.58,-500.25"/>
<text text-anchor="start" x="298.25" y="-487.7" font-family="Helvetica,sans-Serif" font-size="9.00">UserRouter.ts</text>
</a>
</g>
</g>
<!-- src/main/routers/UserSchemaRouter.ts&#45;&gt;src/main/routers/user/UserRouter.ts -->
<g id="edge42" class="edge">
<title>src/main/routers/UserSchemaRouter.ts&#45;&gt;src/main/routers/user/UserRouter.ts</title>
<path fill="none" stroke="#000000" stroke-width="2" stroke-opacity="0.200000" d="M254.6,-486.39C263.48,-486.97 272.64,-487.57 281.28,-488.14"/>
<polygon fill="#000000" fill-opacity="0.200000" stroke="#000000" stroke-width="2" stroke-opacity="0.200000" points="280.94,-490.22 287.06,-488.52 281.21,-486.03 280.94,-490.22"/>
</g>
<!-- src/main/auth/controllers/AuthController.ts&#45;&gt;src/main/auth/services/AuthService.ts -->
<g id="edge8" class="edge">
<title>src/main/auth/controllers/AuthController.ts&#45;&gt;src/main/auth/services/AuthService.ts</title>
<path fill="none" stroke="#000000" stroke-width="2" stroke-opacity="0.200000" d="M787.48,-58.6C801.39,-67.25 820.63,-81.19 832.5,-98 862.91,-141.09 876.76,-203.28 882.03,-233.76"/>
<polygon fill="#000000" fill-opacity="0.200000" stroke="#000000" stroke-width="2" stroke-opacity="0.200000" points="879.92,-233.91 882.96,-239.49 884.07,-233.23 879.92,-233.91"/>
</g>
<!-- src/main/services/AuthUserService.ts -->
<g id="node14" class="node">
<title>src/main/services/AuthUserService.ts</title>
<g id="a_node14"><a xlink:href="src/main/services/AuthUserService.ts" xlink:title="AuthUserService.ts">
<path fill="#ddfeff" stroke="black" d="M1204.33,-342.25C1204.33,-342.25 1122.67,-342.25 1122.67,-342.25 1119.58,-342.25 1116.5,-339.17 1116.5,-336.08 1116.5,-336.08 1116.5,-329.92 1116.5,-329.92 1116.5,-326.83 1119.58,-323.75 1122.67,-323.75 1122.67,-323.75 1204.33,-323.75 1204.33,-323.75 1207.42,-323.75 1210.5,-326.83 1210.5,-329.92 1210.5,-329.92 1210.5,-336.08 1210.5,-336.08 1210.5,-339.17 1207.42,-342.25 1204.33,-342.25"/>
<text text-anchor="start" x="1124.5" y="-329.7" font-family="Helvetica,sans-Serif" font-size="9.00">AuthUserService.ts</text>
</a>
</g>
</g>
<!-- src/main/auth/services/AuthService.ts&#45;&gt;src/main/services/AuthUserService.ts -->
<g id="edge14" class="edge">
<title>src/main/auth/services/AuthService.ts&#45;&gt;src/main/services/AuthUserService.ts</title>
<path fill="none" stroke="#000000" stroke-width="2" stroke-opacity="0.200000" d="M919.74,-261.69C970.08,-276.48 1066.02,-304.66 1121.01,-320.81"/>
<polygon fill="#000000" fill-opacity="0.200000" stroke="#000000" stroke-width="2" stroke-opacity="0.200000" points="1120.22,-322.77 1126.57,-322.45 1121.4,-318.74 1120.22,-322.77"/>
</g>
<!-- src/main/auth/interfaces.ts -->
<g id="node11" class="node">
<title>src/main/auth/interfaces.ts</title>
<g id="a_node11"><a xlink:href="src/main/auth/interfaces.ts" xlink:title="no&#45;orphans">
<path fill="#ccffcc" stroke="orange" d="M486.96,-298.25C486.96,-298.25 434.54,-298.25 434.54,-298.25 431.46,-298.25 428.38,-295.17 428.38,-292.08 428.38,-292.08 428.38,-285.92 428.38,-285.92 428.38,-282.83 431.46,-279.75 434.54,-279.75 434.54,-279.75 486.96,-279.75 486.96,-279.75 490.04,-279.75 493.12,-282.83 493.12,-285.92 493.12,-285.92 493.12,-292.08 493.12,-292.08 493.12,-295.17 490.04,-298.25 486.96,-298.25"/>
<text text-anchor="start" x="436.38" y="-285.7" font-family="Helvetica,sans-Serif" font-size="9.00" fill="orange">interfaces.ts</text>
</a>
</g>
</g>
<!-- src/main/auth/middlewares/AuthMiddleware.ts&#45;&gt;src/main/auth/strategies/JwtStrategy.ts -->
<g id="edge9" class="edge">
<title>src/main/auth/middlewares/AuthMiddleware.ts&#45;&gt;src/main/auth/strategies/JwtStrategy.ts</title>
<path fill="none" stroke="#000000" stroke-width="2" stroke-opacity="0.200000" d="M669.92,-239.75C687.44,-239.26 707.43,-238.7 724.81,-238.22"/>
<polygon fill="#000000" fill-opacity="0.200000" stroke="#000000" stroke-width="2" stroke-opacity="0.200000" points="724.67,-240.32 730.61,-238.06 724.55,-236.12 724.67,-240.32"/>
</g>
<!-- src/main/auth/middlewares/AuthMiddleware.ts&#45;&gt;src/main/auth/strategies/LocalStrategy.ts -->
<g id="edge10" class="edge">
<title>src/main/auth/middlewares/AuthMiddleware.ts&#45;&gt;src/main/auth/strategies/LocalStrategy.ts</title>
<path fill="none" stroke="#000000" stroke-width="2" stroke-opacity="0.200000" d="M670.07,-248.81C679.47,-250.49 689.32,-252.27 698.5,-254 705.59,-255.33 713.08,-256.79 720.41,-258.23"/>
<polygon fill="#000000" fill-opacity="0.200000" stroke="#000000" stroke-width="2" stroke-opacity="0.200000" points="719.66,-260.22 725.95,-259.33 720.47,-256.1 719.66,-260.22"/>
</g>
<!-- src/main/auth/validations/dto/SignUpUserDTO.ts -->
<g id="node13" class="node">
<title>src/main/auth/validations/dto/SignUpUserDTO.ts</title>
<g id="a_node13"><a xlink:href="src/main/auth/validations/dto/SignUpUserDTO.ts" xlink:title="SignUpUserDTO.ts">
<path fill="#ddfeff" stroke="black" d="M810.33,-127.25C810.33,-127.25 728.67,-127.25 728.67,-127.25 725.58,-127.25 722.5,-124.17 722.5,-121.08 722.5,-121.08 722.5,-114.92 722.5,-114.92 722.5,-111.83 725.58,-108.75 728.67,-108.75 728.67,-108.75 810.33,-108.75 810.33,-108.75 813.42,-108.75 816.5,-111.83 816.5,-114.92 816.5,-114.92 816.5,-121.08 816.5,-121.08 816.5,-124.17 813.42,-127.25 810.33,-127.25"/>
<text text-anchor="start" x="730.5" y="-114.7" font-family="Helvetica,sans-Serif" font-size="9.00">SignUpUserDTO.ts</text>
</a>
</g>
</g>
<!-- src/main/auth/middlewares/AuthMiddleware.ts&#45;&gt;src/main/auth/validations/dto/SignUpUserDTO.ts -->
<g id="edge11" class="edge">
<title>src/main/auth/middlewares/AuthMiddleware.ts&#45;&gt;src/main/auth/validations/dto/SignUpUserDTO.ts</title>
<path fill="none" stroke="#000000" stroke-width="2" stroke-opacity="0.200000" d="M670.08,-240.2C680.81,-237.8 691.24,-233.24 698.5,-225 711.92,-209.77 693.38,-149.49 706.5,-134 708.71,-131.39 711.29,-129.17 714.12,-127.29"/>
<polygon fill="#000000" fill-opacity="0.200000" stroke="#000000" stroke-width="2" stroke-opacity="0.200000" points="715.09,-129.16 719.41,-124.5 713.12,-125.44 715.09,-129.16"/>
</g>
<!-- src/main/entities/AuthUserEntity.ts -->
<g id="node32" class="node">
<title>src/main/entities/AuthUserEntity.ts</title>
<g id="a_node32"><a xlink:href="src/main/entities/AuthUserEntity.ts" xlink:title="AuthUserEntity.ts">
<path fill="#ddfeff" stroke="black" d="M1322.46,-495.25C1322.46,-495.25 1249.79,-495.25 1249.79,-495.25 1246.71,-495.25 1243.62,-492.17 1243.62,-489.08 1243.62,-489.08 1243.62,-482.92 1243.62,-482.92 1243.62,-479.83 1246.71,-476.75 1249.79,-476.75 1249.79,-476.75 1322.46,-476.75 1322.46,-476.75 1325.54,-476.75 1328.62,-479.83 1328.62,-482.92 1328.62,-482.92 1328.62,-489.08 1328.62,-489.08 1328.62,-492.17 1325.54,-495.25 1322.46,-495.25"/>
<text text-anchor="start" x="1251.62" y="-482.7" font-family="Helvetica,sans-Serif" font-size="9.00">AuthUserEntity.ts</text>
</a>
</g>
</g>
<!-- src/main/services/AuthUserService.ts&#45;&gt;src/main/entities/AuthUserEntity.ts -->
<g id="edge55" class="edge">
<title>src/main/services/AuthUserService.ts&#45;&gt;src/main/entities/AuthUserEntity.ts</title>
<path fill="none" stroke="#000000" stroke-width="2" stroke-opacity="0.200000" d="M1210.82,-335.95C1217.25,-338.29 1223.17,-341.8 1227.62,-347 1245.45,-367.79 1218.8,-448.39 1235.62,-470 1235.89,-470.34 1236.16,-470.67 1236.44,-470.99"/>
<polygon fill="#000000" fill-opacity="0.200000" stroke="#000000" stroke-width="2" stroke-opacity="0.200000" points="1234.97,-472.5 1240.88,-474.86 1237.73,-469.33 1234.97,-472.5"/>
</g>
<!-- src/main/auth/validations/dto/SignInUserDTO.ts -->
<g id="node15" class="node">
<title>src/main/auth/validations/dto/SignInUserDTO.ts</title>
<g id="a_node15"><a xlink:href="src/main/auth/validations/dto/SignInUserDTO.ts" xlink:title="no&#45;orphans">
<path fill="#ccffcc" stroke="orange" d="M808.08,-158.25C808.08,-158.25 730.92,-158.25 730.92,-158.25 727.83,-158.25 724.75,-155.17 724.75,-152.08 724.75,-152.08 724.75,-145.92 724.75,-145.92 724.75,-142.83 727.83,-139.75 730.92,-139.75 730.92,-139.75 808.08,-139.75 808.08,-139.75 811.17,-139.75 814.25,-142.83 814.25,-145.92 814.25,-145.92 814.25,-152.08 814.25,-152.08 814.25,-155.17 811.17,-158.25 808.08,-158.25"/>
<text text-anchor="start" x="732.75" y="-145.7" font-family="Helvetica,sans-Serif" font-size="9.00" fill="orange">SignInUserDTO.ts</text>
</a>
</g>
</g>
<!-- src/main/controllers/academy/AreaController.ts -->
<g id="node16" class="node">
<title>src/main/controllers/academy/AreaController.ts</title>
<g id="a_node16"><a xlink:href="src/main/controllers/academy/AreaController.ts" xlink:title="AreaController.ts">
<path fill="#ddfeff" stroke="black" d="M1058.71,-437.25C1058.71,-437.25 986.79,-437.25 986.79,-437.25 983.71,-437.25 980.62,-434.17 980.62,-431.08 980.62,-431.08 980.62,-424.92 980.62,-424.92 980.62,-421.83 983.71,-418.75 986.79,-418.75 986.79,-418.75 1058.71,-418.75 1058.71,-418.75 1061.79,-418.75 1064.88,-421.83 1064.88,-424.92 1064.88,-424.92 1064.88,-431.08 1064.88,-431.08 1064.88,-434.17 1061.79,-437.25 1058.71,-437.25"/>
<text text-anchor="start" x="988.62" y="-424.7" font-family="Helvetica,sans-Serif" font-size="9.00">AreaController.ts</text>
</a>
</g>
</g>
<!-- src/main/services/academy/AreaService.ts -->
<g id="node17" class="node">
<title>src/main/services/academy/AreaService.ts</title>
<g id="a_node17"><a xlink:href="src/main/services/academy/AreaService.ts" xlink:title="AreaService.ts">
<path fill="#ddfeff" stroke="black" d="M1194.96,-437.25C1194.96,-437.25 1132.04,-437.25 1132.04,-437.25 1128.96,-437.25 1125.88,-434.17 1125.88,-431.08 1125.88,-431.08 1125.88,-424.92 1125.88,-424.92 1125.88,-421.83 1128.96,-418.75 1132.04,-418.75 1132.04,-418.75 1194.96,-418.75 1194.96,-418.75 1198.04,-418.75 1201.12,-421.83 1201.12,-424.92 1201.12,-424.92 1201.12,-431.08 1201.12,-431.08 1201.12,-434.17 1198.04,-437.25 1194.96,-437.25"/>
<text text-anchor="start" x="1133.88" y="-424.7" font-family="Helvetica,sans-Serif" font-size="9.00">AreaService.ts</text>
</a>
</g>
</g>
<!-- src/main/controllers/academy/AreaController.ts&#45;&gt;src/main/services/academy/AreaService.ts -->
<g id="edge17" class="edge">
<title>src/main/controllers/academy/AreaController.ts&#45;&gt;src/main/services/academy/AreaService.ts</title>
<path fill="none" stroke="#000000" stroke-width="2" stroke-opacity="0.200000" d="M1065,-428C1081.18,-428 1099.81,-428 1116.43,-428"/>
<polygon fill="#000000" fill-opacity="0.200000" stroke="#000000" stroke-width="2" stroke-opacity="0.200000" points="1116.39,-430.1 1122.39,-428 1116.39,-425.9 1116.39,-430.1"/>
</g>
<!-- src/main/entities/AreaEntity.ts -->
<g id="node30" class="node">
<title>src/main/entities/AreaEntity.ts</title>
<g id="a_node30"><a xlink:href="src/main/entities/AreaEntity.ts" xlink:title="AreaEntity.ts">
<path fill="#ddfeff" stroke="black" d="M1578.21,-487.25C1578.21,-487.25 1524.29,-487.25 1524.29,-487.25 1521.21,-487.25 1518.12,-484.17 1518.12,-481.08 1518.12,-481.08 1518.12,-474.92 1518.12,-474.92 1518.12,-471.83 1521.21,-468.75 1524.29,-468.75 1524.29,-468.75 1578.21,-468.75 1578.21,-468.75 1581.29,-468.75 1584.38,-471.83 1584.38,-474.92 1584.38,-474.92 1584.38,-481.08 1584.38,-481.08 1584.38,-484.17 1581.29,-487.25 1578.21,-487.25"/>
<text text-anchor="start" x="1526.12" y="-474.7" font-family="Helvetica,sans-Serif" font-size="9.00">AreaEntity.ts</text>
</a>
</g>
</g>
<!-- src/main/services/academy/AreaService.ts&#45;&gt;src/main/entities/AreaEntity.ts -->
<g id="edge56" class="edge">
<title>src/main/services/academy/AreaService.ts&#45;&gt;src/main/entities/AreaEntity.ts</title>
<path fill="none" stroke="#000000" stroke-width="2" stroke-opacity="0.200000" d="M1193.91,-418.29C1206.59,-414.6 1221.69,-410.83 1235.62,-409 1314.83,-398.6 1337.16,-392.74 1415.38,-409 1459.48,-418.17 1504.95,-445.96 1530.2,-463.34"/>
<polygon fill="#000000" fill-opacity="0.200000" stroke="#000000" stroke-width="2" stroke-opacity="0.200000" points="1528.78,-464.91 1534.89,-466.64 1531.19,-461.47 1528.78,-464.91"/>
</g>
<!-- src/main/controllers/academy/CourseController.ts -->
<g id="node18" class="node">
<title>src/main/controllers/academy/CourseController.ts</title>
<g id="a_node18"><a xlink:href="src/main/controllers/academy/CourseController.ts" xlink:title="CourseController.ts">
<path fill="#ddfeff" stroke="black" d="M1063.96,-592.25C1063.96,-592.25 981.54,-592.25 981.54,-592.25 978.46,-592.25 975.38,-589.17 975.38,-586.08 975.38,-586.08 975.38,-579.92 975.38,-579.92 975.38,-576.83 978.46,-573.75 981.54,-573.75 981.54,-573.75 1063.96,-573.75 1063.96,-573.75 1067.04,-573.75 1070.12,-576.83 1070.12,-579.92 1070.12,-579.92 1070.12,-586.08 1070.12,-586.08 1070.12,-589.17 1067.04,-592.25 1063.96,-592.25"/>
<text text-anchor="start" x="983.38" y="-579.7" font-family="Helvetica,sans-Serif" font-size="9.00">CourseController.ts</text>
</a>
</g>
</g>
<!-- src/main/services/academy/CourseService.ts -->
<g id="node19" class="node">
<title>src/main/services/academy/CourseService.ts</title>
<g id="a_node19"><a xlink:href="src/main/services/academy/CourseService.ts" xlink:title="CourseService.ts">
<path fill="#ddfeff" stroke="black" d="M1200.21,-592.25C1200.21,-592.25 1126.79,-592.25 1126.79,-592.25 1123.71,-592.25 1120.62,-589.17 1120.62,-586.08 1120.62,-586.08 1120.62,-579.92 1120.62,-579.92 1120.62,-576.83 1123.71,-573.75 1126.79,-573.75 1126.79,-573.75 1200.21,-573.75 1200.21,-573.75 1203.29,-573.75 1206.38,-576.83 1206.38,-579.92 1206.38,-579.92 1206.38,-586.08 1206.38,-586.08 1206.38,-589.17 1203.29,-592.25 1200.21,-592.25"/>
<text text-anchor="start" x="1128.62" y="-579.7" font-family="Helvetica,sans-Serif" font-size="9.00">CourseService.ts</text>
</a>
</g>
</g>
<!-- src/main/controllers/academy/CourseController.ts&#45;&gt;src/main/services/academy/CourseService.ts -->
<g id="edge18" class="edge">
<title>src/main/controllers/academy/CourseController.ts&#45;&gt;src/main/services/academy/CourseService.ts</title>
<path fill="none" stroke="#000000" stroke-width="2" stroke-opacity="0.200000" d="M1070.34,-583C1083.64,-583 1098.2,-583 1111.74,-583"/>
<polygon fill="#000000" fill-opacity="0.200000" stroke="#000000" stroke-width="2" stroke-opacity="0.200000" points="1111.44,-585.1 1117.44,-583 1111.44,-580.9 1111.44,-585.1"/>
</g>
<!-- src/main/entities/CourseEntity.ts -->
<g id="node35" class="node">
<title>src/main/entities/CourseEntity.ts</title>
<g id="a_node35"><a xlink:href="src/main/entities/CourseEntity.ts" xlink:title="CourseEntity.ts">
<path fill="#ddfeff" stroke="black" d="M1498.96,-503.25C1498.96,-503.25 1434.54,-503.25 1434.54,-503.25 1431.46,-503.25 1428.38,-500.17 1428.38,-497.08 1428.38,-497.08 1428.38,-490.92 1428.38,-490.92 1428.38,-487.83 1431.46,-484.75 1434.54,-484.75 1434.54,-484.75 1498.96,-484.75 1498.96,-484.75 1502.04,-484.75 1505.12,-487.83 1505.12,-490.92 1505.12,-490.92 1505.12,-497.08 1505.12,-497.08 1505.12,-500.17 1502.04,-503.25 1498.96,-503.25"/>
<text text-anchor="start" x="1436.38" y="-490.7" font-family="Helvetica,sans-Serif" font-size="9.00">CourseEntity.ts</text>
</a>
</g>
</g>
<!-- src/main/services/academy/CourseService.ts&#45;&gt;src/main/entities/CourseEntity.ts -->
<g id="edge57" class="edge">
<title>src/main/services/academy/CourseService.ts&#45;&gt;src/main/entities/CourseEntity.ts</title>
<path fill="none" stroke="#000000" stroke-width="2" stroke-opacity="0.200000" d="M1206.64,-580.15C1257.94,-575.42 1346.29,-563.14 1415.38,-532 1427.67,-526.46 1439.79,-517.46 1449.06,-509.61"/>
<polygon fill="#000000" fill-opacity="0.200000" stroke="#000000" stroke-width="2" stroke-opacity="0.200000" points="1450.44,-511.19 1453.56,-505.65 1447.66,-508.04 1450.44,-511.19"/>
</g>
<!-- src/main/controllers/academy/LevelController.ts -->
<g id="node20" class="node">
<title>src/main/controllers/academy/LevelController.ts</title>
<g id="a_node20"><a xlink:href="src/main/controllers/academy/LevelController.ts" xlink:title="LevelController.ts">
<path fill="#ddfeff" stroke="black" d="M1060.21,-499.25C1060.21,-499.25 985.29,-499.25 985.29,-499.25 982.21,-499.25 979.12,-496.17 979.12,-493.08 979.12,-493.08 979.12,-486.92 979.12,-486.92 979.12,-483.83 982.21,-480.75 985.29,-480.75 985.29,-480.75 1060.21,-480.75 1060.21,-480.75 1063.29,-480.75 1066.38,-483.83 1066.38,-486.92 1066.38,-486.92 1066.38,-493.08 1066.38,-493.08 1066.38,-496.17 1063.29,-499.25 1060.21,-499.25"/>
<text text-anchor="start" x="987.12" y="-486.7" font-family="Helvetica,sans-Serif" font-size="9.00">LevelController.ts</text>
</a>
</g>
</g>
<!-- src/main/services/academy/LevelService.ts -->
<g id="node21" class="node">
<title>src/main/services/academy/LevelService.ts</title>
<g id="a_node21"><a xlink:href="src/main/services/academy/LevelService.ts" xlink:title="LevelService.ts">
<path fill="#ddfeff" stroke="black" d="M1196.46,-499.25C1196.46,-499.25 1130.54,-499.25 1130.54,-499.25 1127.46,-499.25 1124.38,-496.17 1124.38,-493.08 1124.38,-493.08 1124.38,-486.92 1124.38,-486.92 1124.38,-483.83 1127.46,-480.75 1130.54,-480.75 1130.54,-480.75 1196.46,-480.75 1196.46,-480.75 1199.54,-480.75 1202.62,-483.83 1202.62,-486.92 1202.62,-486.92 1202.62,-493.08 1202.62,-493.08 1202.62,-496.17 1199.54,-499.25 1196.46,-499.25"/>
<text text-anchor="start" x="1132.38" y="-486.7" font-family="Helvetica,sans-Serif" font-size="9.00">LevelService.ts</text>
</a>
</g>
</g>
<!-- src/main/controllers/academy/LevelController.ts&#45;&gt;src/main/services/academy/LevelService.ts -->
<g id="edge19" class="edge">
<title>src/main/controllers/academy/LevelController.ts&#45;&gt;src/main/services/academy/LevelService.ts</title>
<path fill="none" stroke="#000000" stroke-width="2" stroke-opacity="0.200000" d="M1066.51,-490C1081.82,-490 1099.17,-490 1114.86,-490"/>
<polygon fill="#000000" fill-opacity="0.200000" stroke="#000000" stroke-width="2" stroke-opacity="0.200000" points="1114.86,-492.1 1120.86,-490 1114.86,-487.9 1114.86,-492.1"/>
</g>
<!-- src/main/entities/LevelEntity.ts -->
<g id="node36" class="node">
<title>src/main/entities/LevelEntity.ts</title>
<g id="a_node36"><a xlink:href="src/main/entities/LevelEntity.ts" xlink:title="LevelEntity.ts">
<path fill="#ddfeff" stroke="black" d="M1406.96,-464.25C1406.96,-464.25 1350.04,-464.25 1350.04,-464.25 1346.96,-464.25 1343.88,-461.17 1343.88,-458.08 1343.88,-458.08 1343.88,-451.92 1343.88,-451.92 1343.88,-448.83 1346.96,-445.75 1350.04,-445.75 1350.04,-445.75 1406.96,-445.75 1406.96,-445.75 1410.04,-445.75 1413.12,-448.83 1413.12,-451.92 1413.12,-451.92 1413.12,-458.08 1413.12,-458.08 1413.12,-461.17 1410.04,-464.25 1406.96,-464.25"/>
<text text-anchor="start" x="1351.88" y="-451.7" font-family="Helvetica,sans-Serif" font-size="9.00">LevelEntity.ts</text>
</a>
</g>
</g>
<!-- src/main/services/academy/LevelService.ts&#45;&gt;src/main/entities/LevelEntity.ts -->
<g id="edge58" class="edge">
<title>src/main/services/academy/LevelService.ts&#45;&gt;src/main/entities/LevelEntity.ts</title>
<path fill="none" stroke="#000000" stroke-width="2" stroke-opacity="0.200000" d="M1202.99,-497.81C1244.92,-505.42 1308.69,-514.09 1328.62,-501 1340.77,-493.02 1331.4,-481.33 1341.62,-471 1342.07,-470.55 1342.54,-470.1 1343.02,-469.67"/>
<polygon fill="#000000" fill-opacity="0.200000" stroke="#000000" stroke-width="2" stroke-opacity="0.200000" points="1343.79,-471.71 1347.41,-466.48 1341.32,-468.31 1343.79,-471.71"/>
</g>
<!-- src/main/controllers/academy/QuestionController.ts -->
<g id="node22" class="node">
<title>src/main/controllers/academy/QuestionController.ts</title>
<g id="a_node22"><a xlink:href="src/main/controllers/academy/QuestionController.ts" xlink:title="QuestionController.ts">
<path fill="#ddfeff" stroke="black" d="M1067.33,-468.25C1067.33,-468.25 978.17,-468.25 978.17,-468.25 975.08,-468.25 972,-465.17 972,-462.08 972,-462.08 972,-455.92 972,-455.92 972,-452.83 975.08,-449.75 978.17,-449.75 978.17,-449.75 1067.33,-449.75 1067.33,-449.75 1070.42,-449.75 1073.5,-452.83 1073.5,-455.92 1073.5,-455.92 1073.5,-462.08 1073.5,-462.08 1073.5,-465.17 1070.42,-468.25 1067.33,-468.25"/>
<text text-anchor="start" x="980" y="-455.7" font-family="Helvetica,sans-Serif" font-size="9.00">QuestionController.ts</text>
</a>
</g>
</g>
<!-- src/main/services/academy/QuestionService.ts -->
<g id="node23" class="node">
<title>src/main/services/academy/QuestionService.ts</title>
<g id="a_node23"><a xlink:href="src/main/services/academy/QuestionService.ts" xlink:title="QuestionService.ts">
<path fill="#ddfeff" stroke="black" d="M1203.58,-468.25C1203.58,-468.25 1123.42,-468.25 1123.42,-468.25 1120.33,-468.25 1117.25,-465.17 1117.25,-462.08 1117.25,-462.08 1117.25,-455.92 1117.25,-455.92 1117.25,-452.83 1120.33,-449.75 1123.42,-449.75 1123.42,-449.75 1203.58,-449.75 1203.58,-449.75 1206.67,-449.75 1209.75,-452.83 1209.75,-455.92 1209.75,-455.92 1209.75,-462.08 1209.75,-462.08 1209.75,-465.17 1206.67,-468.25 1203.58,-468.25"/>
<text text-anchor="start" x="1125.25" y="-455.7" font-family="Helvetica,sans-Serif" font-size="9.00">QuestionService.ts</text>
</a>
</g>
</g>
<!-- src/main/controllers/academy/QuestionController.ts&#45;&gt;src/main/services/academy/QuestionService.ts -->
<g id="edge20" class="edge">
<title>src/main/controllers/academy/QuestionController.ts&#45;&gt;src/main/services/academy/QuestionService.ts</title>
<path fill="none" stroke="#000000" stroke-width="2" stroke-opacity="0.200000" d="M1073.84,-459C1084.99,-459 1096.86,-459 1108.17,-459"/>
<polygon fill="#000000" fill-opacity="0.200000" stroke="#000000" stroke-width="2" stroke-opacity="0.200000" points="1108.07,-461.1 1114.06,-459 1108.06,-456.9 1108.07,-461.1"/>
</g>
<!-- src/main/entities/QuestionEntity.ts -->
<g id="node40" class="node">
<title>src/main/entities/QuestionEntity.ts</title>
<g id="a_node40"><a xlink:href="src/main/entities/QuestionEntity.ts" xlink:title="QuestionEntity.ts">
<path fill="#ddfeff" stroke="black" d="M1321.71,-433.25C1321.71,-433.25 1250.54,-433.25 1250.54,-433.25 1247.46,-433.25 1244.38,-430.17 1244.38,-427.08 1244.38,-427.08 1244.38,-420.92 1244.38,-420.92 1244.38,-417.83 1247.46,-414.75 1250.54,-414.75 1250.54,-414.75 1321.71,-414.75 1321.71,-414.75 1324.79,-414.75 1327.88,-417.83 1327.88,-420.92 1327.88,-420.92 1327.88,-427.08 1327.88,-427.08 1327.88,-430.17 1324.79,-433.25 1321.71,-433.25"/>
<text text-anchor="start" x="1252.38" y="-420.7" font-family="Helvetica,sans-Serif" font-size="9.00">QuestionEntity.ts</text>
</a>
</g>
</g>
<!-- src/main/services/academy/QuestionService.ts&#45;&gt;src/main/entities/QuestionEntity.ts -->
<g id="edge59" class="edge">
<title>src/main/services/academy/QuestionService.ts&#45;&gt;src/main/entities/QuestionEntity.ts</title>
<path fill="none" stroke="#000000" stroke-width="2" stroke-opacity="0.200000" d="M1205.43,-449.33C1212.86,-447.37 1220.5,-445.23 1227.62,-443 1231.25,-441.87 1232.04,-441.25 1235.62,-440 1239.03,-438.81 1242.58,-437.6 1246.14,-436.41"/>
<polygon fill="#000000" fill-opacity="0.200000" stroke="#000000" stroke-width="2" stroke-opacity="0.200000" points="1246.51,-438.5 1251.55,-434.63 1245.19,-434.52 1246.51,-438.5"/>
</g>
<!-- src/main/controllers/academy/TopicController.ts -->
<g id="node24" class="node">
<title>src/main/controllers/academy/TopicController.ts</title>
<g id="a_node24"><a xlink:href="src/main/controllers/academy/TopicController.ts" xlink:title="TopicController.ts">
<path fill="#ddfeff" stroke="black" d="M1059.83,-530.25C1059.83,-530.25 985.67,-530.25 985.67,-530.25 982.58,-530.25 979.5,-527.17 979.5,-524.08 979.5,-524.08 979.5,-517.92 979.5,-517.92 979.5,-514.83 982.58,-511.75 985.67,-511.75 985.67,-511.75 1059.83,-511.75 1059.83,-511.75 1062.92,-511.75 1066,-514.83 1066,-517.92 1066,-517.92 1066,-524.08 1066,-524.08 1066,-527.17 1062.92,-530.25 1059.83,-530.25"/>
<text text-anchor="start" x="987.5" y="-517.7" font-family="Helvetica,sans-Serif" font-size="9.00">TopicController.ts</text>
</a>
</g>
</g>
<!-- src/main/services/academy/TopicService.ts -->
<g id="node25" class="node">
<title>src/main/services/academy/TopicService.ts</title>
<g id="a_node25"><a xlink:href="src/main/services/academy/TopicService.ts" xlink:title="TopicService.ts">
<path fill="#ddfeff" stroke="black" d="M1196.08,-530.25C1196.08,-530.25 1130.92,-530.25 1130.92,-530.25 1127.83,-530.25 1124.75,-527.17 1124.75,-524.08 1124.75,-524.08 1124.75,-517.92 1124.75,-517.92 1124.75,-514.83 1127.83,-511.75 1130.92,-511.75 1130.92,-511.75 1196.08,-511.75 1196.08,-511.75 1199.17,-511.75 1202.25,-514.83 1202.25,-517.92 1202.25,-517.92 1202.25,-524.08 1202.25,-524.08 1202.25,-527.17 1199.17,-530.25 1196.08,-530.25"/>
<text text-anchor="start" x="1132.75" y="-517.7" font-family="Helvetica,sans-Serif" font-size="9.00">TopicService.ts</text>
</a>
</g>
</g>
<!-- src/main/controllers/academy/TopicController.ts&#45;&gt;src/main/services/academy/TopicService.ts -->
<g id="edge21" class="edge">
<title>src/main/controllers/academy/TopicController.ts&#45;&gt;src/main/services/academy/TopicService.ts</title>
<path fill="none" stroke="#000000" stroke-width="2" stroke-opacity="0.200000" d="M1066.13,-521C1081.87,-521 1099.8,-521 1115.89,-521"/>
<polygon fill="#000000" fill-opacity="0.200000" stroke="#000000" stroke-width="2" stroke-opacity="0.200000" points="1115.59,-523.1 1121.59,-521 1115.59,-518.9 1115.59,-523.1"/>
</g>
<!-- src/main/entities/TopicEntity.ts -->
<g id="node38" class="node">
<title>src/main/entities/TopicEntity.ts</title>
<g id="a_node38"><a xlink:href="src/main/entities/TopicEntity.ts" xlink:title="TopicEntity.ts">
<path fill="#ddfeff" stroke="black" d="M1406.58,-495.25C1406.58,-495.25 1350.42,-495.25 1350.42,-495.25 1347.33,-495.25 1344.25,-492.17 1344.25,-489.08 1344.25,-489.08 1344.25,-482.92 1344.25,-482.92 1344.25,-479.83 1347.33,-476.75 1350.42,-476.75 1350.42,-476.75 1406.58,-476.75 1406.58,-476.75 1409.67,-476.75 1412.75,-479.83 1412.75,-482.92 1412.75,-482.92 1412.75,-489.08 1412.75,-489.08 1412.75,-492.17 1409.67,-495.25 1406.58,-495.25"/>
<text text-anchor="start" x="1352.25" y="-482.7" font-family="Helvetica,sans-Serif" font-size="9.00">TopicEntity.ts</text>
</a>
</g>
</g>
<!-- src/main/services/academy/TopicService.ts&#45;&gt;src/main/entities/TopicEntity.ts -->
<g id="edge60" class="edge">
<title>src/main/services/academy/TopicService.ts&#45;&gt;src/main/entities/TopicEntity.ts</title>
<path fill="none" stroke="#000000" stroke-width="2" stroke-opacity="0.200000" d="M1202.61,-521.75C1236.28,-521.53 1286.45,-519.03 1328.62,-508 1334.78,-506.39 1335.83,-504.63 1341.62,-502 1343.64,-501.09 1345.71,-500.15 1347.8,-499.21"/>
<polygon fill="#000000" fill-opacity="0.200000" stroke="#000000" stroke-width="2" stroke-opacity="0.200000" points="1348.47,-501.21 1353.09,-496.84 1346.76,-497.38 1348.47,-501.21"/>
</g>
<!-- src/main/controllers/academy/UniversityController.ts -->
<g id="node26" class="node">
<title>src/main/controllers/academy/UniversityController.ts</title>
<g id="a_node26"><a xlink:href="src/main/controllers/academy/UniversityController.ts" xlink:title="UniversityController.ts">
<path fill="#ddfeff" stroke="black" d="M1069.21,-561.25C1069.21,-561.25 976.29,-561.25 976.29,-561.25 973.21,-561.25 970.12,-558.17 970.12,-555.08 970.12,-555.08 970.12,-548.92 970.12,-548.92 970.12,-545.83 973.21,-542.75 976.29,-542.75 976.29,-542.75 1069.21,-542.75 1069.21,-542.75 1072.29,-542.75 1075.38,-545.83 1075.38,-548.92 1075.38,-548.92 1075.38,-555.08 1075.38,-555.08 1075.38,-558.17 1072.29,-561.25 1069.21,-561.25"/>
<text text-anchor="start" x="978.12" y="-548.7" font-family="Helvetica,sans-Serif" font-size="9.00">UniversityController.ts</text>
</a>
</g>
</g>
<!-- src/main/services/academy/UniversityService.ts -->
<g id="node27" class="node">
<title>src/main/services/academy/UniversityService.ts</title>
<g id="a_node27"><a xlink:href="src/main/services/academy/UniversityService.ts" xlink:title="UniversityService.ts">
<path fill="#ddfeff" stroke="black" d="M1205.46,-561.25C1205.46,-561.25 1121.54,-561.25 1121.54,-561.25 1118.46,-561.25 1115.38,-558.17 1115.38,-555.08 1115.38,-555.08 1115.38,-548.92 1115.38,-548.92 1115.38,-545.83 1118.46,-542.75 1121.54,-542.75 1121.54,-542.75 1205.46,-542.75 1205.46,-542.75 1208.54,-542.75 1211.62,-545.83 1211.62,-548.92 1211.62,-548.92 1211.62,-555.08 1211.62,-555.08 1211.62,-558.17 1208.54,-561.25 1205.46,-561.25"/>
<text text-anchor="start" x="1123.38" y="-548.7" font-family="Helvetica,sans-Serif" font-size="9.00">UniversityService.ts</text>
</a>
</g>
</g>
<!-- src/main/controllers/academy/UniversityController.ts&#45;&gt;src/main/services/academy/UniversityService.ts -->
<g id="edge22" class="edge">
<title>src/main/controllers/academy/UniversityController.ts&#45;&gt;src/main/services/academy/UniversityService.ts</title>
<path fill="none" stroke="#000000" stroke-width="2" stroke-opacity="0.200000" d="M1075.81,-552C1085.8,-552 1096.31,-552 1106.42,-552"/>
<polygon fill="#000000" fill-opacity="0.200000" stroke="#000000" stroke-width="2" stroke-opacity="0.200000" points="1106.15,-554.1 1112.15,-552 1106.15,-549.9 1106.15,-554.1"/>
</g>
<!-- src/main/entities/UniversityEntity.ts -->
<g id="node31" class="node">
<title>src/main/entities/UniversityEntity.ts</title>
<g id="a_node31"><a xlink:href="src/main/entities/UniversityEntity.ts" xlink:title="UniversityEntity.ts">
<path fill="#ddfeff" stroke="black" d="M1678.46,-518.25C1678.46,-518.25 1603.54,-518.25 1603.54,-518.25 1600.46,-518.25 1597.38,-515.17 1597.38,-512.08 1597.38,-512.08 1597.38,-505.92 1597.38,-505.92 1597.38,-502.83 1600.46,-499.75 1603.54,-499.75 1603.54,-499.75 1678.46,-499.75 1678.46,-499.75 1681.54,-499.75 1684.62,-502.83 1684.62,-505.92 1684.62,-505.92 1684.62,-512.08 1684.62,-512.08 1684.62,-515.17 1681.54,-518.25 1678.46,-518.25"/>
<text text-anchor="start" x="1605.38" y="-505.7" font-family="Helvetica,sans-Serif" font-size="9.00">UniversityEntity.ts</text>
</a>
</g>
</g>
<!-- src/main/services/academy/UniversityService.ts&#45;&gt;src/main/entities/UniversityEntity.ts -->
<g id="edge61" class="edge">
<title>src/main/services/academy/UniversityService.ts&#45;&gt;src/main/entities/UniversityEntity.ts</title>
<path fill="none" stroke="#000000" stroke-width="2" stroke-opacity="0.200000" d="M1211.87,-551.65C1255.04,-551.36 1320.55,-551 1377.5,-551 1377.5,-551 1377.5,-551 1467.75,-551 1517.69,-551 1573.52,-534.13 1607.71,-521.77"/>
<polygon fill="#000000" fill-opacity="0.200000" stroke="#000000" stroke-width="2" stroke-opacity="0.200000" points="1608.18,-523.84 1613.08,-519.79 1606.73,-519.9 1608.18,-523.84"/>
</g>
<!-- src/main/controllers/user/UserController.ts -->
<g id="node28" class="node">
<title>src/main/controllers/user/UserController.ts</title>
<g id="a_node28"><a xlink:href="src/main/controllers/user/UserController.ts" xlink:title="UserController.ts">
<path fill="#ddfeff" stroke="black" d="M1058.71,-376.25C1058.71,-376.25 986.79,-376.25 986.79,-376.25 983.71,-376.25 980.62,-373.17 980.62,-370.08 980.62,-370.08 980.62,-363.92 980.62,-363.92 980.62,-360.83 983.71,-357.75 986.79,-357.75 986.79,-357.75 1058.71,-357.75 1058.71,-357.75 1061.79,-357.75 1064.88,-360.83 1064.88,-363.92 1064.88,-363.92 1064.88,-370.08 1064.88,-370.08 1064.88,-373.17 1061.79,-376.25 1058.71,-376.25"/>
<text text-anchor="start" x="988.62" y="-363.7" font-family="Helvetica,sans-Serif" font-size="9.00">UserController.ts</text>
</a>
</g>
</g>
<!-- src/main/services/user/UserService.ts -->
<g id="node29" class="node">
<title>src/main/services/user/UserService.ts</title>
<g id="a_node29"><a xlink:href="src/main/services/user/UserService.ts" xlink:title="UserService.ts">
<path fill="#ddfeff" stroke="black" d="M1194.96,-376.25C1194.96,-376.25 1132.04,-376.25 1132.04,-376.25 1128.96,-376.25 1125.88,-373.17 1125.88,-370.08 1125.88,-370.08 1125.88,-363.92 1125.88,-363.92 1125.88,-360.83 1128.96,-357.75 1132.04,-357.75 1132.04,-357.75 1194.96,-357.75 1194.96,-357.75 1198.04,-357.75 1201.12,-360.83 1201.12,-363.92 1201.12,-363.92 1201.12,-370.08 1201.12,-370.08 1201.12,-373.17 1198.04,-376.25 1194.96,-376.25"/>
<text text-anchor="start" x="1133.88" y="-363.7" font-family="Helvetica,sans-Serif" font-size="9.00">UserService.ts</text>
</a>
</g>
</g>
<!-- src/main/controllers/user/UserController.ts&#45;&gt;src/main/services/user/UserService.ts -->
<g id="edge23" class="edge">
<title>src/main/controllers/user/UserController.ts&#45;&gt;src/main/services/user/UserService.ts</title>
<path fill="none" stroke="#000000" stroke-width="2" stroke-opacity="0.200000" d="M1065,-367C1081.18,-367 1099.81,-367 1116.43,-367"/>
<polygon fill="#000000" fill-opacity="0.200000" stroke="#000000" stroke-width="2" stroke-opacity="0.200000" points="1116.39,-369.1 1122.39,-367 1116.39,-364.9 1116.39,-369.1"/>
</g>
<!-- src/main/entities/UserEntity.ts -->
<g id="node33" class="node">
<title>src/main/entities/UserEntity.ts</title>
<g id="a_node33"><a xlink:href="src/main/entities/UserEntity.ts" xlink:title="UserEntity.ts">
<path fill="#ddfeff" stroke="black" d="M1405.46,-526.25C1405.46,-526.25 1351.54,-526.25 1351.54,-526.25 1348.46,-526.25 1345.38,-523.17 1345.38,-520.08 1345.38,-520.08 1345.38,-513.92 1345.38,-513.92 1345.38,-510.83 1348.46,-507.75 1351.54,-507.75 1351.54,-507.75 1405.46,-507.75 1405.46,-507.75 1408.54,-507.75 1411.62,-510.83 1411.62,-513.92 1411.62,-513.92 1411.62,-520.08 1411.62,-520.08 1411.62,-523.17 1408.54,-526.25 1405.46,-526.25"/>
<text text-anchor="start" x="1353.38" y="-513.7" font-family="Helvetica,sans-Serif" font-size="9.00">UserEntity.ts</text>
</a>
</g>
</g>
<!-- src/main/services/user/UserService.ts&#45;&gt;src/main/entities/UserEntity.ts -->
<g id="edge62" class="edge">
<title>src/main/services/user/UserService.ts&#45;&gt;src/main/entities/UserEntity.ts</title>
<path fill="none" stroke="#000000" stroke-width="2" stroke-opacity="0.200000" d="M1189.61,-376.74C1203.24,-383.41 1219.02,-393.66 1227.62,-408 1238.29,-425.79 1221.15,-486.14 1235.62,-501 1261.07,-527.13 1304.15,-528.51 1336.17,-524.95"/>
<polygon fill="#000000" fill-opacity="0.200000" stroke="#000000" stroke-width="2" stroke-opacity="0.200000" points="1336.2,-527.07 1341.89,-524.22 1335.67,-522.9 1336.2,-527.07"/>
</g>
<!-- src/main/entities/AreaEntity.ts&#45;&gt;src/main/entities/UniversityEntity.ts -->
<g id="edge24" class="edge">
<title>src/main/entities/AreaEntity.ts&#45;&gt;src/main/entities/UniversityEntity.ts</title>
<path fill="none" stroke="#000000" stroke-width="2" stroke-opacity="0.200000" d="M1579.53,-487.64C1587.3,-490.38 1595.88,-493.41 1604.08,-496.31"/>
<polygon fill="#000000" fill-opacity="0.200000" stroke="#000000" stroke-width="2" stroke-opacity="0.200000" points="1603.22,-498.23 1609.58,-498.25 1604.62,-494.27 1603.22,-498.23"/>
</g>
<!-- src/main/entities/AuthUserEntity.ts&#45;&gt;src/main/entities/UserEntity.ts -->
<g id="edge25" class="edge">
<title>src/main/entities/AuthUserEntity.ts&#45;&gt;src/main/entities/UserEntity.ts</title>
<path fill="none" stroke="#000000" stroke-width="2" stroke-opacity="0.200000" d="M1315.22,-495.64C1323.31,-498.41 1332.25,-501.48 1340.77,-504.4"/>
<polygon fill="#000000" fill-opacity="0.200000" stroke="#000000" stroke-width="2" stroke-opacity="0.200000" points="1339.89,-506.32 1346.24,-506.28 1341.25,-502.35 1339.89,-506.32"/>
</g>
<!-- src/main/entities/CareerEntity.ts -->
<g id="node34" class="node">
<title>src/main/entities/CareerEntity.ts</title>
<g id="a_node34"><a xlink:href="src/main/entities/CareerEntity.ts" xlink:title="CareerEntity.ts">
<path fill="#ddfeff" stroke="black" d="M1498.21,-472.25C1498.21,-472.25 1435.29,-472.25 1435.29,-472.25 1432.21,-472.25 1429.12,-469.17 1429.12,-466.08 1429.12,-466.08 1429.12,-459.92 1429.12,-459.92 1429.12,-456.83 1432.21,-453.75 1435.29,-453.75 1435.29,-453.75 1498.21,-453.75 1498.21,-453.75 1501.29,-453.75 1504.38,-456.83 1504.38,-459.92 1504.38,-459.92 1504.38,-466.08 1504.38,-466.08 1504.38,-469.17 1501.29,-472.25 1498.21,-472.25"/>
<text text-anchor="start" x="1437.12" y="-459.7" font-family="Helvetica,sans-Serif" font-size="9.00">CareerEntity.ts</text>
</a>
</g>
</g>
<!-- src/main/entities/CareerEntity.ts&#45;&gt;src/main/entities/AreaEntity.ts -->
<g id="edge26" class="edge">
<title>src/main/entities/CareerEntity.ts&#45;&gt;src/main/entities/AreaEntity.ts</title>
<path fill="none" stroke="#000000" stroke-width="2" stroke-opacity="0.200000" d="M1504.66,-469.71C1506.16,-469.98 1507.67,-470.26 1509.18,-470.53"/>
<polygon fill="#000000" fill-opacity="0.200000" stroke="#000000" stroke-width="2" stroke-opacity="0.200000" points="1508.53,-472.55 1514.8,-471.56 1509.28,-468.42 1508.53,-472.55"/>
</g>
<!-- src/main/entities/CourseEntity.ts&#45;&gt;src/main/entities/AreaEntity.ts -->
<g id="edge27" class="edge">
<title>src/main/entities/CourseEntity.ts&#45;&gt;src/main/entities/AreaEntity.ts</title>
<path fill="none" stroke="#000000" stroke-width="2" stroke-opacity="0.200000" d="M1505.62,-486.66C1506.76,-486.43 1507.91,-486.21 1509.06,-485.99"/>
<polygon fill="#000000" fill-opacity="0.200000" stroke="#000000" stroke-width="2" stroke-opacity="0.200000" points="1509.33,-488.08 1514.82,-484.87 1508.53,-483.95 1509.33,-488.08"/>
</g>
<!-- src/main/entities/MaterialEntity.ts -->
<g id="node37" class="node">
<title>src/main/entities/MaterialEntity.ts</title>
<g id="a_node37"><a xlink:href="src/main/entities/MaterialEntity.ts" xlink:title="MaterialEntity.ts">
<path fill="#ddfeff" stroke="black" d="M1319.83,-464.25C1319.83,-464.25 1252.42,-464.25 1252.42,-464.25 1249.33,-464.25 1246.25,-461.17 1246.25,-458.08 1246.25,-458.08 1246.25,-451.92 1246.25,-451.92 1246.25,-448.83 1249.33,-445.75 1252.42,-445.75 1252.42,-445.75 1319.83,-445.75 1319.83,-445.75 1322.92,-445.75 1326,-448.83 1326,-451.92 1326,-451.92 1326,-458.08 1326,-458.08 1326,-461.17 1322.92,-464.25 1319.83,-464.25"/>
<text text-anchor="start" x="1254.25" y="-451.7" font-family="Helvetica,sans-Serif" font-size="9.00">MaterialEntity.ts</text>
</a>
</g>
</g>
<!-- src/main/entities/MaterialEntity.ts&#45;&gt;src/main/entities/TopicEntity.ts -->
<g id="edge28" class="edge">
<title>src/main/entities/MaterialEntity.ts&#45;&gt;src/main/entities/TopicEntity.ts</title>
<path fill="none" stroke="#000000" stroke-width="2" stroke-opacity="0.200000" d="M1315.22,-464.64C1323.31,-467.41 1332.25,-470.48 1340.77,-473.4"/>
<polygon fill="#000000" fill-opacity="0.200000" stroke="#000000" stroke-width="2" stroke-opacity="0.200000" points="1339.89,-475.32 1346.24,-475.28 1341.25,-471.35 1339.89,-475.32"/>
</g>
<!-- src/main/entities/TopicEntity.ts&#45;&gt;src/main/entities/CourseEntity.ts -->
<g id="edge33" class="edge">
<title>src/main/entities/TopicEntity.ts&#45;&gt;src/main/entities/CourseEntity.ts</title>
<path fill="none" stroke="#000000" stroke-width="2" stroke-opacity="0.200000" d="M1413.09,-489.12C1415.09,-489.3 1417.12,-489.49 1419.16,-489.68"/>
<polygon fill="#000000" fill-opacity="0.200000" stroke="#000000" stroke-width="2" stroke-opacity="0.200000" points="1418.92,-491.77 1425.09,-490.23 1419.31,-487.58 1418.92,-491.77"/>
</g>
<!-- src/main/entities/OptionEntity.ts -->
<g id="node39" class="node">
<title>src/main/entities/OptionEntity.ts</title>
<g id="a_node39"><a xlink:href="src/main/entities/OptionEntity.ts" xlink:title="OptionEntity.ts">
<path fill="#ddfeff" stroke="black" d="M1409.21,-433.25C1409.21,-433.25 1347.79,-433.25 1347.79,-433.25 1344.71,-433.25 1341.62,-430.17 1341.62,-427.08 1341.62,-427.08 1341.62,-420.92 1341.62,-420.92 1341.62,-417.83 1344.71,-414.75 1347.79,-414.75 1347.79,-414.75 1409.21,-414.75 1409.21,-414.75 1412.29,-414.75 1415.38,-417.83 1415.38,-420.92 1415.38,-420.92 1415.38,-427.08 1415.38,-427.08 1415.38,-430.17 1412.29,-433.25 1409.21,-433.25"/>
<text text-anchor="start" x="1349.62" y="-420.7" font-family="Helvetica,sans-Serif" font-size="9.00">OptionEntity.ts</text>
</a>
</g>
</g>
<!-- src/main/entities/OptionEntity.ts&#45;&gt;src/main/entities/QuestionEntity.ts -->
<g id="edge29" class="edge">
<title>src/main/entities/OptionEntity.ts&#45;&gt;src/main/entities/QuestionEntity.ts</title>
<g id="a_edge29"><a xlink:title="no&#45;circular">
<path fill="none" stroke="orange" stroke-width="2" d="M1341.18,-428.42C1341.05,-428.42 1340.92,-428.43 1340.79,-428.43"/>
<polygon fill="orange" stroke="orange" stroke-width="2" points="1337.36,-426.34 1331.37,-428.47 1337.38,-430.54 1337.36,-426.34"/>
<polyline fill="none" stroke="orange" stroke-width="2" points="1338.37,-428.44 1341.37,-428.43"/>
<ellipse fill="none" stroke="orange" stroke-width="2" cx="1344.77" cy="-428.41" rx="2.4" ry="2.4"/>
</a>
</g>
<text text-anchor="middle" x="1319.06" y="-430.38" font-family="Helvetica,sans-Serif" font-size="9.00" fill="orange">no&#45;circular</text>
</g>
<!-- src/main/entities/QuestionEntity.ts&#45;&gt;src/main/entities/LevelEntity.ts -->
<g id="edge30" class="edge">
<title>src/main/entities/QuestionEntity.ts&#45;&gt;src/main/entities/LevelEntity.ts</title>
<path fill="none" stroke="#000000" stroke-width="2" stroke-opacity="0.200000" d="M1315.22,-433.64C1323.31,-436.41 1332.25,-439.48 1340.77,-442.4"/>
<polygon fill="#000000" fill-opacity="0.200000" stroke="#000000" stroke-width="2" stroke-opacity="0.200000" points="1339.89,-444.32 1346.24,-444.28 1341.25,-440.35 1339.89,-444.32"/>
</g>
<!-- src/main/entities/QuestionEntity.ts&#45;&gt;src/main/entities/TopicEntity.ts -->
<g id="edge32" class="edge">
<title>src/main/entities/QuestionEntity.ts&#45;&gt;src/main/entities/TopicEntity.ts</title>
<path fill="none" stroke="#000000" stroke-width="2" stroke-opacity="0.200000" d="M1319.91,-433.67C1323.08,-435.45 1326.06,-437.54 1328.62,-440 1339.11,-450.06 1331.4,-459.67 1341.62,-470 1342.07,-470.45 1342.54,-470.9 1343.02,-471.33"/>
<polygon fill="#000000" fill-opacity="0.200000" stroke="#000000" stroke-width="2" stroke-opacity="0.200000" points="1341.32,-472.69 1347.41,-474.52 1343.79,-469.29 1341.32,-472.69"/>
</g>
<!-- src/main/entities/QuestionEntity.ts&#45;&gt;src/main/entities/OptionEntity.ts -->
<g id="edge31" class="edge">
<title>src/main/entities/QuestionEntity.ts&#45;&gt;src/main/entities/OptionEntity.ts</title>
<g id="a_edge31"><a xlink:title="no&#45;circular">
<path fill="none" stroke="orange" stroke-width="2" d="M1328.35,-419.52C1328.48,-419.51 1328.61,-419.51 1328.75,-419.51"/>
<polygon fill="orange" stroke="orange" stroke-width="2" points="1332.14,-421.63 1338.16,-419.56 1332.17,-417.43 1332.14,-421.63"/>
<polyline fill="none" stroke="orange" stroke-width="2" points="1331.16,-419.53 1328.16,-419.51"/>
<ellipse fill="none" stroke="orange" stroke-width="2" cx="1324.76" cy="-419.49" rx="2.4" ry="2.4"/>
</a>
</g>
<text text-anchor="middle" x="1350.47" y="-410.96" font-family="Helvetica,sans-Serif" font-size="9.00" fill="orange">no&#45;circular</text>
</g>
<!-- src/main/errors/base/BaseError..ts -->
<g id="node41" class="node">
<title>src/main/errors/base/BaseError..ts</title>
<g id="a_node41"><a xlink:href="src/main/errors/base/BaseError..ts" xlink:title="no&#45;orphans">
<path fill="#ccffcc" stroke="orange" d="M101.58,-143.25C101.58,-143.25 46.17,-143.25 46.17,-143.25 43.08,-143.25 40,-140.17 40,-137.08 40,-137.08 40,-130.92 40,-130.92 40,-127.83 43.08,-124.75 46.17,-124.75 46.17,-124.75 101.58,-124.75 101.58,-124.75 104.67,-124.75 107.75,-127.83 107.75,-130.92 107.75,-130.92 107.75,-137.08 107.75,-137.08 107.75,-140.17 104.67,-143.25 101.58,-143.25"/>
<text text-anchor="start" x="48" y="-130.7" font-family="Helvetica,sans-Serif" font-size="9.00" fill="orange">BaseError..ts</text>
</a>
</g>
</g>
<!-- src/main/errors/base/Error.ts -->
<g id="node42" class="node">
<title>src/main/errors/base/Error.ts</title>
<g id="a_node42"><a xlink:href="src/main/errors/base/Error.ts" xlink:title="no&#45;orphans">
<path fill="#ccffcc" stroke="orange" d="M94.71,-174.25C94.71,-174.25 53.04,-174.25 53.04,-174.25 49.96,-174.25 46.88,-171.17 46.88,-168.08 46.88,-168.08 46.88,-161.92 46.88,-161.92 46.88,-158.83 49.96,-155.75 53.04,-155.75 53.04,-155.75 94.71,-155.75 94.71,-155.75 97.79,-155.75 100.88,-158.83 100.88,-161.92 100.88,-161.92 100.88,-168.08 100.88,-168.08 100.88,-171.17 97.79,-174.25 94.71,-174.25"/>
<text text-anchor="start" x="59.62" y="-161.7" font-family="Helvetica,sans-Serif" font-size="9.00" fill="orange">Error.ts</text>
</a>
</g>
</g>
<!-- src/main/middlewares/AcademySchemaMiddleware.ts&#45;&gt;src/main/auth/middlewares/AuthMiddleware.ts -->
<g id="edge34" class="edge">
<title>src/main/middlewares/AcademySchemaMiddleware.ts&#45;&gt;src/main/auth/middlewares/AuthMiddleware.ts</title>
<path fill="none" stroke="#000000" stroke-width="2" stroke-opacity="0.200000" d="M498.41,-354.34C512.55,-349.58 528.39,-342.9 541.25,-334 571.5,-313.05 597.81,-278.51 611.91,-257.94"/>
<polygon fill="#000000" fill-opacity="0.200000" stroke="#000000" stroke-width="2" stroke-opacity="0.200000" points="613.58,-259.22 615.18,-253.06 610.09,-256.88 613.58,-259.22"/>
</g>
<!-- src/main/middlewares/UserSchemaMiddleware.ts&#45;&gt;src/main/auth/middlewares/AuthMiddleware.ts -->
<g id="edge35" class="edge">
<title>src/main/middlewares/UserSchemaMiddleware.ts&#45;&gt;src/main/auth/middlewares/AuthMiddleware.ts</title>
<path fill="none" stroke="#000000" stroke-width="2" stroke-opacity="0.200000" d="M524.33,-389.82C530.59,-387.23 536.41,-383.72 541.25,-379 552.68,-367.87 542.7,-358.55 549.25,-344 564.36,-310.4 591.24,-276.65 608,-257.35"/>
<polygon fill="#000000" fill-opacity="0.200000" stroke="#000000" stroke-width="2" stroke-opacity="0.200000" points="609.48,-258.84 611.88,-252.96 606.34,-256.06 609.48,-258.84"/>
</g>
<!-- src/main/validations/dto/UpdateUserCoinsDTO.ts -->
<g id="node45" class="node">
<title>src/main/validations/dto/UpdateUserCoinsDTO.ts</title>
<g id="a_node45"><a xlink:href="src/main/validations/dto/UpdateUserCoinsDTO.ts" xlink:title="UpdateUserCoinsDTO.ts">
<path fill="#ddfeff" stroke="black" d="M676.33,-373.25C676.33,-373.25 571.42,-373.25 571.42,-373.25 568.33,-373.25 565.25,-370.17 565.25,-367.08 565.25,-367.08 565.25,-360.92 565.25,-360.92 565.25,-357.83 568.33,-354.75 571.42,-354.75 571.42,-354.75 676.33,-354.75 676.33,-354.75 679.42,-354.75 682.5,-357.83 682.5,-360.92 682.5,-360.92 682.5,-367.08 682.5,-367.08 682.5,-370.17 679.42,-373.25 676.33,-373.25"/>
<text text-anchor="start" x="573.25" y="-360.7" font-family="Helvetica,sans-Serif" font-size="9.00">UpdateUserCoinsDTO.ts</text>
</a>
</g>
</g>
<!-- src/main/middlewares/UserSchemaMiddleware.ts&#45;&gt;src/main/validations/dto/UpdateUserCoinsDTO.ts -->
<g id="edge36" class="edge">
<title>src/main/middlewares/UserSchemaMiddleware.ts&#45;&gt;src/main/validations/dto/UpdateUserCoinsDTO.ts</title>
<path fill="none" stroke="#000000" stroke-width="2" stroke-opacity="0.200000" d="M512.29,-385.28C528.56,-382.15 546.73,-378.65 563.57,-375.41"/>
<polygon fill="#000000" fill-opacity="0.200000" stroke="#000000" stroke-width="2" stroke-opacity="0.200000" points="563.77,-377.51 569.27,-374.31 562.98,-373.39 563.77,-377.51"/>
</g>
<!-- src/main/validations/dto/UpdateUserDTO.ts -->
<g id="node46" class="node">
<title>src/main/validations/dto/UpdateUserDTO.ts</title>
<g id="a_node46"><a xlink:href="src/main/validations/dto/UpdateUserDTO.ts" xlink:title="UpdateUserDTO.ts">
<path fill="#ddfeff" stroke="black" d="M664.33,-404.25C664.33,-404.25 583.42,-404.25 583.42,-404.25 580.33,-404.25 577.25,-401.17 577.25,-398.08 577.25,-398.08 577.25,-391.92 577.25,-391.92 577.25,-388.83 580.33,-385.75 583.42,-385.75 583.42,-385.75 664.33,-385.75 664.33,-385.75 667.42,-385.75 670.5,-388.83 670.5,-391.92 670.5,-391.92 670.5,-398.08 670.5,-398.08 670.5,-401.17 667.42,-404.25 664.33,-404.25"/>
<text text-anchor="start" x="585.25" y="-391.7" font-family="Helvetica,sans-Serif" font-size="9.00">UpdateUserDTO.ts</text>
</a>
</g>
</g>
<!-- src/main/middlewares/UserSchemaMiddleware.ts&#45;&gt;src/main/validations/dto/UpdateUserDTO.ts -->
<g id="edge37" class="edge">
<title>src/main/middlewares/UserSchemaMiddleware.ts&#45;&gt;src/main/validations/dto/UpdateUserDTO.ts</title>
<path fill="none" stroke="#000000" stroke-width="2" stroke-opacity="0.200000" d="M524.05,-395C538.71,-395 554.23,-395 568.52,-395"/>
<polygon fill="#000000" fill-opacity="0.200000" stroke="#000000" stroke-width="2" stroke-opacity="0.200000" points="568.21,-397.1 574.21,-395 568.21,-392.9 568.21,-397.1"/>
</g>
<!-- src/main/routers/academy/LevelRouter.ts&#45;&gt;src/main/controllers/academy/LevelController.ts -->
<g id="edge47" class="edge">
<title>src/main/routers/academy/LevelRouter.ts&#45;&gt;src/main/controllers/academy/LevelController.ts</title>
<path fill="none" stroke="#000000" stroke-width="2" stroke-opacity="0.200000" d="M349.74,-542.39C357.15,-538.89 365.26,-534.64 372.25,-530 376.19,-527.39 375.86,-524.75 380.25,-523 480.48,-482.97 514.95,-513 622.88,-513 622.88,-513 622.88,-513 770.5,-513 839.71,-513 919.21,-504.24 969.92,-497.53"/>
<polygon fill="#000000" fill-opacity="0.200000" stroke="#000000" stroke-width="2" stroke-opacity="0.200000" points="970.07,-499.63 975.73,-496.75 969.51,-495.47 970.07,-499.63"/>
</g>
<!-- src/main/routers/academy/UniversityRouter.ts&#45;&gt;src/main/controllers/academy/UniversityController.ts -->
<g id="edge51" class="edge">
<title>src/main/routers/academy/UniversityRouter.ts&#45;&gt;src/main/controllers/academy/UniversityController.ts</title>
<path fill="none" stroke="#000000" stroke-width="2" stroke-opacity="0.200000" d="M359.95,-573.32C364.23,-571.5 368.44,-569.4 372.25,-567 376.5,-564.32 375.73,-561.2 380.25,-559 477.94,-511.55 514.27,-530 622.88,-530 622.88,-530 622.88,-530 770.5,-530 848.62,-530 868.55,-527.82 946.12,-537 953.85,-537.91 961.97,-539.19 969.9,-540.61"/>
<polygon fill="#000000" fill-opacity="0.200000" stroke="#000000" stroke-width="2" stroke-opacity="0.200000" points="969.48,-542.67 975.77,-541.71 970.26,-538.54 969.48,-542.67"/>
</g>
<!-- src/main/routers/academy/AreaRouter.ts -->
<g id="node50" class="node">
<title>src/main/routers/academy/AreaRouter.ts</title>
<g id="a_node50"><a xlink:href="src/main/routers/academy/AreaRouter.ts" xlink:title="AreaRouter.ts">
<path fill="#ddfeff" stroke="black" d="M490.33,-583.25C490.33,-583.25 431.17,-583.25 431.17,-583.25 428.08,-583.25 425,-580.17 425,-577.08 425,-577.08 425,-570.92 425,-570.92 425,-567.83 428.08,-564.75 431.17,-564.75 431.17,-564.75 490.33,-564.75 490.33,-564.75 493.42,-564.75 496.5,-567.83 496.5,-570.92 496.5,-570.92 496.5,-577.08 496.5,-577.08 496.5,-580.17 493.42,-583.25 490.33,-583.25"/>
<text text-anchor="start" x="433" y="-570.7" font-family="Helvetica,sans-Serif" font-size="9.00">AreaRouter.ts</text>
</a>
</g>
</g>
<!-- src/main/routers/academy/UniversityRouter.ts&#45;&gt;src/main/routers/academy/AreaRouter.ts -->
<g id="edge52" class="edge">
<title>src/main/routers/academy/UniversityRouter.ts&#45;&gt;src/main/routers/academy/AreaRouter.ts</title>
<path fill="none" stroke="#000000" stroke-width="2" stroke-opacity="0.200000" d="M372.69,-579.9C386.71,-578.95 402.11,-577.91 416,-576.97"/>
<polygon fill="#000000" fill-opacity="0.200000" stroke="#000000" stroke-width="2" stroke-opacity="0.200000" points="416.02,-579.07 421.87,-576.57 415.74,-574.88 416.02,-579.07"/>
</g>
<!-- src/main/routers/user/UserRouter.ts&#45;&gt;src/main/controllers/user/UserController.ts -->
<g id="edge53" class="edge">
<title>src/main/routers/user/UserRouter.ts&#45;&gt;src/main/controllers/user/UserController.ts</title>
<path fill="none" stroke="#000000" stroke-width="2" stroke-opacity="0.200000" d="M362.04,-488.27C417.41,-484.19 528.51,-477 622.88,-477 622.88,-477 622.88,-477 770.5,-477 817.94,-477 943.76,-410.35 997.19,-380.81"/>
<polygon fill="#000000" fill-opacity="0.200000" stroke="#000000" stroke-width="2" stroke-opacity="0.200000" points="997.96,-382.79 1002.18,-378.04 995.92,-379.12 997.96,-382.79"/>
</g>
<!-- src/main/routers/user/UserRouter.ts&#45;&gt;src/main/middlewares/UserSchemaMiddleware.ts -->
<g id="edge54" class="edge">
<title>src/main/routers/user/UserRouter.ts&#45;&gt;src/main/middlewares/UserSchemaMiddleware.ts</title>
<path fill="none" stroke="#000000" stroke-width="2" stroke-opacity="0.200000" d="M340.21,-481.44C363.47,-464.62 411.86,-429.63 439.41,-409.71"/>
<polygon fill="#000000" fill-opacity="0.200000" stroke="#000000" stroke-width="2" stroke-opacity="0.200000" points="440.51,-411.51 444.14,-406.29 438.04,-408.11 440.51,-411.51"/>
</g>
<!-- src/main/routers/academy/AreaRouter.ts&#45;&gt;src/main/controllers/academy/AreaController.ts -->
<g id="edge43" class="edge">
<title>src/main/routers/academy/AreaRouter.ts&#45;&gt;src/main/controllers/academy/AreaController.ts</title>
<path fill="none" stroke="#000000" stroke-width="2" stroke-opacity="0.200000" d="M496.69,-567.82C606.51,-548.34 937.95,-488.99 946.12,-481 958.16,-469.24 942.34,-456.01 954.12,-444 959.06,-438.97 965.25,-435.41 971.88,-432.9"/>
<polygon fill="#000000" fill-opacity="0.200000" stroke="#000000" stroke-width="2" stroke-opacity="0.200000" points="972.44,-434.92 977.56,-431.14 971.2,-430.91 972.44,-434.92"/>
</g>
<!-- src/main/routers/academy/CourseRouter.ts -->
<g id="node51" class="node">
<title>src/main/routers/academy/CourseRouter.ts</title>
<g id="a_node51"><a xlink:href="src/main/routers/academy/CourseRouter.ts" xlink:title="CourseRouter.ts">
<path fill="#ddfeff" stroke="black" d="M658.71,-583.25C658.71,-583.25 589.04,-583.25 589.04,-583.25 585.96,-583.25 582.88,-580.17 582.88,-577.08 582.88,-577.08 582.88,-570.92 582.88,-570.92 582.88,-567.83 585.96,-564.75 589.04,-564.75 589.04,-564.75 658.71,-564.75 658.71,-564.75 661.79,-564.75 664.88,-567.83 664.88,-570.92 664.88,-570.92 664.88,-577.08 664.88,-577.08 664.88,-580.17 661.79,-583.25 658.71,-583.25"/>
<text text-anchor="start" x="590.88" y="-570.7" font-family="Helvetica,sans-Serif" font-size="9.00">CourseRouter.ts</text>
</a>
</g>
</g>
<!-- src/main/routers/academy/AreaRouter.ts&#45;&gt;src/main/routers/academy/CourseRouter.ts -->
<g id="edge44" class="edge">
<title>src/main/routers/academy/AreaRouter.ts&#45;&gt;src/main/routers/academy/CourseRouter.ts</title>
<path fill="none" stroke="#000000" stroke-width="2" stroke-opacity="0.200000" d="M496.71,-574C519.22,-574 548.8,-574 573.66,-574"/>
<polygon fill="#000000" fill-opacity="0.200000" stroke="#000000" stroke-width="2" stroke-opacity="0.200000" points="573.56,-576.1 579.56,-574 573.56,-571.9 573.56,-576.1"/>
</g>
<!-- src/main/routers/academy/CourseRouter.ts&#45;&gt;src/main/controllers/academy/CourseController.ts -->
<g id="edge45" class="edge">
<title>src/main/routers/academy/CourseRouter.ts&#45;&gt;src/main/controllers/academy/CourseController.ts</title>
<path fill="none" stroke="#000000" stroke-width="2" stroke-opacity="0.200000" d="M665.1,-578.09C678.28,-579.26 693,-580.38 706.5,-581 797.3,-585.18 902.97,-584.77 966,-583.98"/>
<polygon fill="#000000" fill-opacity="0.200000" stroke="#000000" stroke-width="2" stroke-opacity="0.200000" points="965.99,-586.08 971.96,-583.9 965.93,-581.88 965.99,-586.08"/>
</g>
<!-- src/main/routers/academy/TopicRouter.ts -->
<g id="node52" class="node">
<title>src/main/routers/academy/TopicRouter.ts</title>
<g id="a_node52"><a xlink:href="src/main/routers/academy/TopicRouter.ts" xlink:title="TopicRouter.ts">
<path fill="#ddfeff" stroke="black" d="M800.21,-575.25C800.21,-575.25 738.79,-575.25 738.79,-575.25 735.71,-575.25 732.62,-572.17 732.62,-569.08 732.62,-569.08 732.62,-562.92 732.62,-562.92 732.62,-559.83 735.71,-556.75 738.79,-556.75 738.79,-556.75 800.21,-556.75 800.21,-556.75 803.29,-556.75 806.38,-559.83 806.38,-562.92 806.38,-562.92 806.38,-569.08 806.38,-569.08 806.38,-572.17 803.29,-575.25 800.21,-575.25"/>
<text text-anchor="start" x="740.62" y="-562.7" font-family="Helvetica,sans-Serif" font-size="9.00">TopicRouter.ts</text>
</a>
</g>
</g>
<!-- src/main/routers/academy/CourseRouter.ts&#45;&gt;src/main/routers/academy/TopicRouter.ts -->
<g id="edge46" class="edge">
<title>src/main/routers/academy/CourseRouter.ts&#45;&gt;src/main/routers/academy/TopicRouter.ts</title>
<path fill="none" stroke="#000000" stroke-width="2" stroke-opacity="0.200000" d="M665.26,-571.75C683.38,-570.74 704.81,-569.55 723.44,-568.51"/>
<polygon fill="#000000" fill-opacity="0.200000" stroke="#000000" stroke-width="2" stroke-opacity="0.200000" points="723.43,-570.61 729.31,-568.18 723.2,-566.42 723.43,-570.61"/>
</g>
<!-- src/main/routers/academy/TopicRouter.ts&#45;&gt;src/main/controllers/academy/TopicController.ts -->
<g id="edge49" class="edge">
<title>src/main/routers/academy/TopicRouter.ts&#45;&gt;src/main/controllers/academy/TopicController.ts</title>
<path fill="none" stroke="#000000" stroke-width="2" stroke-opacity="0.200000" d="M806.54,-571.22C851.51,-576.89 925.09,-583.16 946.12,-567 957.07,-558.59 944.23,-546.62 954.12,-537 958.82,-532.43 964.57,-529.08 970.71,-526.64"/>
<polygon fill="#000000" fill-opacity="0.200000" stroke="#000000" stroke-width="2" stroke-opacity="0.200000" points="971.34,-528.64 976.39,-524.78 970.04,-524.65 971.34,-528.64"/>
</g>
<!-- src/main/routers/academy/QuestionRouter.ts -->
<g id="node53" class="node">
<title>src/main/routers/academy/QuestionRouter.ts</title>
<g id="a_node53"><a xlink:href="src/main/routers/academy/QuestionRouter.ts" xlink:title="QuestionRouter.ts">
<path fill="#ddfeff" stroke="black" d="M923.96,-561.25C923.96,-561.25 847.54,-561.25 847.54,-561.25 844.46,-561.25 841.38,-558.17 841.38,-555.08 841.38,-555.08 841.38,-548.92 841.38,-548.92 841.38,-545.83 844.46,-542.75 847.54,-542.75 847.54,-542.75 923.96,-542.75 923.96,-542.75 927.04,-542.75 930.12,-545.83 930.12,-548.92 930.12,-548.92 930.12,-555.08 930.12,-555.08 930.12,-558.17 927.04,-561.25 923.96,-561.25"/>
<text text-anchor="start" x="849.38" y="-548.7" font-family="Helvetica,sans-Serif" font-size="9.00">QuestionRouter.ts</text>
</a>
</g>
</g>
<!-- src/main/routers/academy/TopicRouter.ts&#45;&gt;src/main/routers/academy/QuestionRouter.ts -->
<g id="edge50" class="edge">
<title>src/main/routers/academy/TopicRouter.ts&#45;&gt;src/main/routers/academy/QuestionRouter.ts</title>
<path fill="none" stroke="#000000" stroke-width="2" stroke-opacity="0.200000" d="M806.65,-561.57C814.8,-560.57 823.61,-559.49 832.28,-558.43"/>
<polygon fill="#000000" fill-opacity="0.200000" stroke="#000000" stroke-width="2" stroke-opacity="0.200000" points="832.53,-560.52 838.23,-557.7 832.02,-556.35 832.53,-560.52"/>
</g>
<!-- src/main/routers/academy/QuestionRouter.ts&#45;&gt;src/main/controllers/academy/QuestionController.ts -->
<g id="edge48" class="edge">
<title>src/main/routers/academy/QuestionRouter.ts&#45;&gt;src/main/controllers/academy/QuestionController.ts</title>
<path fill="none" stroke="#000000" stroke-width="2" stroke-opacity="0.200000" d="M901.74,-542.4C915.17,-533.08 934.47,-517.76 946.12,-500 952.52,-490.25 945.56,-482.92 954.12,-475 957.04,-472.3 960.33,-470.03 963.84,-468.12"/>
<polygon fill="#000000" fill-opacity="0.200000" stroke="#000000" stroke-width="2" stroke-opacity="0.200000" points="964.48,-470.14 969.08,-465.75 962.75,-466.31 964.48,-470.14"/>
</g>
</g>
</svg>
