<?xml version="1.0" encoding="UTF-8" standalone="no"?>
<!DOCTYPE svg PUBLIC "-//W3C//DTD SVG 1.1//EN"
 "http://www.w3.org/Graphics/SVG/1.1/DTD/svg11.dtd">
<!-- Generated by graphviz version 12.2.0 (20241103.1931)
 -->
<!-- Title: dependency&#45;cruiser output Pages: 1 -->
<svg width="1983pt" height="932pt"
 viewBox="0.00 0.00 1982.75 932.00" xmlns="http://www.w3.org/2000/svg" xmlns:xlink="http://www.w3.org/1999/xlink">
<g id="graph0" class="graph" transform="scale(1 1) rotate(0) translate(4 928)">
<title>dependency&#45;cruiser output</title>
<polygon fill="white" stroke="none" points="-4,4 -4,-928 1978.75,-928 1978.75,4 -4,4"/>
<g id="clust1" class="cluster">
<title>cluster_src</title>
<path fill="#ffffff" stroke="black" stroke-width="2" d="M20,-8C20,-8 1954.75,-8 1954.75,-8 1960.75,-8 1966.75,-14 1966.75,-20 1966.75,-20 1966.75,-904 1966.75,-904 1966.75,-910 1960.75,-916 1954.75,-916 1954.75,-916 20,-916 20,-916 14,-916 8,-910 8,-904 8,-904 8,-20 8,-20 8,-14 14,-8 20,-8"/>
<text text-anchor="middle" x="987.38" y="-903.45" font-family="Helvetica,sans-Serif" font-weight="bold" font-size="9.00">src</text>
</g>
<g id="clust2" class="cluster">
<title>cluster_src/main</title>
<path fill="#ffffff" stroke="black" stroke-width="2" d="M28,-16C28,-16 1946.75,-16 1946.75,-16 1952.75,-16 1958.75,-22 1958.75,-28 1958.75,-28 1958.75,-877 1958.75,-877 1958.75,-883 1952.75,-889 1946.75,-889 1946.75,-889 28,-889 28,-889 22,-889 16,-883 16,-877 16,-877 16,-28 16,-28 16,-22 22,-16 28,-16"/>
<text text-anchor="middle" x="987.38" y="-876.45" font-family="Helvetica,sans-Serif" font-weight="bold" font-size="9.00">main</text>
</g>
<g id="clust3" class="cluster">
<title>cluster_src/main/auth</title>
<path fill="#ffffff" stroke="black" stroke-width="2" d="M624.12,-318C624.12,-318 1130.5,-318 1130.5,-318 1136.5,-318 1142.5,-324 1142.5,-330 1142.5,-330 1142.5,-613 1142.5,-613 1142.5,-619 1136.5,-625 1130.5,-625 1130.5,-625 624.12,-625 624.12,-625 618.12,-625 612.12,-619 612.12,-613 612.12,-613 612.12,-330 612.12,-330 612.12,-324 618.12,-318 624.12,-318"/>
<text text-anchor="middle" x="877.31" y="-612.45" font-family="Helvetica,sans-Serif" font-weight="bold" font-size="9.00">auth</text>
</g>
<g id="clust4" class="cluster">
<title>cluster_src/main/auth/controllers</title>
<path fill="#ffffff" stroke="black" stroke-width="2" d="M905.5,-326C905.5,-326 981,-326 981,-326 987,-326 993,-332 993,-338 993,-338 993,-367 993,-367 993,-373 987,-379 981,-379 981,-379 905.5,-379 905.5,-379 899.5,-379 893.5,-373 893.5,-367 893.5,-367 893.5,-338 893.5,-338 893.5,-332 899.5,-326 905.5,-326"/>
<text text-anchor="middle" x="943.25" y="-366.45" font-family="Helvetica,sans-Serif" font-weight="bold" font-size="9.00">controllers</text>
</g>
<g id="clust5" class="cluster">
<title>cluster_src/main/auth/middlewares</title>
<path fill="#ffffff" stroke="black" stroke-width="2" d="M766,-370C766,-370 860.25,-370 860.25,-370 866.25,-370 872.25,-376 872.25,-382 872.25,-382 872.25,-442 872.25,-442 872.25,-448 866.25,-454 860.25,-454 860.25,-454 766,-454 766,-454 760,-454 754,-448 754,-442 754,-442 754,-382 754,-382 754,-376 760,-370 766,-370"/>
<text text-anchor="middle" x="813.12" y="-441.45" font-family="Helvetica,sans-Serif" font-weight="bold" font-size="9.00">middlewares</text>
</g>
<g id="clust6" class="cluster">
<title>cluster_src/main/auth/router</title>
<path fill="#ffffff" stroke="black" stroke-width="2" d="M632.12,-326C632.12,-326 694.88,-326 694.88,-326 700.88,-326 706.88,-332 706.88,-338 706.88,-338 706.88,-367 706.88,-367 706.88,-373 700.88,-379 694.88,-379 694.88,-379 632.12,-379 632.12,-379 626.12,-379 620.12,-373 620.12,-367 620.12,-367 620.12,-338 620.12,-338 620.12,-332 626.12,-326 632.12,-326"/>
<text text-anchor="middle" x="663.5" y="-366.45" font-family="Helvetica,sans-Serif" font-weight="bold" font-size="9.00">router</text>
</g>
<g id="clust7" class="cluster">
<title>cluster_src/main/auth/services</title>
<path fill="#ffffff" stroke="black" stroke-width="2" d="M1056,-514C1056,-514 1122.5,-514 1122.5,-514 1128.5,-514 1134.5,-520 1134.5,-526 1134.5,-526 1134.5,-555 1134.5,-555 1134.5,-561 1128.5,-567 1122.5,-567 1122.5,-567 1056,-567 1056,-567 1050,-567 1044,-561 1044,-555 1044,-555 1044,-526 1044,-526 1044,-520 1050,-514 1056,-514"/>
<text text-anchor="middle" x="1089.25" y="-554.45" font-family="Helvetica,sans-Serif" font-weight="bold" font-size="9.00">services</text>
</g>
<g id="clust8" class="cluster">
<title>cluster_src/main/auth/strategies</title>
<path fill="#ffffff" stroke="black" stroke-width="2" d="M907,-514C907,-514 979.5,-514 979.5,-514 985.5,-514 991.5,-520 991.5,-526 991.5,-526 991.5,-586 991.5,-586 991.5,-592 985.5,-598 979.5,-598 979.5,-598 907,-598 907,-598 901,-598 895,-592 895,-586 895,-586 895,-526 895,-526 895,-520 901,-514 907,-514"/>
<text text-anchor="middle" x="943.25" y="-585.45" font-family="Helvetica,sans-Serif" font-weight="bold" font-size="9.00">strategies</text>
</g>
<g id="clust9" class="cluster">
<title>cluster_src/main/auth/validations</title>
<path fill="#ffffff" stroke="black" stroke-width="2" d="M892.25,-387C892.25,-387 994.25,-387 994.25,-387 1000.25,-387 1006.25,-393 1006.25,-399 1006.25,-399 1006.25,-494 1006.25,-494 1006.25,-500 1000.25,-506 994.25,-506 994.25,-506 892.25,-506 892.25,-506 886.25,-506 880.25,-500 880.25,-494 880.25,-494 880.25,-399 880.25,-399 880.25,-393 886.25,-387 892.25,-387"/>
<text text-anchor="middle" x="943.25" y="-493.45" font-family="Helvetica,sans-Serif" font-weight="bold" font-size="9.00">validations</text>
</g>
<g id="clust10" class="cluster">
<title>cluster_src/main/auth/validations/dto</title>
<path fill="#ffffff" stroke="black" stroke-width="2" d="M900.25,-395C900.25,-395 986.25,-395 986.25,-395 992.25,-395 998.25,-401 998.25,-407 998.25,-407 998.25,-467 998.25,-467 998.25,-473 992.25,-479 986.25,-479 986.25,-479 900.25,-479 900.25,-479 894.25,-479 888.25,-473 888.25,-467 888.25,-467 888.25,-407 888.25,-407 888.25,-401 894.25,-395 900.25,-395"/>
<text text-anchor="middle" x="943.25" y="-466.45" font-family="Helvetica,sans-Serif" font-weight="bold" font-size="9.00">dto</text>
</g>
<g id="clust11" class="cluster">
<title>cluster_src/main/controllers</title>
<path fill="#ffffff" stroke="black" stroke-width="2" d="M1026.25,-99C1026.25,-99 1152.25,-99 1152.25,-99 1158.25,-99 1164.25,-105 1164.25,-111 1164.25,-111 1164.25,-298 1164.25,-298 1164.25,-304 1158.25,-310 1152.25,-310 1152.25,-310 1026.25,-310 1026.25,-310 1020.25,-310 1014.25,-304 1014.25,-298 1014.25,-298 1014.25,-111 1014.25,-111 1014.25,-105 1020.25,-99 1026.25,-99"/>
<text text-anchor="middle" x="1089.25" y="-297.45" font-family="Helvetica,sans-Serif" font-weight="bold" font-size="9.00">controllers</text>
</g>
<g id="clust12" class="cluster">
<title>cluster_src/main/controllers/academy</title>
<path fill="#ffffff" stroke="black" stroke-width="2" d="M1040.62,-107C1040.62,-107 1137.88,-107 1137.88,-107 1143.88,-107 1149.88,-113 1149.88,-119 1149.88,-119 1149.88,-210 1149.88,-210 1149.88,-216 1143.88,-222 1137.88,-222 1137.88,-222 1040.62,-222 1040.62,-222 1034.62,-222 1028.62,-216 1028.62,-210 1028.62,-210 1028.62,-119 1028.62,-119 1028.62,-113 1034.62,-107 1040.62,-107"/>
<text text-anchor="middle" x="1089.25" y="-209.45" font-family="Helvetica,sans-Serif" font-weight="bold" font-size="9.00">academy</text>
</g>
<g id="clust13" class="cluster">
<title>cluster_src/main/controllers/user</title>
<path fill="#ffffff" stroke="black" stroke-width="2" d="M1034.25,-230C1034.25,-230 1144.25,-230 1144.25,-230 1150.25,-230 1156.25,-236 1156.25,-242 1156.25,-242 1156.25,-271 1156.25,-271 1156.25,-277 1150.25,-283 1144.25,-283 1144.25,-283 1034.25,-283 1034.25,-283 1028.25,-283 1022.25,-277 1022.25,-271 1022.25,-271 1022.25,-242 1022.25,-242 1022.25,-236 1028.25,-230 1034.25,-230"/>
<text text-anchor="middle" x="1089.25" y="-270.45" font-family="Helvetica,sans-Serif" font-weight="bold" font-size="9.00">user</text>
</g>
<g id="clust14" class="cluster">
<title>cluster_src/main/database</title>
<path fill="#ffffff" stroke="black" stroke-width="2" d="M1421.25,-220C1421.25,-220 1503.5,-220 1503.5,-220 1509.5,-220 1515.5,-226 1515.5,-232 1515.5,-232 1515.5,-261 1515.5,-261 1515.5,-267 1509.5,-273 1503.5,-273 1503.5,-273 1421.25,-273 1421.25,-273 1415.25,-273 1409.25,-267 1409.25,-261 1409.25,-261 1409.25,-232 1409.25,-232 1409.25,-226 1415.25,-220 1421.25,-220"/>
<text text-anchor="middle" x="1462.38" y="-260.45" font-family="Helvetica,sans-Serif" font-weight="bold" font-size="9.00">database</text>
</g>
<g id="clust15" class="cluster">
<title>cluster_src/main/entities</title>
<path fill="#ffffff" stroke="black" stroke-width="2" d="M1051.5,-633C1051.5,-633 1938.75,-633 1938.75,-633 1944.75,-633 1950.75,-639 1950.75,-645 1950.75,-645 1950.75,-850 1950.75,-850 1950.75,-856 1944.75,-862 1938.75,-862 1938.75,-862 1051.5,-862 1051.5,-862 1045.5,-862 1039.5,-856 1039.5,-850 1039.5,-850 1039.5,-645 1039.5,-645 1039.5,-639 1045.5,-633 1051.5,-633"/>
<text text-anchor="middle" x="1495.12" y="-849.45" font-family="Helvetica,sans-Serif" font-weight="bold" font-size="9.00">entities</text>
</g>
<g id="clust16" class="cluster">
<title>cluster_src/main/entities/base</title>
<path fill="#ffffff" stroke="black" stroke-width="2" d="M1630.75,-711C1630.75,-711 1930.75,-711 1930.75,-711 1936.75,-711 1942.75,-717 1942.75,-723 1942.75,-723 1942.75,-783 1942.75,-783 1942.75,-789 1936.75,-795 1930.75,-795 1930.75,-795 1630.75,-795 1630.75,-795 1624.75,-795 1618.75,-789 1618.75,-783 1618.75,-783 1618.75,-723 1618.75,-723 1618.75,-717 1624.75,-711 1630.75,-711"/>
<text text-anchor="middle" x="1780.75" y="-782.45" font-family="Helvetica,sans-Serif" font-weight="bold" font-size="9.00">base</text>
</g>
<g id="clust17" class="cluster">
<title>cluster_src/main/errors</title>
<path fill="#ffffff" stroke="black" stroke-width="2" d="M36,-116C36,-116 111.75,-116 111.75,-116 117.75,-116 123.75,-122 123.75,-128 123.75,-128 123.75,-223 123.75,-223 123.75,-229 117.75,-235 111.75,-235 111.75,-235 36,-235 36,-235 30,-235 24,-229 24,-223 24,-223 24,-128 24,-128 24,-122 30,-116 36,-116"/>
<text text-anchor="middle" x="73.88" y="-222.45" font-family="Helvetica,sans-Serif" font-weight="bold" font-size="9.00">errors</text>
</g>
<g id="clust18" class="cluster">
<title>cluster_src/main/errors/base</title>
<path fill="#ffffff" stroke="black" stroke-width="2" d="M44,-124C44,-124 103.75,-124 103.75,-124 109.75,-124 115.75,-130 115.75,-136 115.75,-136 115.75,-196 115.75,-196 115.75,-202 109.75,-208 103.75,-208 103.75,-208 44,-208 44,-208 38,-208 32,-202 32,-196 32,-196 32,-136 32,-136 32,-130 38,-124 44,-124"/>
<text text-anchor="middle" x="73.88" y="-195.45" font-family="Helvetica,sans-Serif" font-weight="bold" font-size="9.00">base</text>
</g>
<g id="clust19" class="cluster">
<title>cluster_src/main/middlewares</title>
<path fill="#ffffff" stroke="black" stroke-width="2" d="M595,-226C595,-226 732,-226 732,-226 738,-226 744,-232 744,-238 744,-238 744,-298 744,-298 744,-304 738,-310 732,-310 732,-310 595,-310 595,-310 589,-310 583,-304 583,-298 583,-298 583,-238 583,-238 583,-232 589,-226 595,-226"/>
<text text-anchor="middle" x="663.5" y="-297.45" font-family="Helvetica,sans-Serif" font-weight="bold" font-size="9.00">middlewares</text>
</g>
<g id="clust20" class="cluster">
<title>cluster_src/main/routers</title>
<path fill="#ffffff" stroke="black" stroke-width="2" d="M143.75,-68C143.75,-68 734,-68 734,-68 740,-68 746,-74 746,-80 746,-80 746,-206 746,-206 746,-212 740,-218 734,-218 734,-218 143.75,-218 143.75,-218 137.75,-218 131.75,-212 131.75,-206 131.75,-206 131.75,-80 131.75,-80 131.75,-74 137.75,-68 143.75,-68"/>
<text text-anchor="middle" x="438.88" y="-205.45" font-family="Helvetica,sans-Serif" font-weight="bold" font-size="9.00">routers</text>
</g>
<g id="clust21" class="cluster">
<title>cluster_src/main/routers/academy</title>
<path fill="#ffffff" stroke="black" stroke-width="2" d="M283.75,-76C283.75,-76 559.38,-76 559.38,-76 565.38,-76 571.38,-82 571.38,-88 571.38,-88 571.38,-117 571.38,-117 571.38,-123 565.38,-129 559.38,-129 559.38,-129 283.75,-129 283.75,-129 277.75,-129 271.75,-123 271.75,-117 271.75,-117 271.75,-88 271.75,-88 271.75,-82 277.75,-76 283.75,-76"/>
<text text-anchor="middle" x="421.56" y="-116.45" font-family="Helvetica,sans-Serif" font-weight="bold" font-size="9.00">academy</text>
</g>
<g id="clust22" class="cluster">
<title>cluster_src/main/routers/base</title>
<path fill="#ffffff" stroke="black" stroke-width="2" d="M601,-76C601,-76 726,-76 726,-76 732,-76 738,-82 738,-88 738,-88 738,-179 738,-179 738,-185 732,-191 726,-191 726,-191 601,-191 601,-191 595,-191 589,-185 589,-179 589,-179 589,-88 589,-88 589,-82 595,-76 601,-76"/>
<text text-anchor="middle" x="663.5" y="-178.45" font-family="Helvetica,sans-Serif" font-weight="bold" font-size="9.00">base</text>
</g>
<g id="clust23" class="cluster">
<title>cluster_src/main/services</title>
<path fill="#ffffff" stroke="black" stroke-width="2" d="M1184.25,-360C1184.25,-360 1389.25,-360 1389.25,-360 1395.25,-360 1401.25,-366 1401.25,-372 1401.25,-372 1401.25,-555 1401.25,-555 1401.25,-561 1395.25,-567 1389.25,-567 1389.25,-567 1184.25,-567 1184.25,-567 1178.25,-567 1172.25,-561 1172.25,-555 1172.25,-555 1172.25,-372 1172.25,-372 1172.25,-366 1178.25,-360 1184.25,-360"/>
<text text-anchor="middle" x="1286.75" y="-554.45" font-family="Helvetica,sans-Serif" font-weight="bold" font-size="9.00">services</text>
</g>
<g id="clust24" class="cluster">
<title>cluster_src/main/services/academy</title>
<path fill="#ffffff" stroke="black" stroke-width="2" d="M1192.25,-368C1192.25,-368 1280.5,-368 1280.5,-368 1286.5,-368 1292.5,-374 1292.5,-380 1292.5,-380 1292.5,-471 1292.5,-471 1292.5,-477 1286.5,-483 1280.5,-483 1280.5,-483 1192.25,-483 1192.25,-483 1186.25,-483 1180.25,-477 1180.25,-471 1180.25,-471 1180.25,-380 1180.25,-380 1180.25,-374 1186.25,-368 1192.25,-368"/>
<text text-anchor="middle" x="1236.38" y="-470.45" font-family="Helvetica,sans-Serif" font-weight="bold" font-size="9.00">academy</text>
</g>
<g id="clust25" class="cluster">
<title>cluster_src/main/services/base</title>
<path fill="#ffffff" stroke="black" stroke-width="2" d="M1312.5,-415C1312.5,-415 1381.25,-415 1381.25,-415 1387.25,-415 1393.25,-421 1393.25,-427 1393.25,-427 1393.25,-456 1393.25,-456 1393.25,-462 1387.25,-468 1381.25,-468 1381.25,-468 1312.5,-468 1312.5,-468 1306.5,-468 1300.5,-462 1300.5,-456 1300.5,-456 1300.5,-427 1300.5,-427 1300.5,-421 1306.5,-415 1312.5,-415"/>
<text text-anchor="middle" x="1346.88" y="-455.45" font-family="Helvetica,sans-Serif" font-weight="bold" font-size="9.00">base</text>
</g>
<!-- src/main/App.ts -->
<g id="node1" class="node">
<title>src/main/App.ts</title>
<g id="a_node1"><a xlink:href="src/main/App.ts" xlink:title="App.ts">
<path fill="#ddfeff" stroke="black" d="M94.71,-352.25C94.71,-352.25 53.04,-352.25 53.04,-352.25 49.96,-352.25 46.88,-349.17 46.88,-346.08 46.88,-346.08 46.88,-339.92 46.88,-339.92 46.88,-336.83 49.96,-333.75 53.04,-333.75 53.04,-333.75 94.71,-333.75 94.71,-333.75 97.79,-333.75 100.88,-336.83 100.88,-339.92 100.88,-339.92 100.88,-346.08 100.88,-346.08 100.88,-349.17 97.79,-352.25 94.71,-352.25"/>
<text text-anchor="start" x="61.12" y="-339.7" font-family="Helvetica,sans-Serif" font-size="9.00">App.ts</text>
</a>
</g>
</g>
<!-- src/main/auth/middlewares/ApiKeyMiddleware.ts -->
<g id="node2" class="node">
<title>src/main/auth/middlewares/ApiKeyMiddleware.ts</title>
<g id="a_node2"><a xlink:href="src/main/auth/middlewares/ApiKeyMiddleware.ts" xlink:title="ApiKeyMiddleware.ts">
<path fill="#ddfeff" stroke="black" d="M858.08,-427.25C858.08,-427.25 768.17,-427.25 768.17,-427.25 765.08,-427.25 762,-424.17 762,-421.08 762,-421.08 762,-414.92 762,-414.92 762,-411.83 765.08,-408.75 768.17,-408.75 768.17,-408.75 858.08,-408.75 858.08,-408.75 861.17,-408.75 864.25,-411.83 864.25,-414.92 864.25,-414.92 864.25,-421.08 864.25,-421.08 864.25,-424.17 861.17,-427.25 858.08,-427.25"/>
<text text-anchor="start" x="770" y="-414.7" font-family="Helvetica,sans-Serif" font-size="9.00">ApiKeyMiddleware.ts</text>
</a>
</g>
</g>
<!-- src/main/App.ts&#45;&gt;src/main/auth/middlewares/ApiKeyMiddleware.ts -->
<g id="edge1" class="edge">
<title>src/main/App.ts&#45;&gt;src/main/auth/middlewares/ApiKeyMiddleware.ts</title>
<path fill="none" stroke="#000000" stroke-width="2" stroke-opacity="0.200000" d="M93.44,-352.65C134.19,-372.91 235.01,-418 325,-418 325,-418 325,-418 523.38,-418 602.77,-418 694.44,-418 752.81,-418"/>
<polygon fill="#000000" fill-opacity="0.200000" stroke="#000000" stroke-width="2" stroke-opacity="0.200000" points="752.5,-420.1 758.5,-418 752.5,-415.9 752.5,-420.1"/>
</g>
<!-- src/main/auth/router/AuthRouter.ts -->
<g id="node3" class="node">
<title>src/main/auth/router/AuthRouter.ts</title>
<g id="a_node3"><a xlink:href="src/main/auth/router/AuthRouter.ts" xlink:title="AuthRouter.ts">
<path fill="#ddfeff" stroke="black" d="M692.71,-352.25C692.71,-352.25 634.29,-352.25 634.29,-352.25 631.21,-352.25 628.12,-349.17 628.12,-346.08 628.12,-346.08 628.12,-339.92 628.12,-339.92 628.12,-336.83 631.21,-333.75 634.29,-333.75 634.29,-333.75 692.71,-333.75 692.71,-333.75 695.79,-333.75 698.88,-336.83 698.88,-339.92 698.88,-339.92 698.88,-346.08 698.88,-346.08 698.88,-349.17 695.79,-352.25 692.71,-352.25"/>
<text text-anchor="start" x="636.12" y="-339.7" font-family="Helvetica,sans-Serif" font-size="9.00">AuthRouter.ts</text>
</a>
</g>
</g>
<!-- src/main/App.ts&#45;&gt;src/main/auth/router/AuthRouter.ts -->
<g id="edge2" class="edge">
<title>src/main/App.ts&#45;&gt;src/main/auth/router/AuthRouter.ts</title>
<path fill="none" stroke="#000000" stroke-width="2" stroke-opacity="0.200000" d="M101.16,-343C146.74,-343 243.36,-343 325,-343 325,-343 325,-343 422,-343 490.84,-343 570.77,-343 618.94,-343"/>
<polygon fill="#000000" fill-opacity="0.200000" stroke="#000000" stroke-width="2" stroke-opacity="0.200000" points="618.82,-345.1 624.82,-343 618.82,-340.9 618.82,-345.1"/>
</g>
<!-- src/main/auth/strategies/JwtStrategy.ts -->
<g id="node4" class="node">
<title>src/main/auth/strategies/JwtStrategy.ts</title>
<g id="a_node4"><a xlink:href="src/main/auth/strategies/JwtStrategy.ts" xlink:title="JwtStrategy.ts">
<path fill="#ddfeff" stroke="black" d="M972.83,-540.25C972.83,-540.25 913.67,-540.25 913.67,-540.25 910.58,-540.25 907.5,-537.17 907.5,-534.08 907.5,-534.08 907.5,-527.92 907.5,-527.92 907.5,-524.83 910.58,-521.75 913.67,-521.75 913.67,-521.75 972.83,-521.75 972.83,-521.75 975.92,-521.75 979,-524.83 979,-527.92 979,-527.92 979,-534.08 979,-534.08 979,-537.17 975.92,-540.25 972.83,-540.25"/>
<text text-anchor="start" x="915.5" y="-527.7" font-family="Helvetica,sans-Serif" font-size="9.00">JwtStrategy.ts</text>
</a>
</g>
</g>
<!-- src/main/App.ts&#45;&gt;src/main/auth/strategies/JwtStrategy.ts -->
<g id="edge3" class="edge">
<title>src/main/App.ts&#45;&gt;src/main/auth/strategies/JwtStrategy.ts</title>
<path fill="none" stroke="#000000" stroke-width="2" stroke-opacity="0.200000" d="M83.82,-352.69C114.25,-384.55 217.82,-484 325,-484 325,-484 325,-484 664.5,-484 748.35,-484 844.47,-505.08 898.82,-519.01"/>
<polygon fill="#000000" fill-opacity="0.200000" stroke="#000000" stroke-width="2" stroke-opacity="0.200000" points="898.23,-521.02 904.56,-520.5 899.28,-516.96 898.23,-521.02"/>
</g>
<!-- src/main/auth/strategies/LocalStrategy.ts -->
<g id="node5" class="node">
<title>src/main/auth/strategies/LocalStrategy.ts</title>
<g id="a_node5"><a xlink:href="src/main/auth/strategies/LocalStrategy.ts" xlink:title="LocalStrategy.ts">
<path fill="#ddfeff" stroke="black" d="M977.33,-571.25C977.33,-571.25 909.17,-571.25 909.17,-571.25 906.08,-571.25 903,-568.17 903,-565.08 903,-565.08 903,-558.92 903,-558.92 903,-555.83 906.08,-552.75 909.17,-552.75 909.17,-552.75 977.33,-552.75 977.33,-552.75 980.42,-552.75 983.5,-555.83 983.5,-558.92 983.5,-558.92 983.5,-565.08 983.5,-565.08 983.5,-568.17 980.42,-571.25 977.33,-571.25"/>
<text text-anchor="start" x="911" y="-558.7" font-family="Helvetica,sans-Serif" font-size="9.00">LocalStrategy.ts</text>
</a>
</g>
</g>
<!-- src/main/App.ts&#45;&gt;src/main/auth/strategies/LocalStrategy.ts -->
<g id="edge4" class="edge">
<title>src/main/App.ts&#45;&gt;src/main/auth/strategies/LocalStrategy.ts</title>
<path fill="none" stroke="#000000" stroke-width="2" stroke-opacity="0.200000" d="M78.43,-352.73C85.78,-371.67 104.27,-413.94 131.75,-440 201.91,-506.55 228.29,-540 325,-540 325,-540 325,-540 664.5,-540 745.14,-540 838.55,-549.33 893.89,-555.84"/>
<polygon fill="#000000" fill-opacity="0.200000" stroke="#000000" stroke-width="2" stroke-opacity="0.200000" points="893.56,-557.91 899.77,-556.54 894.06,-553.74 893.56,-557.91"/>
</g>
<!-- src/main/database/AppDataSource.ts -->
<g id="node6" class="node">
<title>src/main/database/AppDataSource.ts</title>
<g id="a_node6"><a xlink:href="src/main/database/AppDataSource.ts" xlink:title="AppDataSource.ts">
<path fill="#ddfeff" stroke="black" d="M1501.33,-246.25C1501.33,-246.25 1423.42,-246.25 1423.42,-246.25 1420.33,-246.25 1417.25,-243.17 1417.25,-240.08 1417.25,-240.08 1417.25,-233.92 1417.25,-233.92 1417.25,-230.83 1420.33,-227.75 1423.42,-227.75 1423.42,-227.75 1501.33,-227.75 1501.33,-227.75 1504.42,-227.75 1507.5,-230.83 1507.5,-233.92 1507.5,-233.92 1507.5,-240.08 1507.5,-240.08 1507.5,-243.17 1504.42,-246.25 1501.33,-246.25"/>
<text text-anchor="start" x="1425.25" y="-233.7" font-family="Helvetica,sans-Serif" font-size="9.00">AppDataSource.ts</text>
</a>
</g>
</g>
<!-- src/main/App.ts&#45;&gt;src/main/database/AppDataSource.ts -->
<g id="edge5" class="edge">
<title>src/main/App.ts&#45;&gt;src/main/database/AppDataSource.ts</title>
<path fill="none" stroke="#000000" stroke-width="2" stroke-opacity="0.200000" d="M79.6,-333.36C89.82,-311.97 113.87,-258.61 123.75,-211 127.05,-195.09 121.15,-77.31 131.75,-65 188.97,1.47 237.29,-25 325,-25 325,-25 325,-25 1237.38,-25 1350.02,-25 1428.79,-168.16 1453.3,-219.19"/>
<polygon fill="#000000" fill-opacity="0.200000" stroke="#000000" stroke-width="2" stroke-opacity="0.200000" points="1451.38,-220.06 1455.83,-224.6 1455.19,-218.28 1451.38,-220.06"/>
</g>
<!-- src/main/routers/AcademySchemaRouter.ts -->
<g id="node7" class="node">
<title>src/main/routers/AcademySchemaRouter.ts</title>
<g id="a_node7"><a xlink:href="src/main/routers/AcademySchemaRouter.ts" xlink:title="AcademySchemaRouter.ts">
<path fill="#ddfeff" stroke="black" d="M257.58,-180.25C257.58,-180.25 145.92,-180.25 145.92,-180.25 142.83,-180.25 139.75,-177.17 139.75,-174.08 139.75,-174.08 139.75,-167.92 139.75,-167.92 139.75,-164.83 142.83,-161.75 145.92,-161.75 145.92,-161.75 257.58,-161.75 257.58,-161.75 260.67,-161.75 263.75,-164.83 263.75,-167.92 263.75,-167.92 263.75,-174.08 263.75,-174.08 263.75,-177.17 260.67,-180.25 257.58,-180.25"/>
<text text-anchor="start" x="147.75" y="-167.7" font-family="Helvetica,sans-Serif" font-size="9.00">AcademySchemaRouter.ts</text>
</a>
</g>
</g>
<!-- src/main/App.ts&#45;&gt;src/main/routers/AcademySchemaRouter.ts -->
<g id="edge6" class="edge">
<title>src/main/App.ts&#45;&gt;src/main/routers/AcademySchemaRouter.ts</title>
<path fill="none" stroke="#000000" stroke-width="2" stroke-opacity="0.200000" d="M78.65,-333.47C87.17,-311.85 108.31,-257.37 123.75,-211 127.7,-199.12 122.46,-192.39 131.75,-184 131.9,-183.87 132.04,-183.74 132.19,-183.61"/>
<polygon fill="#000000" fill-opacity="0.200000" stroke="#000000" stroke-width="2" stroke-opacity="0.200000" points="133.28,-185.41 136.97,-180.23 130.85,-181.98 133.28,-185.41"/>
</g>
<!-- src/main/routers/UserSchemaRouter.ts -->
<g id="node8" class="node">
<title>src/main/routers/UserSchemaRouter.ts</title>
<g id="a_node8"><a xlink:href="src/main/routers/UserSchemaRouter.ts" xlink:title="UserSchemaRouter.ts">
<path fill="#ddfeff" stroke="black" d="M568.83,-191.25C568.83,-191.25 475.92,-191.25 475.92,-191.25 472.83,-191.25 469.75,-188.17 469.75,-185.08 469.75,-185.08 469.75,-178.92 469.75,-178.92 469.75,-175.83 472.83,-172.75 475.92,-172.75 475.92,-172.75 568.83,-172.75 568.83,-172.75 571.92,-172.75 575,-175.83 575,-178.92 575,-178.92 575,-185.08 575,-185.08 575,-188.17 571.92,-191.25 568.83,-191.25"/>
<text text-anchor="start" x="477.75" y="-178.7" font-family="Helvetica,sans-Serif" font-size="9.00">UserSchemaRouter.ts</text>
</a>
</g>
</g>
<!-- src/main/App.ts&#45;&gt;src/main/routers/UserSchemaRouter.ts -->
<g id="edge7" class="edge">
<title>src/main/App.ts&#45;&gt;src/main/routers/UserSchemaRouter.ts</title>
<path fill="none" stroke="#000000" stroke-width="2" stroke-opacity="0.200000" d="M97.71,-333.41C157.82,-308.39 325.79,-239.95 469.75,-195 470.65,-194.72 471.57,-194.44 472.49,-194.16"/>
<polygon fill="#000000" fill-opacity="0.200000" stroke="#000000" stroke-width="2" stroke-opacity="0.200000" points="472.86,-196.24 478.04,-192.56 471.7,-192.2 472.86,-196.24"/>
</g>
<!-- src/main/auth/controllers/AuthController.ts -->
<g id="node9" class="node">
<title>src/main/auth/controllers/AuthController.ts</title>
<g id="a_node9"><a xlink:href="src/main/auth/controllers/AuthController.ts" xlink:title="AuthController.ts">
<path fill="#ddfeff" stroke="black" d="M978.83,-352.25C978.83,-352.25 907.67,-352.25 907.67,-352.25 904.58,-352.25 901.5,-349.17 901.5,-346.08 901.5,-346.08 901.5,-339.92 901.5,-339.92 901.5,-336.83 904.58,-333.75 907.67,-333.75 907.67,-333.75 978.83,-333.75 978.83,-333.75 981.92,-333.75 985,-336.83 985,-339.92 985,-339.92 985,-346.08 985,-346.08 985,-349.17 981.92,-352.25 978.83,-352.25"/>
<text text-anchor="start" x="909.5" y="-339.7" font-family="Helvetica,sans-Serif" font-size="9.00">AuthController.ts</text>
</a>
</g>
</g>
<!-- src/main/auth/router/AuthRouter.ts&#45;&gt;src/main/auth/controllers/AuthController.ts -->
<g id="edge11" class="edge">
<title>src/main/auth/router/AuthRouter.ts&#45;&gt;src/main/auth/controllers/AuthController.ts</title>
<path fill="none" stroke="#000000" stroke-width="2" stroke-opacity="0.200000" d="M699.12,-343C747.74,-343 836.56,-343 892.33,-343"/>
<polygon fill="#000000" fill-opacity="0.200000" stroke="#000000" stroke-width="2" stroke-opacity="0.200000" points="892.29,-345.1 898.29,-343 892.29,-340.9 892.29,-345.1"/>
</g>
<!-- src/main/auth/middlewares/AuthMiddleware.ts -->
<g id="node12" class="node">
<title>src/main/auth/middlewares/AuthMiddleware.ts</title>
<g id="a_node12"><a xlink:href="src/main/auth/middlewares/AuthMiddleware.ts" xlink:title="AuthMiddleware.ts">
<path fill="#ddfeff" stroke="black" d="M852.83,-396.25C852.83,-396.25 773.42,-396.25 773.42,-396.25 770.33,-396.25 767.25,-393.17 767.25,-390.08 767.25,-390.08 767.25,-383.92 767.25,-383.92 767.25,-380.83 770.33,-377.75 773.42,-377.75 773.42,-377.75 852.83,-377.75 852.83,-377.75 855.92,-377.75 859,-380.83 859,-383.92 859,-383.92 859,-390.08 859,-390.08 859,-393.17 855.92,-396.25 852.83,-396.25"/>
<text text-anchor="start" x="775.25" y="-383.7" font-family="Helvetica,sans-Serif" font-size="9.00">AuthMiddleware.ts</text>
</a>
</g>
</g>
<!-- src/main/auth/router/AuthRouter.ts&#45;&gt;src/main/auth/middlewares/AuthMiddleware.ts -->
<g id="edge12" class="edge">
<title>src/main/auth/router/AuthRouter.ts&#45;&gt;src/main/auth/middlewares/AuthMiddleware.ts</title>
<path fill="none" stroke="#000000" stroke-width="2" stroke-opacity="0.200000" d="M699.09,-346.34C713.77,-348.32 730.93,-351.37 746,-356 760.08,-360.33 775,-367.11 787.1,-373.23"/>
<polygon fill="#000000" fill-opacity="0.200000" stroke="#000000" stroke-width="2" stroke-opacity="0.200000" points="786,-375.03 792.29,-375.93 787.93,-371.3 786,-375.03"/>
</g>
<!-- src/main/auth/services/AuthService.ts -->
<g id="node10" class="node">
<title>src/main/auth/services/AuthService.ts</title>
<g id="a_node10"><a xlink:href="src/main/auth/services/AuthService.ts" xlink:title="AuthService.ts">
<path fill="#ddfeff" stroke="black" d="M1120.33,-540.25C1120.33,-540.25 1058.17,-540.25 1058.17,-540.25 1055.08,-540.25 1052,-537.17 1052,-534.08 1052,-534.08 1052,-527.92 1052,-527.92 1052,-524.83 1055.08,-521.75 1058.17,-521.75 1058.17,-521.75 1120.33,-521.75 1120.33,-521.75 1123.42,-521.75 1126.5,-524.83 1126.5,-527.92 1126.5,-527.92 1126.5,-534.08 1126.5,-534.08 1126.5,-537.17 1123.42,-540.25 1120.33,-540.25"/>
<text text-anchor="start" x="1060" y="-527.7" font-family="Helvetica,sans-Serif" font-size="9.00">AuthService.ts</text>
</a>
</g>
</g>
<!-- src/main/auth/strategies/JwtStrategy.ts&#45;&gt;src/main/auth/services/AuthService.ts -->
<g id="edge14" class="edge">
<title>src/main/auth/strategies/JwtStrategy.ts&#45;&gt;src/main/auth/services/AuthService.ts</title>
<path fill="none" stroke="#000000" stroke-width="2" stroke-opacity="0.200000" d="M979.48,-531C998.55,-531 1022.33,-531 1042.79,-531"/>
<polygon fill="#000000" fill-opacity="0.200000" stroke="#000000" stroke-width="2" stroke-opacity="0.200000" points="1042.6,-533.1 1048.6,-531 1042.6,-528.9 1042.6,-533.1"/>
</g>
<!-- src/main/auth/strategies/LocalStrategy.ts&#45;&gt;src/main/auth/services/AuthService.ts -->
<g id="edge15" class="edge">
<title>src/main/auth/strategies/LocalStrategy.ts&#45;&gt;src/main/auth/services/AuthService.ts</title>
<path fill="none" stroke="#000000" stroke-width="2" stroke-opacity="0.200000" d="M983.98,-553.45C1002.23,-549.52 1023.98,-544.84 1042.87,-540.77"/>
<polygon fill="#000000" fill-opacity="0.200000" stroke="#000000" stroke-width="2" stroke-opacity="0.200000" points="1043.23,-542.84 1048.65,-539.52 1042.34,-538.73 1043.23,-542.84"/>
</g>
<!-- src/main/middlewares/AcademySchemaMiddleware.ts -->
<g id="node42" class="node">
<title>src/main/middlewares/AcademySchemaMiddleware.ts</title>
<g id="a_node42"><a xlink:href="src/main/middlewares/AcademySchemaMiddleware.ts" xlink:title="AcademySchemaMiddleware.ts">
<path fill="#ddfeff" stroke="black" d="M729.83,-283.25C729.83,-283.25 597.17,-283.25 597.17,-283.25 594.08,-283.25 591,-280.17 591,-277.08 591,-277.08 591,-270.92 591,-270.92 591,-267.83 594.08,-264.75 597.17,-264.75 597.17,-264.75 729.83,-264.75 729.83,-264.75 732.92,-264.75 736,-267.83 736,-270.92 736,-270.92 736,-277.08 736,-277.08 736,-280.17 732.92,-283.25 729.83,-283.25"/>
<text text-anchor="start" x="599" y="-270.7" font-family="Helvetica,sans-Serif" font-size="9.00">AcademySchemaMiddleware.ts</text>
</a>
</g>
</g>
<!-- src/main/routers/AcademySchemaRouter.ts&#45;&gt;src/main/middlewares/AcademySchemaMiddleware.ts -->
<g id="edge48" class="edge">
<title>src/main/routers/AcademySchemaRouter.ts&#45;&gt;src/main/middlewares/AcademySchemaMiddleware.ts</title>
<path fill="none" stroke="#000000" stroke-width="2" stroke-opacity="0.200000" d="M263.97,-176.81C356.4,-186.59 525.98,-208.81 575,-244 580.82,-248.18 577.19,-253.81 583,-258 584.07,-258.77 585.17,-259.51 586.29,-260.21"/>
<polygon fill="#000000" fill-opacity="0.200000" stroke="#000000" stroke-width="2" stroke-opacity="0.200000" points="585.09,-261.95 591.36,-262.95 587.08,-258.25 585.09,-261.95"/>
</g>
<!-- src/main/routers/academy/UniversityRouter.ts -->
<g id="node44" class="node">
<title>src/main/routers/academy/UniversityRouter.ts</title>
<g id="a_node44"><a xlink:href="src/main/routers/academy/UniversityRouter.ts" xlink:title="UniversityRouter.ts">
<path fill="#ddfeff" stroke="black" d="M366.08,-102.25C366.08,-102.25 285.92,-102.25 285.92,-102.25 282.83,-102.25 279.75,-99.17 279.75,-96.08 279.75,-96.08 279.75,-89.92 279.75,-89.92 279.75,-86.83 282.83,-83.75 285.92,-83.75 285.92,-83.75 366.08,-83.75 366.08,-83.75 369.17,-83.75 372.25,-86.83 372.25,-89.92 372.25,-89.92 372.25,-96.08 372.25,-96.08 372.25,-99.17 369.17,-102.25 366.08,-102.25"/>
<text text-anchor="start" x="287.75" y="-89.7" font-family="Helvetica,sans-Serif" font-size="9.00">UniversityRouter.ts</text>
</a>
</g>
</g>
<!-- src/main/routers/AcademySchemaRouter.ts&#45;&gt;src/main/routers/academy/UniversityRouter.ts -->
<g id="edge49" class="edge">
<title>src/main/routers/AcademySchemaRouter.ts&#45;&gt;src/main/routers/academy/UniversityRouter.ts</title>
<path fill="none" stroke="#000000" stroke-width="2" stroke-opacity="0.200000" d="M259.93,-161.47C261.28,-160.41 262.56,-159.26 263.75,-158 279.8,-141 255.95,-123.24 271.75,-106 271.89,-105.85 272.02,-105.7 272.16,-105.56"/>
<polygon fill="#000000" fill-opacity="0.200000" stroke="#000000" stroke-width="2" stroke-opacity="0.200000" points="273.45,-107.22 276.87,-101.86 270.85,-103.92 273.45,-107.22"/>
</g>
<!-- src/main/routers/base/NoControllerBaseRouter.ts -->
<g id="node45" class="node">
<title>src/main/routers/base/NoControllerBaseRouter.ts</title>
<g id="a_node45"><a xlink:href="src/main/routers/base/NoControllerBaseRouter.ts" xlink:title="NoControllerBaseRouter.ts">
<path fill="#ddfeff" stroke="black" d="M720.08,-133.25C720.08,-133.25 606.92,-133.25 606.92,-133.25 603.83,-133.25 600.75,-130.17 600.75,-127.08 600.75,-127.08 600.75,-120.92 600.75,-120.92 600.75,-117.83 603.83,-114.75 606.92,-114.75 606.92,-114.75 720.08,-114.75 720.08,-114.75 723.17,-114.75 726.25,-117.83 726.25,-120.92 726.25,-120.92 726.25,-127.08 726.25,-127.08 726.25,-130.17 723.17,-133.25 720.08,-133.25"/>
<text text-anchor="start" x="608.75" y="-120.7" font-family="Helvetica,sans-Serif" font-size="9.00">NoControllerBaseRouter.ts</text>
</a>
</g>
</g>
<!-- src/main/routers/AcademySchemaRouter.ts&#45;&gt;src/main/routers/base/NoControllerBaseRouter.ts -->
<g id="edge50" class="edge">
<title>src/main/routers/AcademySchemaRouter.ts&#45;&gt;src/main/routers/base/NoControllerBaseRouter.ts</title>
<path fill="none" stroke="#000000" stroke-width="2" stroke-opacity="0.200000" d="M263.8,-164.76C348.66,-156.08 501.94,-140.41 591.71,-131.24"/>
<polygon fill="#000000" fill-opacity="0.200000" stroke="#000000" stroke-width="2" stroke-opacity="0.200000" points="591.69,-133.35 597.45,-130.65 591.27,-129.17 591.69,-133.35"/>
</g>
<!-- src/main/middlewares/UserSchemaMiddleware.ts -->
<g id="node43" class="node">
<title>src/main/middlewares/UserSchemaMiddleware.ts</title>
<g id="a_node43"><a xlink:href="src/main/middlewares/UserSchemaMiddleware.ts" xlink:title="UserSchemaMiddleware.ts">
<path fill="#ddfeff" stroke="black" d="M720.46,-252.25C720.46,-252.25 606.54,-252.25 606.54,-252.25 603.46,-252.25 600.38,-249.17 600.38,-246.08 600.38,-246.08 600.38,-239.92 600.38,-239.92 600.38,-236.83 603.46,-233.75 606.54,-233.75 606.54,-233.75 720.46,-233.75 720.46,-233.75 723.54,-233.75 726.62,-236.83 726.62,-239.92 726.62,-239.92 726.62,-246.08 726.62,-246.08 726.62,-249.17 723.54,-252.25 720.46,-252.25"/>
<text text-anchor="start" x="608.38" y="-239.7" font-family="Helvetica,sans-Serif" font-size="9.00">UserSchemaMiddleware.ts</text>
</a>
</g>
</g>
<!-- src/main/routers/UserSchemaRouter.ts&#45;&gt;src/main/middlewares/UserSchemaMiddleware.ts -->
<g id="edge51" class="edge">
<title>src/main/routers/UserSchemaRouter.ts&#45;&gt;src/main/middlewares/UserSchemaMiddleware.ts</title>
<path fill="none" stroke="#000000" stroke-width="2" stroke-opacity="0.200000" d="M545.42,-191.67C568.93,-201.97 606.3,-218.36 632.48,-229.84"/>
<polygon fill="#000000" fill-opacity="0.200000" stroke="#000000" stroke-width="2" stroke-opacity="0.200000" points="631.45,-231.68 637.79,-232.16 633.13,-227.83 631.45,-231.68"/>
</g>
<!-- src/main/routers/UserSchemaRouter.ts&#45;&gt;src/main/routers/base/NoControllerBaseRouter.ts -->
<g id="edge52" class="edge">
<title>src/main/routers/UserSchemaRouter.ts&#45;&gt;src/main/routers/base/NoControllerBaseRouter.ts</title>
<path fill="none" stroke="#000000" stroke-width="2" stroke-opacity="0.200000" d="M550.43,-172.35C559.05,-168.3 568.13,-162.89 575,-156 580.61,-150.37 576.68,-144.83 583,-140 585.96,-137.74 589.15,-135.77 592.5,-134.07"/>
<polygon fill="#000000" fill-opacity="0.200000" stroke="#000000" stroke-width="2" stroke-opacity="0.200000" points="593.14,-136.08 597.79,-131.76 591.45,-132.24 593.14,-136.08"/>
</g>
<!-- src/main/auth/controllers/AuthController.ts&#45;&gt;src/main/auth/services/AuthService.ts -->
<g id="edge8" class="edge">
<title>src/main/auth/controllers/AuthController.ts&#45;&gt;src/main/auth/services/AuthService.ts</title>
<path fill="none" stroke="#000000" stroke-width="2" stroke-opacity="0.200000" d="M959.58,-352.73C973,-361.77 992.45,-376.18 1006.25,-392 1040.16,-430.86 1067.7,-485.7 1080.5,-513.45"/>
<polygon fill="#000000" fill-opacity="0.200000" stroke="#000000" stroke-width="2" stroke-opacity="0.200000" points="1078.49,-514.1 1082.88,-518.7 1082.31,-512.37 1078.49,-514.1"/>
</g>
<!-- src/main/services/AuthUserService.ts -->
<g id="node14" class="node">
<title>src/main/services/AuthUserService.ts</title>
<g id="a_node14"><a xlink:href="src/main/services/AuthUserService.ts" xlink:title="AuthUserService.ts">
<path fill="#ddfeff" stroke="black" d="M1277.21,-540.25C1277.21,-540.25 1195.54,-540.25 1195.54,-540.25 1192.46,-540.25 1189.38,-537.17 1189.38,-534.08 1189.38,-534.08 1189.38,-527.92 1189.38,-527.92 1189.38,-524.83 1192.46,-521.75 1195.54,-521.75 1195.54,-521.75 1277.21,-521.75 1277.21,-521.75 1280.29,-521.75 1283.38,-524.83 1283.38,-527.92 1283.38,-527.92 1283.38,-534.08 1283.38,-534.08 1283.38,-537.17 1280.29,-540.25 1277.21,-540.25"/>
<text text-anchor="start" x="1197.38" y="-527.7" font-family="Helvetica,sans-Serif" font-size="9.00">AuthUserService.ts</text>
</a>
</g>
</g>
<!-- src/main/auth/services/AuthService.ts&#45;&gt;src/main/services/AuthUserService.ts -->
<g id="edge13" class="edge">
<title>src/main/auth/services/AuthService.ts&#45;&gt;src/main/services/AuthUserService.ts</title>
<path fill="none" stroke="#000000" stroke-width="2" stroke-opacity="0.200000" d="M1126.87,-531C1143.11,-531 1162.56,-531 1180.47,-531"/>
<polygon fill="#000000" fill-opacity="0.200000" stroke="#000000" stroke-width="2" stroke-opacity="0.200000" points="1180.1,-533.1 1186.1,-531 1180.1,-528.9 1180.1,-533.1"/>
</g>
<!-- src/main/auth/interfaces.ts -->
<g id="node11" class="node">
<title>src/main/auth/interfaces.ts</title>
<g id="a_node11"><a xlink:href="src/main/auth/interfaces.ts" xlink:title="no&#45;orphans">
<path fill="#ccffcc" stroke="orange" d="M689.71,-405.25C689.71,-405.25 637.29,-405.25 637.29,-405.25 634.21,-405.25 631.12,-402.17 631.12,-399.08 631.12,-399.08 631.12,-392.92 631.12,-392.92 631.12,-389.83 634.21,-386.75 637.29,-386.75 637.29,-386.75 689.71,-386.75 689.71,-386.75 692.79,-386.75 695.88,-389.83 695.88,-392.92 695.88,-392.92 695.88,-399.08 695.88,-399.08 695.88,-402.17 692.79,-405.25 689.71,-405.25"/>
<text text-anchor="start" x="639.12" y="-392.7" font-family="Helvetica,sans-Serif" font-size="9.00" fill="orange">interfaces.ts</text>
</a>
</g>
</g>
<!-- src/main/auth/middlewares/AuthMiddleware.ts&#45;&gt;src/main/auth/strategies/JwtStrategy.ts -->
<g id="edge9" class="edge">
<title>src/main/auth/middlewares/AuthMiddleware.ts&#45;&gt;src/main/auth/strategies/JwtStrategy.ts</title>
<path fill="none" stroke="#000000" stroke-width="2" stroke-opacity="0.200000" d="M859.34,-393.37C864.25,-395.71 868.74,-398.84 872.25,-403 883.64,-416.48 871.77,-466.53 880.25,-482 888.3,-496.68 902.77,-508.5 915.7,-516.85"/>
<polygon fill="#000000" fill-opacity="0.200000" stroke="#000000" stroke-width="2" stroke-opacity="0.200000" points="914.28,-518.45 920.5,-519.78 916.47,-514.86 914.28,-518.45"/>
</g>
<!-- src/main/auth/validations/dto/SignUpUserDTO.ts -->
<g id="node13" class="node">
<title>src/main/auth/validations/dto/SignUpUserDTO.ts</title>
<g id="a_node13"><a xlink:href="src/main/auth/validations/dto/SignUpUserDTO.ts" xlink:title="SignUpUserDTO.ts">
<path fill="#ddfeff" stroke="black" d="M984.08,-421.25C984.08,-421.25 902.42,-421.25 902.42,-421.25 899.33,-421.25 896.25,-418.17 896.25,-415.08 896.25,-415.08 896.25,-408.92 896.25,-408.92 896.25,-405.83 899.33,-402.75 902.42,-402.75 902.42,-402.75 984.08,-402.75 984.08,-402.75 987.17,-402.75 990.25,-405.83 990.25,-408.92 990.25,-408.92 990.25,-415.08 990.25,-415.08 990.25,-418.17 987.17,-421.25 984.08,-421.25"/>
<text text-anchor="start" x="904.25" y="-408.7" font-family="Helvetica,sans-Serif" font-size="9.00">SignUpUserDTO.ts</text>
</a>
</g>
</g>
<!-- src/main/auth/middlewares/AuthMiddleware.ts&#45;&gt;src/main/auth/validations/dto/SignUpUserDTO.ts -->
<g id="edge10" class="edge">
<title>src/main/auth/middlewares/AuthMiddleware.ts&#45;&gt;src/main/auth/validations/dto/SignUpUserDTO.ts</title>
<path fill="none" stroke="#000000" stroke-width="2" stroke-opacity="0.200000" d="M859.3,-395.81C868.25,-397.56 877.75,-399.41 886.99,-401.22"/>
<polygon fill="#000000" fill-opacity="0.200000" stroke="#000000" stroke-width="2" stroke-opacity="0.200000" points="886.49,-403.26 892.78,-402.35 887.3,-399.14 886.49,-403.26"/>
</g>
<!-- src/main/entities/AuthUserEntity.ts -->
<g id="node27" class="node">
<title>src/main/entities/AuthUserEntity.ts</title>
<g id="a_node27"><a xlink:href="src/main/entities/AuthUserEntity.ts" xlink:title="AuthUserEntity.ts">
<path fill="#ddfeff" stroke="black" d="M1603.46,-659.25C1603.46,-659.25 1530.79,-659.25 1530.79,-659.25 1527.71,-659.25 1524.62,-656.17 1524.62,-653.08 1524.62,-653.08 1524.62,-646.92 1524.62,-646.92 1524.62,-643.83 1527.71,-640.75 1530.79,-640.75 1530.79,-640.75 1603.46,-640.75 1603.46,-640.75 1606.54,-640.75 1609.62,-643.83 1609.62,-646.92 1609.62,-646.92 1609.62,-653.08 1609.62,-653.08 1609.62,-656.17 1606.54,-659.25 1603.46,-659.25"/>
<text text-anchor="start" x="1532.62" y="-646.7" font-family="Helvetica,sans-Serif" font-size="9.00">AuthUserEntity.ts</text>
</a>
</g>
</g>
<!-- src/main/services/AuthUserService.ts&#45;&gt;src/main/entities/AuthUserEntity.ts -->
<g id="edge61" class="edge">
<title>src/main/services/AuthUserService.ts&#45;&gt;src/main/entities/AuthUserEntity.ts</title>
<path fill="none" stroke="#000000" stroke-width="2" stroke-opacity="0.200000" d="M1264.28,-540.74C1323.42,-562.15 1464.74,-613.3 1530.87,-637.24"/>
<polygon fill="#000000" fill-opacity="0.200000" stroke="#000000" stroke-width="2" stroke-opacity="0.200000" points="1530.11,-639.2 1536.46,-639.26 1531.54,-635.25 1530.11,-639.2"/>
</g>
<!-- src/main/services/base/BaseService.ts -->
<g id="node50" class="node">
<title>src/main/services/base/BaseService.ts</title>
<g id="a_node50"><a xlink:href="src/main/services/base/BaseService.ts" xlink:title="BaseService.ts">
<path fill="#ddfeff" stroke="black" d="M1379.08,-441.25C1379.08,-441.25 1314.67,-441.25 1314.67,-441.25 1311.58,-441.25 1308.5,-438.17 1308.5,-435.08 1308.5,-435.08 1308.5,-428.92 1308.5,-428.92 1308.5,-425.83 1311.58,-422.75 1314.67,-422.75 1314.67,-422.75 1379.08,-422.75 1379.08,-422.75 1382.17,-422.75 1385.25,-425.83 1385.25,-428.92 1385.25,-428.92 1385.25,-435.08 1385.25,-435.08 1385.25,-438.17 1382.17,-441.25 1379.08,-441.25"/>
<text text-anchor="start" x="1316.5" y="-428.7" font-family="Helvetica,sans-Serif" font-size="9.00">BaseService.ts</text>
</a>
</g>
</g>
<!-- src/main/services/AuthUserService.ts&#45;&gt;src/main/services/base/BaseService.ts -->
<g id="edge62" class="edge">
<title>src/main/services/AuthUserService.ts&#45;&gt;src/main/services/base/BaseService.ts</title>
<path fill="none" stroke="#000000" stroke-width="2" stroke-opacity="0.200000" d="M1281.78,-521.27C1285.59,-519.51 1289.23,-517.44 1292.5,-515 1315.14,-498.11 1330.76,-468.54 1339.01,-449.64"/>
<polygon fill="#000000" fill-opacity="0.200000" stroke="#000000" stroke-width="2" stroke-opacity="0.200000" points="1340.84,-450.69 1341.21,-444.35 1336.97,-449.08 1340.84,-450.69"/>
</g>
<!-- src/main/auth/validations/dto/SignInUserDTO.ts -->
<g id="node15" class="node">
<title>src/main/auth/validations/dto/SignInUserDTO.ts</title>
<g id="a_node15"><a xlink:href="src/main/auth/validations/dto/SignInUserDTO.ts" xlink:title="no&#45;orphans">
<path fill="#ccffcc" stroke="orange" d="M981.83,-452.25C981.83,-452.25 904.67,-452.25 904.67,-452.25 901.58,-452.25 898.5,-449.17 898.5,-446.08 898.5,-446.08 898.5,-439.92 898.5,-439.92 898.5,-436.83 901.58,-433.75 904.67,-433.75 904.67,-433.75 981.83,-433.75 981.83,-433.75 984.92,-433.75 988,-436.83 988,-439.92 988,-439.92 988,-446.08 988,-446.08 988,-449.17 984.92,-452.25 981.83,-452.25"/>
<text text-anchor="start" x="906.5" y="-439.7" font-family="Helvetica,sans-Serif" font-size="9.00" fill="orange">SignInUserDTO.ts</text>
</a>
</g>
</g>
<!-- src/main/controllers/academy/AreaController.ts -->
<g id="node16" class="node">
<title>src/main/controllers/academy/AreaController.ts</title>
<g id="a_node16"><a xlink:href="src/main/controllers/academy/AreaController.ts" xlink:title="AreaController.ts">
<path fill="#ddfeff" stroke="black" d="M1125.21,-164.25C1125.21,-164.25 1053.29,-164.25 1053.29,-164.25 1050.21,-164.25 1047.12,-161.17 1047.12,-158.08 1047.12,-158.08 1047.12,-151.92 1047.12,-151.92 1047.12,-148.83 1050.21,-145.75 1053.29,-145.75 1053.29,-145.75 1125.21,-145.75 1125.21,-145.75 1128.29,-145.75 1131.38,-148.83 1131.38,-151.92 1131.38,-151.92 1131.38,-158.08 1131.38,-158.08 1131.38,-161.17 1128.29,-164.25 1125.21,-164.25"/>
<text text-anchor="start" x="1055.12" y="-151.7" font-family="Helvetica,sans-Serif" font-size="9.00">AreaController.ts</text>
</a>
</g>
</g>
<!-- src/main/services/academy/AreaService.ts -->
<g id="node17" class="node">
<title>src/main/services/academy/AreaService.ts</title>
<g id="a_node17"><a xlink:href="src/main/services/academy/AreaService.ts" xlink:title="AreaService.ts">
<path fill="#ddfeff" stroke="black" d="M1267.83,-425.25C1267.83,-425.25 1204.92,-425.25 1204.92,-425.25 1201.83,-425.25 1198.75,-422.17 1198.75,-419.08 1198.75,-419.08 1198.75,-412.92 1198.75,-412.92 1198.75,-409.83 1201.83,-406.75 1204.92,-406.75 1204.92,-406.75 1267.83,-406.75 1267.83,-406.75 1270.92,-406.75 1274,-409.83 1274,-412.92 1274,-412.92 1274,-419.08 1274,-419.08 1274,-422.17 1270.92,-425.25 1267.83,-425.25"/>
<text text-anchor="start" x="1206.75" y="-412.7" font-family="Helvetica,sans-Serif" font-size="9.00">AreaService.ts</text>
</a>
</g>
</g>
<!-- src/main/controllers/academy/AreaController.ts&#45;&gt;src/main/services/academy/AreaService.ts -->
<g id="edge16" class="edge">
<title>src/main/controllers/academy/AreaController.ts&#45;&gt;src/main/services/academy/AreaService.ts</title>
<path fill="none" stroke="#000000" stroke-width="2" stroke-opacity="0.200000" d="M1131.74,-154.66C1143.98,-156.75 1156.24,-161.42 1164.25,-171 1180.58,-190.53 1156.27,-380.18 1172.25,-400 1176.89,-405.76 1183.28,-409.61 1190.23,-412.17"/>
<polygon fill="#000000" fill-opacity="0.200000" stroke="#000000" stroke-width="2" stroke-opacity="0.200000" points="1189.3,-414.09 1195.65,-413.76 1190.48,-410.06 1189.3,-414.09"/>
</g>
<!-- src/main/entities/AreaEntity.ts -->
<g id="node24" class="node">
<title>src/main/entities/AreaEntity.ts</title>
<g id="a_node24"><a xlink:href="src/main/entities/AreaEntity.ts" xlink:title="AreaEntity.ts">
<path fill="#ddfeff" stroke="black" d="M1489.33,-702.25C1489.33,-702.25 1435.42,-702.25 1435.42,-702.25 1432.33,-702.25 1429.25,-699.17 1429.25,-696.08 1429.25,-696.08 1429.25,-689.92 1429.25,-689.92 1429.25,-686.83 1432.33,-683.75 1435.42,-683.75 1435.42,-683.75 1489.33,-683.75 1489.33,-683.75 1492.42,-683.75 1495.5,-686.83 1495.5,-689.92 1495.5,-689.92 1495.5,-696.08 1495.5,-696.08 1495.5,-699.17 1492.42,-702.25 1489.33,-702.25"/>
<text text-anchor="start" x="1437.25" y="-689.7" font-family="Helvetica,sans-Serif" font-size="9.00">AreaEntity.ts</text>
</a>
</g>
</g>
<!-- src/main/services/academy/AreaService.ts&#45;&gt;src/main/entities/AreaEntity.ts -->
<g id="edge65" class="edge">
<title>src/main/services/academy/AreaService.ts&#45;&gt;src/main/entities/AreaEntity.ts</title>
<path fill="none" stroke="#000000" stroke-width="2" stroke-opacity="0.200000" d="M1274.3,-420.08C1281.29,-422.52 1287.85,-426.27 1292.5,-432 1307.39,-450.34 1290.45,-516.62 1300.5,-538 1330.94,-602.71 1400.99,-654.61 1437.8,-678.59"/>
<polygon fill="#000000" fill-opacity="0.200000" stroke="#000000" stroke-width="2" stroke-opacity="0.200000" points="1436.38,-680.18 1442.57,-681.64 1438.65,-676.64 1436.38,-680.18"/>
</g>
<!-- src/main/services/academy/AreaService.ts&#45;&gt;src/main/services/base/BaseService.ts -->
<g id="edge66" class="edge">
<title>src/main/services/academy/AreaService.ts&#45;&gt;src/main/services/base/BaseService.ts</title>
<path fill="none" stroke="#000000" stroke-width="2" stroke-opacity="0.200000" d="M1274.41,-421.46C1282.44,-422.64 1291.02,-423.91 1299.36,-425.14"/>
<polygon fill="#000000" fill-opacity="0.200000" stroke="#000000" stroke-width="2" stroke-opacity="0.200000" points="1299.03,-427.21 1305.27,-426.01 1299.64,-423.06 1299.03,-427.21"/>
</g>
<!-- src/main/controllers/academy/CourseController.ts -->
<g id="node18" class="node">
<title>src/main/controllers/academy/CourseController.ts</title>
<g id="a_node18"><a xlink:href="src/main/controllers/academy/CourseController.ts" xlink:title="CourseController.ts">
<path fill="#ddfeff" stroke="black" d="M1130.46,-195.25C1130.46,-195.25 1048.04,-195.25 1048.04,-195.25 1044.96,-195.25 1041.88,-192.17 1041.88,-189.08 1041.88,-189.08 1041.88,-182.92 1041.88,-182.92 1041.88,-179.83 1044.96,-176.75 1048.04,-176.75 1048.04,-176.75 1130.46,-176.75 1130.46,-176.75 1133.54,-176.75 1136.62,-179.83 1136.62,-182.92 1136.62,-182.92 1136.62,-189.08 1136.62,-189.08 1136.62,-192.17 1133.54,-195.25 1130.46,-195.25"/>
<text text-anchor="start" x="1049.88" y="-182.7" font-family="Helvetica,sans-Serif" font-size="9.00">CourseController.ts</text>
</a>
</g>
</g>
<!-- src/main/services/academy/CourseService.ts -->
<g id="node19" class="node">
<title>src/main/services/academy/CourseService.ts</title>
<g id="a_node19"><a xlink:href="src/main/services/academy/CourseService.ts" xlink:title="CourseService.ts">
<path fill="#ddfeff" stroke="black" d="M1273.08,-456.25C1273.08,-456.25 1199.67,-456.25 1199.67,-456.25 1196.58,-456.25 1193.5,-453.17 1193.5,-450.08 1193.5,-450.08 1193.5,-443.92 1193.5,-443.92 1193.5,-440.83 1196.58,-437.75 1199.67,-437.75 1199.67,-437.75 1273.08,-437.75 1273.08,-437.75 1276.17,-437.75 1279.25,-440.83 1279.25,-443.92 1279.25,-443.92 1279.25,-450.08 1279.25,-450.08 1279.25,-453.17 1276.17,-456.25 1273.08,-456.25"/>
<text text-anchor="start" x="1201.5" y="-443.7" font-family="Helvetica,sans-Serif" font-size="9.00">CourseService.ts</text>
</a>
</g>
</g>
<!-- src/main/controllers/academy/CourseController.ts&#45;&gt;src/main/services/academy/CourseService.ts -->
<g id="edge17" class="edge">
<title>src/main/controllers/academy/CourseController.ts&#45;&gt;src/main/services/academy/CourseService.ts</title>
<path fill="none" stroke="#000000" stroke-width="2" stroke-opacity="0.200000" d="M1122.89,-195.71C1138.17,-202.05 1155.01,-211.99 1164.25,-227 1176.15,-246.31 1157.97,-413.37 1172.25,-431 1175.62,-435.16 1179.91,-438.34 1184.66,-440.74"/>
<polygon fill="#000000" fill-opacity="0.200000" stroke="#000000" stroke-width="2" stroke-opacity="0.200000" points="1183.85,-442.67 1190.2,-442.97 1185.42,-438.78 1183.85,-442.67"/>
</g>
<!-- src/main/entities/CourseEntity.ts -->
<g id="node31" class="node">
<title>src/main/entities/CourseEntity.ts</title>
<g id="a_node31"><a xlink:href="src/main/entities/CourseEntity.ts" xlink:title="CourseEntity.ts">
<path fill="#ddfeff" stroke="black" d="M1379.08,-702.25C1379.08,-702.25 1314.67,-702.25 1314.67,-702.25 1311.58,-702.25 1308.5,-699.17 1308.5,-696.08 1308.5,-696.08 1308.5,-689.92 1308.5,-689.92 1308.5,-686.83 1311.58,-683.75 1314.67,-683.75 1314.67,-683.75 1379.08,-683.75 1379.08,-683.75 1382.17,-683.75 1385.25,-686.83 1385.25,-689.92 1385.25,-689.92 1385.25,-696.08 1385.25,-696.08 1385.25,-699.17 1382.17,-702.25 1379.08,-702.25"/>
<text text-anchor="start" x="1316.5" y="-689.7" font-family="Helvetica,sans-Serif" font-size="9.00">CourseEntity.ts</text>
</a>
</g>
</g>
<!-- src/main/services/academy/CourseService.ts&#45;&gt;src/main/entities/CourseEntity.ts -->
<g id="edge67" class="edge">
<title>src/main/services/academy/CourseService.ts&#45;&gt;src/main/entities/CourseEntity.ts</title>
<path fill="none" stroke="#000000" stroke-width="2" stroke-opacity="0.200000" d="M1279.54,-450.79C1284.5,-452.89 1289.03,-455.85 1292.5,-460 1302.93,-472.46 1296.2,-590.33 1300.5,-606 1307.63,-631.98 1323.26,-659.06 1334.17,-675.96"/>
<polygon fill="#000000" fill-opacity="0.200000" stroke="#000000" stroke-width="2" stroke-opacity="0.200000" points="1332.36,-677.03 1337.42,-680.87 1335.86,-674.71 1332.36,-677.03"/>
</g>
<!-- src/main/services/academy/CourseService.ts&#45;&gt;src/main/services/base/BaseService.ts -->
<g id="edge68" class="edge">
<title>src/main/services/academy/CourseService.ts&#45;&gt;src/main/services/base/BaseService.ts</title>
<path fill="none" stroke="#000000" stroke-width="2" stroke-opacity="0.200000" d="M1279.63,-441.16C1286.1,-440.26 1292.8,-439.34 1299.35,-438.43"/>
<polygon fill="#000000" fill-opacity="0.200000" stroke="#000000" stroke-width="2" stroke-opacity="0.200000" points="1299.49,-440.53 1305.15,-437.63 1298.92,-436.37 1299.49,-440.53"/>
</g>
<!-- src/main/controllers/academy/UniversityController.ts -->
<g id="node20" class="node">
<title>src/main/controllers/academy/UniversityController.ts</title>
<g id="a_node20"><a xlink:href="src/main/controllers/academy/UniversityController.ts" xlink:title="UniversityController.ts">
<path fill="#ddfeff" stroke="black" d="M1135.71,-133.25C1135.71,-133.25 1042.79,-133.25 1042.79,-133.25 1039.71,-133.25 1036.62,-130.17 1036.62,-127.08 1036.62,-127.08 1036.62,-120.92 1036.62,-120.92 1036.62,-117.83 1039.71,-114.75 1042.79,-114.75 1042.79,-114.75 1135.71,-114.75 1135.71,-114.75 1138.79,-114.75 1141.88,-117.83 1141.88,-120.92 1141.88,-120.92 1141.88,-127.08 1141.88,-127.08 1141.88,-130.17 1138.79,-133.25 1135.71,-133.25"/>
<text text-anchor="start" x="1044.62" y="-120.7" font-family="Helvetica,sans-Serif" font-size="9.00">UniversityController.ts</text>
</a>
</g>
</g>
<!-- src/main/services/academy/UniversityService.ts -->
<g id="node21" class="node">
<title>src/main/services/academy/UniversityService.ts</title>
<g id="a_node21"><a xlink:href="src/main/services/academy/UniversityService.ts" xlink:title="UniversityService.ts">
<path fill="#ddfeff" stroke="black" d="M1278.33,-394.25C1278.33,-394.25 1194.42,-394.25 1194.42,-394.25 1191.33,-394.25 1188.25,-391.17 1188.25,-388.08 1188.25,-388.08 1188.25,-381.92 1188.25,-381.92 1188.25,-378.83 1191.33,-375.75 1194.42,-375.75 1194.42,-375.75 1278.33,-375.75 1278.33,-375.75 1281.42,-375.75 1284.5,-378.83 1284.5,-381.92 1284.5,-381.92 1284.5,-388.08 1284.5,-388.08 1284.5,-391.17 1281.42,-394.25 1278.33,-394.25"/>
<text text-anchor="start" x="1196.25" y="-381.7" font-family="Helvetica,sans-Serif" font-size="9.00">UniversityService.ts</text>
</a>
</g>
</g>
<!-- src/main/controllers/academy/UniversityController.ts&#45;&gt;src/main/services/academy/UniversityService.ts -->
<g id="edge18" class="edge">
<title>src/main/controllers/academy/UniversityController.ts&#45;&gt;src/main/services/academy/UniversityService.ts</title>
<path fill="none" stroke="#000000" stroke-width="2" stroke-opacity="0.200000" d="M1142.09,-126.12C1150.61,-128.8 1158.52,-133.14 1164.25,-140 1180.79,-159.79 1155.61,-352.29 1172.25,-372 1174.47,-374.63 1177.08,-376.82 1179.94,-378.64"/>
<polygon fill="#000000" fill-opacity="0.200000" stroke="#000000" stroke-width="2" stroke-opacity="0.200000" points="1178.99,-380.51 1185.3,-381.27 1180.84,-376.74 1178.99,-380.51"/>
</g>
<!-- src/main/entities/UniversityEntity.ts -->
<g id="node26" class="node">
<title>src/main/entities/UniversityEntity.ts</title>
<g id="a_node26"><a xlink:href="src/main/entities/UniversityEntity.ts" xlink:title="UniversityEntity.ts">
<path fill="#ddfeff" stroke="black" d="M1604.58,-691.25C1604.58,-691.25 1529.67,-691.25 1529.67,-691.25 1526.58,-691.25 1523.5,-688.17 1523.5,-685.08 1523.5,-685.08 1523.5,-678.92 1523.5,-678.92 1523.5,-675.83 1526.58,-672.75 1529.67,-672.75 1529.67,-672.75 1604.58,-672.75 1604.58,-672.75 1607.67,-672.75 1610.75,-675.83 1610.75,-678.92 1610.75,-678.92 1610.75,-685.08 1610.75,-685.08 1610.75,-688.17 1607.67,-691.25 1604.58,-691.25"/>
<text text-anchor="start" x="1531.5" y="-678.7" font-family="Helvetica,sans-Serif" font-size="9.00">UniversityEntity.ts</text>
</a>
</g>
</g>
<!-- src/main/services/academy/UniversityService.ts&#45;&gt;src/main/entities/UniversityEntity.ts -->
<g id="edge69" class="edge">
<title>src/main/services/academy/UniversityService.ts&#45;&gt;src/main/entities/UniversityEntity.ts</title>
<path fill="none" stroke="#000000" stroke-width="2" stroke-opacity="0.200000" d="M1284.91,-394.39C1287.74,-396.23 1290.31,-398.41 1292.5,-401 1312.7,-424.93 1284.25,-444.23 1300.5,-471 1328.53,-517.18 1359.83,-504.32 1401.25,-539 1461.07,-589.09 1458.66,-621.59 1523.5,-665 1525.35,-666.24 1527.31,-667.41 1529.33,-668.52"/>
<polygon fill="#000000" fill-opacity="0.200000" stroke="#000000" stroke-width="2" stroke-opacity="0.200000" points="1528.28,-670.34 1534.59,-671.11 1530.14,-666.58 1528.28,-670.34"/>
</g>
<!-- src/main/services/academy/UniversityService.ts&#45;&gt;src/main/services/base/BaseService.ts -->
<g id="edge70" class="edge">
<title>src/main/services/academy/UniversityService.ts&#45;&gt;src/main/services/base/BaseService.ts</title>
<path fill="none" stroke="#000000" stroke-width="2" stroke-opacity="0.200000" d="M1283.01,-394.63C1286.43,-396.41 1289.65,-398.51 1292.5,-401 1299.1,-406.76 1293.89,-413.26 1300.5,-419 1300.65,-419.13 1300.79,-419.25 1300.94,-419.38"/>
<polygon fill="#000000" fill-opacity="0.200000" stroke="#000000" stroke-width="2" stroke-opacity="0.200000" points="1299.62,-421.02 1305.78,-422.56 1301.92,-417.51 1299.62,-421.02"/>
</g>
<!-- src/main/controllers/user/UserSchemaController.ts -->
<g id="node22" class="node">
<title>src/main/controllers/user/UserSchemaController.ts</title>
<g id="a_node22"><a xlink:href="src/main/controllers/user/UserSchemaController.ts" xlink:title="UserSchemaController.ts">
<path fill="#ddfeff" stroke="black" d="M1142.08,-256.25C1142.08,-256.25 1036.42,-256.25 1036.42,-256.25 1033.33,-256.25 1030.25,-253.17 1030.25,-250.08 1030.25,-250.08 1030.25,-243.92 1030.25,-243.92 1030.25,-240.83 1033.33,-237.75 1036.42,-237.75 1036.42,-237.75 1142.08,-237.75 1142.08,-237.75 1145.17,-237.75 1148.25,-240.83 1148.25,-243.92 1148.25,-243.92 1148.25,-250.08 1148.25,-250.08 1148.25,-253.17 1145.17,-256.25 1142.08,-256.25"/>
<text text-anchor="start" x="1038.25" y="-243.7" font-family="Helvetica,sans-Serif" font-size="9.00">UserSchemaController.ts</text>
</a>
</g>
</g>
<!-- src/main/services/UserService.ts -->
<g id="node23" class="node">
<title>src/main/services/UserService.ts</title>
<g id="a_node23"><a xlink:href="src/main/services/UserService.ts" xlink:title="UserService.ts">
<path fill="#ddfeff" stroke="black" d="M1267.83,-509.25C1267.83,-509.25 1204.92,-509.25 1204.92,-509.25 1201.83,-509.25 1198.75,-506.17 1198.75,-503.08 1198.75,-503.08 1198.75,-496.92 1198.75,-496.92 1198.75,-493.83 1201.83,-490.75 1204.92,-490.75 1204.92,-490.75 1267.83,-490.75 1267.83,-490.75 1270.92,-490.75 1274,-493.83 1274,-496.92 1274,-496.92 1274,-503.08 1274,-503.08 1274,-506.17 1270.92,-509.25 1267.83,-509.25"/>
<text text-anchor="start" x="1206.75" y="-496.7" font-family="Helvetica,sans-Serif" font-size="9.00">UserService.ts</text>
</a>
</g>
</g>
<!-- src/main/controllers/user/UserSchemaController.ts&#45;&gt;src/main/services/UserService.ts -->
<g id="edge19" class="edge">
<title>src/main/controllers/user/UserSchemaController.ts&#45;&gt;src/main/services/UserService.ts</title>
<path fill="none" stroke="#000000" stroke-width="2" stroke-opacity="0.200000" d="M1090.4,-256.52C1091.53,-292.59 1100.61,-421.99 1172.25,-486 1177.31,-490.52 1183.5,-493.69 1190.01,-495.89"/>
<polygon fill="#000000" fill-opacity="0.200000" stroke="#000000" stroke-width="2" stroke-opacity="0.200000" points="1189.1,-497.82 1195.44,-497.38 1190.21,-493.77 1189.1,-497.82"/>
</g>
<!-- src/main/entities/UserEntity.ts -->
<g id="node29" class="node">
<title>src/main/entities/UserEntity.ts</title>
<g id="a_node29"><a xlink:href="src/main/entities/UserEntity.ts" xlink:title="UserEntity.ts">
<path fill="#ddfeff" stroke="black" d="M1706.71,-659.25C1706.71,-659.25 1652.79,-659.25 1652.79,-659.25 1649.71,-659.25 1646.62,-656.17 1646.62,-653.08 1646.62,-653.08 1646.62,-646.92 1646.62,-646.92 1646.62,-643.83 1649.71,-640.75 1652.79,-640.75 1652.79,-640.75 1706.71,-640.75 1706.71,-640.75 1709.79,-640.75 1712.88,-643.83 1712.88,-646.92 1712.88,-646.92 1712.88,-653.08 1712.88,-653.08 1712.88,-656.17 1709.79,-659.25 1706.71,-659.25"/>
<text text-anchor="start" x="1654.62" y="-646.7" font-family="Helvetica,sans-Serif" font-size="9.00">UserEntity.ts</text>
</a>
</g>
</g>
<!-- src/main/services/UserService.ts&#45;&gt;src/main/entities/UserEntity.ts -->
<g id="edge63" class="edge">
<title>src/main/services/UserService.ts&#45;&gt;src/main/entities/UserEntity.ts</title>
<path fill="none" stroke="#000000" stroke-width="2" stroke-opacity="0.200000" d="M1271.55,-509.7C1278.49,-511.74 1285.74,-513.9 1292.5,-516 1423.81,-556.77 1577.56,-612.57 1644.6,-637.3"/>
<polygon fill="#000000" fill-opacity="0.200000" stroke="#000000" stroke-width="2" stroke-opacity="0.200000" points="1643.52,-639.14 1649.88,-639.25 1644.98,-635.21 1643.52,-639.14"/>
</g>
<!-- src/main/services/UserService.ts&#45;&gt;src/main/services/base/BaseService.ts -->
<g id="edge64" class="edge">
<title>src/main/services/UserService.ts&#45;&gt;src/main/services/base/BaseService.ts</title>
<path fill="none" stroke="#000000" stroke-width="2" stroke-opacity="0.200000" d="M1274.3,-496.71C1281.12,-494.53 1287.62,-491.17 1292.5,-486 1305.26,-472.51 1287.95,-458.68 1300.5,-445 1300.78,-444.7 1301.06,-444.4 1301.35,-444.11"/>
<polygon fill="#000000" fill-opacity="0.200000" stroke="#000000" stroke-width="2" stroke-opacity="0.200000" points="1302.24,-446.07 1305.78,-440.8 1299.72,-442.71 1302.24,-446.07"/>
</g>
<!-- src/main/entities/base/AcademyBaseEntity.ts -->
<g id="node25" class="node">
<title>src/main/entities/base/AcademyBaseEntity.ts</title>
<g id="a_node25"><a xlink:href="src/main/entities/base/AcademyBaseEntity.ts" xlink:title="AcademyBaseEntity.ts">
<path fill="#ddfeff" stroke="black" d="M1726.58,-739.25C1726.58,-739.25 1632.92,-739.25 1632.92,-739.25 1629.83,-739.25 1626.75,-736.17 1626.75,-733.08 1626.75,-733.08 1626.75,-726.92 1626.75,-726.92 1626.75,-723.83 1629.83,-720.75 1632.92,-720.75 1632.92,-720.75 1726.58,-720.75 1726.58,-720.75 1729.67,-720.75 1732.75,-723.83 1732.75,-726.92 1732.75,-726.92 1732.75,-733.08 1732.75,-733.08 1732.75,-736.17 1729.67,-739.25 1726.58,-739.25"/>
<text text-anchor="start" x="1634.75" y="-726.7" font-family="Helvetica,sans-Serif" font-size="9.00">AcademyBaseEntity.ts</text>
</a>
</g>
</g>
<!-- src/main/entities/AreaEntity.ts&#45;&gt;src/main/entities/base/AcademyBaseEntity.ts -->
<g id="edge20" class="edge">
<title>src/main/entities/AreaEntity.ts&#45;&gt;src/main/entities/base/AcademyBaseEntity.ts</title>
<path fill="none" stroke="#000000" stroke-width="2" stroke-opacity="0.200000" d="M1495.97,-695.6C1526.1,-698.48 1571.94,-704.08 1610.75,-714 1614.43,-714.94 1615.11,-715.93 1618.75,-717 1619.84,-717.32 1620.95,-717.64 1622.07,-717.95"/>
<polygon fill="#000000" fill-opacity="0.200000" stroke="#000000" stroke-width="2" stroke-opacity="0.200000" points="1621.51,-719.98 1627.85,-719.48 1622.59,-715.92 1621.51,-719.98"/>
</g>
<!-- src/main/entities/AreaEntity.ts&#45;&gt;src/main/entities/UniversityEntity.ts -->
<g id="edge21" class="edge">
<title>src/main/entities/AreaEntity.ts&#45;&gt;src/main/entities/UniversityEntity.ts</title>
<path fill="none" stroke="#000000" stroke-width="2" stroke-opacity="0.200000" d="M1495.89,-689.52C1501.87,-688.88 1508.25,-688.2 1514.63,-687.51"/>
<polygon fill="#000000" fill-opacity="0.200000" stroke="#000000" stroke-width="2" stroke-opacity="0.200000" points="1514.54,-689.63 1520.28,-686.91 1514.09,-685.46 1514.54,-689.63"/>
</g>
<!-- src/main/entities/base/IncrementBaseEntity.ts -->
<g id="node33" class="node">
<title>src/main/entities/base/IncrementBaseEntity.ts</title>
<g id="a_node33"><a xlink:href="src/main/entities/base/IncrementBaseEntity.ts" xlink:title="IncrementBaseEntity.ts">
<path fill="#ddfeff" stroke="black" d="M1847.83,-768.25C1847.83,-768.25 1751.92,-768.25 1751.92,-768.25 1748.83,-768.25 1745.75,-765.17 1745.75,-762.08 1745.75,-762.08 1745.75,-755.92 1745.75,-755.92 1745.75,-752.83 1748.83,-749.75 1751.92,-749.75 1751.92,-749.75 1847.83,-749.75 1847.83,-749.75 1850.92,-749.75 1854,-752.83 1854,-755.92 1854,-755.92 1854,-762.08 1854,-762.08 1854,-765.17 1850.92,-768.25 1847.83,-768.25"/>
<text text-anchor="start" x="1753.75" y="-755.7" font-family="Helvetica,sans-Serif" font-size="9.00">IncrementBaseEntity.ts</text>
</a>
</g>
</g>
<!-- src/main/entities/base/AcademyBaseEntity.ts&#45;&gt;src/main/entities/base/IncrementBaseEntity.ts -->
<g id="edge44" class="edge">
<title>src/main/entities/base/AcademyBaseEntity.ts&#45;&gt;src/main/entities/base/IncrementBaseEntity.ts</title>
<path fill="none" stroke="#000000" stroke-width="2" stroke-opacity="0.200000" d="M1720.41,-739.74C1730.16,-742.13 1740.7,-744.72 1750.79,-747.2"/>
<polygon fill="#000000" fill-opacity="0.200000" stroke="#000000" stroke-width="2" stroke-opacity="0.200000" points="1750.25,-749.22 1756.58,-748.62 1751.25,-745.15 1750.25,-749.22"/>
</g>
<!-- src/main/entities/UniversityEntity.ts&#45;&gt;src/main/entities/base/AcademyBaseEntity.ts -->
<g id="edge41" class="edge">
<title>src/main/entities/UniversityEntity.ts&#45;&gt;src/main/entities/base/AcademyBaseEntity.ts</title>
<path fill="none" stroke="#000000" stroke-width="2" stroke-opacity="0.200000" d="M1598.71,-691.63C1603.09,-693.9 1607.27,-696.66 1610.75,-700 1615.55,-704.61 1613.63,-709.37 1619.78,-716.2"/>
<polygon fill="#000000" fill-opacity="0.200000" stroke="#000000" stroke-width="2" stroke-opacity="0.200000" points="1618.11,-717.52 1624.02,-719.87 1620.86,-714.35 1618.11,-717.52"/>
</g>
<!-- src/main/entities/StepEntity.ts -->
<g id="node38" class="node">
<title>src/main/entities/StepEntity.ts</title>
<g id="a_node38"><a xlink:href="src/main/entities/StepEntity.ts" xlink:title="StepEntity.ts">
<path fill="#ddfeff" stroke="black" d="M1706.33,-703.25C1706.33,-703.25 1653.17,-703.25 1653.17,-703.25 1650.08,-703.25 1647,-700.17 1647,-697.08 1647,-697.08 1647,-690.92 1647,-690.92 1647,-687.83 1650.08,-684.75 1653.17,-684.75 1653.17,-684.75 1706.33,-684.75 1706.33,-684.75 1709.42,-684.75 1712.5,-687.83 1712.5,-690.92 1712.5,-690.92 1712.5,-697.08 1712.5,-697.08 1712.5,-700.17 1709.42,-703.25 1706.33,-703.25"/>
<text text-anchor="start" x="1655" y="-690.7" font-family="Helvetica,sans-Serif" font-size="9.00">StepEntity.ts</text>
</a>
</g>
</g>
<!-- src/main/entities/UniversityEntity.ts&#45;&gt;src/main/entities/StepEntity.ts -->
<g id="edge42" class="edge">
<title>src/main/entities/UniversityEntity.ts&#45;&gt;src/main/entities/StepEntity.ts</title>
<g id="a_edge42"><a xlink:title="no&#45;circular">
<path fill="none" stroke="orange" stroke-width="2" d="M1611.21,-682.27C1616.73,-682.78 1622.42,-683.37 1628.04,-684.01"/>
<polygon fill="orange" stroke="orange" stroke-width="2" points="1637.35,-687.32 1643.57,-686 1637.89,-683.15 1637.35,-687.32"/>
<polyline fill="none" stroke="orange" stroke-width="2" points="1636.63,-685.11 1633.65,-684.73"/>
<ellipse fill="none" stroke="orange" stroke-width="2" cx="1630.28" cy="-684.3" rx="2.4" ry="2.4"/>
</a>
</g>
<text text-anchor="middle" x="1649.66" y="-675.45" font-family="Helvetica,sans-Serif" font-size="9.00" fill="orange">no&#45;circular</text>
</g>
<!-- src/main/entities/base/UuidBaseEntity.ts -->
<g id="node28" class="node">
<title>src/main/entities/base/UuidBaseEntity.ts</title>
<g id="a_node28"><a xlink:href="src/main/entities/base/UuidBaseEntity.ts" xlink:title="UuidBaseEntity.ts">
<path fill="#ddfeff" stroke="black" d="M1837.33,-737.25C1837.33,-737.25 1762.42,-737.25 1762.42,-737.25 1759.33,-737.25 1756.25,-734.17 1756.25,-731.08 1756.25,-731.08 1756.25,-724.92 1756.25,-724.92 1756.25,-721.83 1759.33,-718.75 1762.42,-718.75 1762.42,-718.75 1837.33,-718.75 1837.33,-718.75 1840.42,-718.75 1843.5,-721.83 1843.5,-724.92 1843.5,-724.92 1843.5,-731.08 1843.5,-731.08 1843.5,-734.17 1840.42,-737.25 1837.33,-737.25"/>
<text text-anchor="start" x="1764.25" y="-724.7" font-family="Helvetica,sans-Serif" font-size="9.00">UuidBaseEntity.ts</text>
</a>
</g>
</g>
<!-- src/main/entities/AuthUserEntity.ts&#45;&gt;src/main/entities/base/UuidBaseEntity.ts -->
<g id="edge22" class="edge">
<title>src/main/entities/AuthUserEntity.ts&#45;&gt;src/main/entities/base/UuidBaseEntity.ts</title>
<path fill="none" stroke="#000000" stroke-width="2" stroke-opacity="0.200000" d="M1597.9,-659.71C1604.7,-661.68 1611.93,-663.58 1618.75,-665 1668.73,-675.4 1685.34,-660.07 1732.75,-679 1752.01,-686.69 1770.68,-701.41 1783.24,-712.72"/>
<polygon fill="#000000" fill-opacity="0.200000" stroke="#000000" stroke-width="2" stroke-opacity="0.200000" points="1781.52,-713.98 1787.34,-716.52 1784.37,-710.9 1781.52,-713.98"/>
</g>
<!-- src/main/entities/AuthUserEntity.ts&#45;&gt;src/main/entities/UserEntity.ts -->
<g id="edge23" class="edge">
<title>src/main/entities/AuthUserEntity.ts&#45;&gt;src/main/entities/UserEntity.ts</title>
<path fill="none" stroke="#000000" stroke-width="2" stroke-opacity="0.200000" d="M1609.95,-650C1618.94,-650 1628.44,-650 1637.42,-650"/>
<polygon fill="#000000" fill-opacity="0.200000" stroke="#000000" stroke-width="2" stroke-opacity="0.200000" points="1637.15,-652.1 1643.15,-650 1637.15,-647.9 1637.15,-652.1"/>
</g>
<!-- src/main/entities/base/BaseEntity.ts -->
<g id="node39" class="node">
<title>src/main/entities/base/BaseEntity.ts</title>
<g id="a_node39"><a xlink:href="src/main/entities/base/BaseEntity.ts" xlink:title="BaseEntity.ts">
<path fill="#ddfeff" stroke="black" d="M1928.58,-752.25C1928.58,-752.25 1873.17,-752.25 1873.17,-752.25 1870.08,-752.25 1867,-749.17 1867,-746.08 1867,-746.08 1867,-739.92 1867,-739.92 1867,-736.83 1870.08,-733.75 1873.17,-733.75 1873.17,-733.75 1928.58,-733.75 1928.58,-733.75 1931.67,-733.75 1934.75,-736.83 1934.75,-739.92 1934.75,-739.92 1934.75,-746.08 1934.75,-746.08 1934.75,-749.17 1931.67,-752.25 1928.58,-752.25"/>
<text text-anchor="start" x="1875" y="-739.7" font-family="Helvetica,sans-Serif" font-size="9.00">BaseEntity.ts</text>
</a>
</g>
</g>
<!-- src/main/entities/base/UuidBaseEntity.ts&#45;&gt;src/main/entities/base/BaseEntity.ts -->
<g id="edge46" class="edge">
<title>src/main/entities/base/UuidBaseEntity.ts&#45;&gt;src/main/entities/base/BaseEntity.ts</title>
<path fill="none" stroke="#000000" stroke-width="2" stroke-opacity="0.200000" d="M1843.72,-734.49C1848.37,-735.2 1853.1,-735.91 1857.74,-736.62"/>
<polygon fill="#000000" fill-opacity="0.200000" stroke="#000000" stroke-width="2" stroke-opacity="0.200000" points="1857.27,-738.67 1863.52,-737.49 1857.9,-734.52 1857.27,-738.67"/>
</g>
<!-- src/main/entities/UserEntity.ts&#45;&gt;src/main/entities/base/UuidBaseEntity.ts -->
<g id="edge43" class="edge">
<title>src/main/entities/UserEntity.ts&#45;&gt;src/main/entities/base/UuidBaseEntity.ts</title>
<path fill="none" stroke="#000000" stroke-width="2" stroke-opacity="0.200000" d="M1713.28,-658.99C1719.94,-661.45 1726.75,-664.44 1732.75,-668 1752.96,-679.98 1772.42,-698.81 1784.93,-712.18"/>
<polygon fill="#000000" fill-opacity="0.200000" stroke="#000000" stroke-width="2" stroke-opacity="0.200000" points="1783.17,-713.36 1788.77,-716.37 1786.27,-710.52 1783.17,-713.36"/>
</g>
<!-- src/main/entities/CareerEntity.ts -->
<g id="node30" class="node">
<title>src/main/entities/CareerEntity.ts</title>
<g id="a_node30"><a xlink:href="src/main/entities/CareerEntity.ts" xlink:title="CareerEntity.ts">
<path fill="#ddfeff" stroke="black" d="M1378.33,-733.25C1378.33,-733.25 1315.42,-733.25 1315.42,-733.25 1312.33,-733.25 1309.25,-730.17 1309.25,-727.08 1309.25,-727.08 1309.25,-720.92 1309.25,-720.92 1309.25,-717.83 1312.33,-714.75 1315.42,-714.75 1315.42,-714.75 1378.33,-714.75 1378.33,-714.75 1381.42,-714.75 1384.5,-717.83 1384.5,-720.92 1384.5,-720.92 1384.5,-727.08 1384.5,-727.08 1384.5,-730.17 1381.42,-733.25 1378.33,-733.25"/>
<text text-anchor="start" x="1317.25" y="-720.7" font-family="Helvetica,sans-Serif" font-size="9.00">CareerEntity.ts</text>
</a>
</g>
</g>
<!-- src/main/entities/CareerEntity.ts&#45;&gt;src/main/entities/AreaEntity.ts -->
<g id="edge24" class="edge">
<title>src/main/entities/CareerEntity.ts&#45;&gt;src/main/entities/AreaEntity.ts</title>
<path fill="none" stroke="#000000" stroke-width="2" stroke-opacity="0.200000" d="M1383.48,-714.28C1395.19,-711.08 1408.32,-707.49 1420.4,-704.19"/>
<polygon fill="#000000" fill-opacity="0.200000" stroke="#000000" stroke-width="2" stroke-opacity="0.200000" points="1420.83,-706.25 1426.06,-702.64 1419.72,-702.2 1420.83,-706.25"/>
</g>
<!-- src/main/entities/CareerEntity.ts&#45;&gt;src/main/entities/base/AcademyBaseEntity.ts -->
<g id="edge25" class="edge">
<title>src/main/entities/CareerEntity.ts&#45;&gt;src/main/entities/base/AcademyBaseEntity.ts</title>
<path fill="none" stroke="#000000" stroke-width="2" stroke-opacity="0.200000" d="M1384.87,-724.67C1441.19,-725.69 1549.1,-727.65 1617.31,-728.89"/>
<polygon fill="#000000" fill-opacity="0.200000" stroke="#000000" stroke-width="2" stroke-opacity="0.200000" points="1617.19,-730.98 1623.23,-728.99 1617.27,-726.78 1617.19,-730.98"/>
</g>
<!-- src/main/entities/CourseEntity.ts&#45;&gt;src/main/entities/AreaEntity.ts -->
<g id="edge26" class="edge">
<title>src/main/entities/CourseEntity.ts&#45;&gt;src/main/entities/AreaEntity.ts</title>
<path fill="none" stroke="#000000" stroke-width="2" stroke-opacity="0.200000" d="M1385.67,-693C1396.76,-693 1408.95,-693 1420.24,-693"/>
<polygon fill="#000000" fill-opacity="0.200000" stroke="#000000" stroke-width="2" stroke-opacity="0.200000" points="1420.03,-695.1 1426.03,-693 1420.03,-690.9 1420.03,-695.1"/>
</g>
<!-- src/main/entities/CourseEntity.ts&#45;&gt;src/main/entities/base/AcademyBaseEntity.ts -->
<g id="edge27" class="edge">
<title>src/main/entities/CourseEntity.ts&#45;&gt;src/main/entities/base/AcademyBaseEntity.ts</title>
<path fill="none" stroke="#000000" stroke-width="2" stroke-opacity="0.200000" d="M1383.38,-702.7C1391.81,-704.72 1400.8,-706.64 1409.25,-708 1497.95,-722.27 1521.23,-716.5 1610.75,-724 1612.97,-724.19 1615.23,-724.38 1617.52,-724.57"/>
<polygon fill="#000000" fill-opacity="0.200000" stroke="#000000" stroke-width="2" stroke-opacity="0.200000" points="1617.23,-726.66 1623.39,-725.08 1617.59,-722.47 1617.23,-726.66"/>
</g>
<!-- src/main/entities/LevelEntity.ts -->
<g id="node32" class="node">
<title>src/main/entities/LevelEntity.ts</title>
<g id="a_node32"><a xlink:href="src/main/entities/LevelEntity.ts" xlink:title="LevelEntity.ts">
<path fill="#ddfeff" stroke="black" d="M1708.21,-821.25C1708.21,-821.25 1651.29,-821.25 1651.29,-821.25 1648.21,-821.25 1645.12,-818.17 1645.12,-815.08 1645.12,-815.08 1645.12,-808.92 1645.12,-808.92 1645.12,-805.83 1648.21,-802.75 1651.29,-802.75 1651.29,-802.75 1708.21,-802.75 1708.21,-802.75 1711.29,-802.75 1714.38,-805.83 1714.38,-808.92 1714.38,-808.92 1714.38,-815.08 1714.38,-815.08 1714.38,-818.17 1711.29,-821.25 1708.21,-821.25"/>
<text text-anchor="start" x="1653.12" y="-808.7" font-family="Helvetica,sans-Serif" font-size="9.00">LevelEntity.ts</text>
</a>
</g>
</g>
<!-- src/main/entities/LevelEntity.ts&#45;&gt;src/main/entities/base/IncrementBaseEntity.ts -->
<g id="edge28" class="edge">
<title>src/main/entities/LevelEntity.ts&#45;&gt;src/main/entities/base/IncrementBaseEntity.ts</title>
<path fill="none" stroke="#000000" stroke-width="2" stroke-opacity="0.200000" d="M1714.76,-804.26C1720.85,-802.48 1727.06,-800.39 1732.75,-798 1748.52,-791.37 1765.1,-781.58 1777.71,-773.47"/>
<polygon fill="#000000" fill-opacity="0.200000" stroke="#000000" stroke-width="2" stroke-opacity="0.200000" points="1778.62,-775.39 1782.48,-770.34 1776.31,-771.88 1778.62,-775.39"/>
</g>
<!-- src/main/entities/base/IncrementBaseEntity.ts&#45;&gt;src/main/entities/base/BaseEntity.ts -->
<g id="edge45" class="edge">
<title>src/main/entities/base/IncrementBaseEntity.ts&#45;&gt;src/main/entities/base/BaseEntity.ts</title>
<path fill="none" stroke="#000000" stroke-width="2" stroke-opacity="0.200000" d="M1854.43,-750.34C1855.58,-750.16 1856.73,-749.97 1857.88,-749.79"/>
<polygon fill="#000000" fill-opacity="0.200000" stroke="#000000" stroke-width="2" stroke-opacity="0.200000" points="1857.93,-751.91 1863.52,-748.88 1857.26,-747.76 1857.93,-751.91"/>
</g>
<!-- src/main/entities/MaterialEntity.ts -->
<g id="node34" class="node">
<title>src/main/entities/MaterialEntity.ts</title>
<g id="a_node34"><a xlink:href="src/main/entities/MaterialEntity.ts" xlink:title="MaterialEntity.ts">
<path fill="#ddfeff" stroke="black" d="M1122.96,-755.25C1122.96,-755.25 1055.54,-755.25 1055.54,-755.25 1052.46,-755.25 1049.38,-752.17 1049.38,-749.08 1049.38,-749.08 1049.38,-742.92 1049.38,-742.92 1049.38,-739.83 1052.46,-736.75 1055.54,-736.75 1055.54,-736.75 1122.96,-736.75 1122.96,-736.75 1126.04,-736.75 1129.12,-739.83 1129.12,-742.92 1129.12,-742.92 1129.12,-749.08 1129.12,-749.08 1129.12,-752.17 1126.04,-755.25 1122.96,-755.25"/>
<text text-anchor="start" x="1057.38" y="-742.7" font-family="Helvetica,sans-Serif" font-size="9.00">MaterialEntity.ts</text>
</a>
</g>
</g>
<!-- src/main/entities/MaterialEntity.ts&#45;&gt;src/main/entities/base/IncrementBaseEntity.ts -->
<g id="edge29" class="edge">
<title>src/main/entities/MaterialEntity.ts&#45;&gt;src/main/entities/base/IncrementBaseEntity.ts</title>
<path fill="none" stroke="#000000" stroke-width="2" stroke-opacity="0.200000" d="M1129.42,-750.28C1142.97,-751.64 1158.27,-753.04 1172.25,-754 1249.3,-759.31 1268.65,-761 1345.88,-761 1345.88,-761 1345.88,-761 1568.12,-761 1625.14,-761 1690.09,-760.38 1736.52,-759.83"/>
<polygon fill="#000000" fill-opacity="0.200000" stroke="#000000" stroke-width="2" stroke-opacity="0.200000" points="1736.26,-761.94 1742.23,-759.76 1736.2,-757.74 1736.26,-761.94"/>
</g>
<!-- src/main/entities/TopicEntity.ts -->
<g id="node35" class="node">
<title>src/main/entities/TopicEntity.ts</title>
<g id="a_node35"><a xlink:href="src/main/entities/TopicEntity.ts" xlink:title="TopicEntity.ts">
<path fill="#ddfeff" stroke="black" d="M1264.46,-748.25C1264.46,-748.25 1208.29,-748.25 1208.29,-748.25 1205.21,-748.25 1202.12,-745.17 1202.12,-742.08 1202.12,-742.08 1202.12,-735.92 1202.12,-735.92 1202.12,-732.83 1205.21,-729.75 1208.29,-729.75 1208.29,-729.75 1264.46,-729.75 1264.46,-729.75 1267.54,-729.75 1270.62,-732.83 1270.62,-735.92 1270.62,-735.92 1270.62,-742.08 1270.62,-742.08 1270.62,-745.17 1267.54,-748.25 1264.46,-748.25"/>
<text text-anchor="start" x="1210.12" y="-735.7" font-family="Helvetica,sans-Serif" font-size="9.00">TopicEntity.ts</text>
</a>
</g>
</g>
<!-- src/main/entities/MaterialEntity.ts&#45;&gt;src/main/entities/TopicEntity.ts -->
<g id="edge30" class="edge">
<title>src/main/entities/MaterialEntity.ts&#45;&gt;src/main/entities/TopicEntity.ts</title>
<path fill="none" stroke="#000000" stroke-width="2" stroke-opacity="0.200000" d="M1129.52,-744.11C1149.18,-743.16 1172.99,-742.01 1193.05,-741.04"/>
<polygon fill="#000000" fill-opacity="0.200000" stroke="#000000" stroke-width="2" stroke-opacity="0.200000" points="1193.06,-743.14 1198.95,-740.76 1192.86,-738.95 1193.06,-743.14"/>
</g>
<!-- src/main/entities/TopicEntity.ts&#45;&gt;src/main/entities/base/AcademyBaseEntity.ts -->
<g id="edge39" class="edge">
<title>src/main/entities/TopicEntity.ts&#45;&gt;src/main/entities/base/AcademyBaseEntity.ts</title>
<path fill="none" stroke="#000000" stroke-width="2" stroke-opacity="0.200000" d="M1270.96,-739.32C1304.09,-739.56 1356.16,-739.73 1401.25,-739 1475.71,-737.79 1561.35,-734.77 1617.57,-732.55"/>
<polygon fill="#000000" fill-opacity="0.200000" stroke="#000000" stroke-width="2" stroke-opacity="0.200000" points="1617.4,-734.66 1623.31,-732.33 1617.23,-730.47 1617.4,-734.66"/>
</g>
<!-- src/main/entities/TopicEntity.ts&#45;&gt;src/main/entities/CourseEntity.ts -->
<g id="edge40" class="edge">
<title>src/main/entities/TopicEntity.ts&#45;&gt;src/main/entities/CourseEntity.ts</title>
<path fill="none" stroke="#000000" stroke-width="2" stroke-opacity="0.200000" d="M1256.48,-729.28C1268.88,-723.13 1285.47,-715.2 1300.5,-709 1303.13,-707.92 1305.85,-706.84 1308.61,-705.78"/>
<polygon fill="#000000" fill-opacity="0.200000" stroke="#000000" stroke-width="2" stroke-opacity="0.200000" points="1309.17,-707.82 1314.06,-703.76 1307.71,-703.88 1309.17,-707.82"/>
</g>
<!-- src/main/entities/OptionEntity.ts -->
<g id="node36" class="node">
<title>src/main/entities/OptionEntity.ts</title>
<g id="a_node36"><a xlink:href="src/main/entities/OptionEntity.ts" xlink:title="OptionEntity.ts">
<path fill="#ddfeff" stroke="black" d="M1267.08,-793.25C1267.08,-793.25 1205.67,-793.25 1205.67,-793.25 1202.58,-793.25 1199.5,-790.17 1199.5,-787.08 1199.5,-787.08 1199.5,-780.92 1199.5,-780.92 1199.5,-777.83 1202.58,-774.75 1205.67,-774.75 1205.67,-774.75 1267.08,-774.75 1267.08,-774.75 1270.17,-774.75 1273.25,-777.83 1273.25,-780.92 1273.25,-780.92 1273.25,-787.08 1273.25,-787.08 1273.25,-790.17 1270.17,-793.25 1267.08,-793.25"/>
<text text-anchor="start" x="1207.5" y="-780.7" font-family="Helvetica,sans-Serif" font-size="9.00">OptionEntity.ts</text>
</a>
</g>
</g>
<!-- src/main/entities/OptionEntity.ts&#45;&gt;src/main/entities/base/IncrementBaseEntity.ts -->
<g id="edge31" class="edge">
<title>src/main/entities/OptionEntity.ts&#45;&gt;src/main/entities/base/IncrementBaseEntity.ts</title>
<path fill="none" stroke="#000000" stroke-width="2" stroke-opacity="0.200000" d="M1273.45,-782.7C1317.71,-781.22 1395.05,-779 1461.38,-779 1461.38,-779 1461.38,-779 1568.12,-779 1625.36,-779 1690.27,-772.82 1736.64,-767.33"/>
<polygon fill="#000000" fill-opacity="0.200000" stroke="#000000" stroke-width="2" stroke-opacity="0.200000" points="1736.66,-769.44 1742.36,-766.64 1736.16,-765.27 1736.66,-769.44"/>
</g>
<!-- src/main/entities/QuestionEntity.ts -->
<g id="node37" class="node">
<title>src/main/entities/QuestionEntity.ts</title>
<g id="a_node37"><a xlink:href="src/main/entities/QuestionEntity.ts" xlink:title="QuestionEntity.ts">
<path fill="#ddfeff" stroke="black" d="M1124.83,-793.25C1124.83,-793.25 1053.67,-793.25 1053.67,-793.25 1050.58,-793.25 1047.5,-790.17 1047.5,-787.08 1047.5,-787.08 1047.5,-780.92 1047.5,-780.92 1047.5,-777.83 1050.58,-774.75 1053.67,-774.75 1053.67,-774.75 1124.83,-774.75 1124.83,-774.75 1127.92,-774.75 1131,-777.83 1131,-780.92 1131,-780.92 1131,-787.08 1131,-787.08 1131,-790.17 1127.92,-793.25 1124.83,-793.25"/>
<text text-anchor="start" x="1055.5" y="-780.7" font-family="Helvetica,sans-Serif" font-size="9.00">QuestionEntity.ts</text>
</a>
</g>
</g>
<!-- src/main/entities/OptionEntity.ts&#45;&gt;src/main/entities/QuestionEntity.ts -->
<g id="edge32" class="edge">
<title>src/main/entities/OptionEntity.ts&#45;&gt;src/main/entities/QuestionEntity.ts</title>
<g id="a_edge32"><a xlink:title="no&#45;circular">
<path fill="none" stroke="orange" stroke-width="2" d="M1199.02,-787.96C1184.25,-788.44 1166.8,-788.6 1150.25,-788.44"/>
<polygon fill="orange" stroke="orange" stroke-width="2" points="1140.51,-786.17 1134.48,-788.16 1140.44,-790.36 1140.51,-786.17"/>
<polyline fill="none" stroke="orange" stroke-width="2" points="1141.47,-788.28 1144.47,-788.34"/>
<ellipse fill="none" stroke="orange" stroke-width="2" cx="1147.87" cy="-788.4" rx="2.4" ry="2.4"/>
</a>
</g>
<text text-anchor="middle" x="1186.89" y="-790.45" font-family="Helvetica,sans-Serif" font-size="9.00" fill="orange">no&#45;circular</text>
</g>
<!-- src/main/entities/QuestionEntity.ts&#45;&gt;src/main/entities/LevelEntity.ts -->
<g id="edge34" class="edge">
<title>src/main/entities/QuestionEntity.ts&#45;&gt;src/main/entities/LevelEntity.ts</title>
<path fill="none" stroke="#000000" stroke-width="2" stroke-opacity="0.200000" d="M1131.39,-792.6C1144.4,-795.03 1158.88,-797.44 1172.25,-799 1249,-807.97 1268.6,-808 1345.88,-808 1345.88,-808 1345.88,-808 1463.38,-808 1523.25,-808 1592.48,-809.56 1635.94,-810.74"/>
<polygon fill="#000000" fill-opacity="0.200000" stroke="#000000" stroke-width="2" stroke-opacity="0.200000" points="1635.73,-812.83 1641.78,-810.9 1635.84,-808.63 1635.73,-812.83"/>
</g>
<!-- src/main/entities/QuestionEntity.ts&#45;&gt;src/main/entities/base/IncrementBaseEntity.ts -->
<g id="edge33" class="edge">
<title>src/main/entities/QuestionEntity.ts&#45;&gt;src/main/entities/base/IncrementBaseEntity.ts</title>
<path fill="none" stroke="#000000" stroke-width="2" stroke-opacity="0.200000" d="M1119.79,-793.64C1167.02,-808.17 1262.67,-834 1345.88,-834 1345.88,-834 1345.88,-834 1568.12,-834 1641.36,-834 1665.91,-856.92 1732.75,-827 1756.77,-816.24 1776.58,-792.41 1788.06,-776.02"/>
<polygon fill="#000000" fill-opacity="0.200000" stroke="#000000" stroke-width="2" stroke-opacity="0.200000" points="1789.72,-777.33 1791.33,-771.18 1786.23,-774.98 1789.72,-777.33"/>
</g>
<!-- src/main/entities/QuestionEntity.ts&#45;&gt;src/main/entities/TopicEntity.ts -->
<g id="edge36" class="edge">
<title>src/main/entities/QuestionEntity.ts&#45;&gt;src/main/entities/TopicEntity.ts</title>
<path fill="none" stroke="#000000" stroke-width="2" stroke-opacity="0.200000" d="M1121.38,-774.35C1143.12,-767.61 1172.31,-758.56 1195.71,-751.3"/>
<polygon fill="#000000" fill-opacity="0.200000" stroke="#000000" stroke-width="2" stroke-opacity="0.200000" points="1196.04,-753.39 1201.15,-749.61 1194.8,-749.38 1196.04,-753.39"/>
</g>
<!-- src/main/entities/QuestionEntity.ts&#45;&gt;src/main/entities/OptionEntity.ts -->
<g id="edge35" class="edge">
<title>src/main/entities/QuestionEntity.ts&#45;&gt;src/main/entities/OptionEntity.ts</title>
<g id="a_edge35"><a xlink:title="no&#45;circular">
<path fill="none" stroke="orange" stroke-width="2" d="M1131.45,-779.9C1146.66,-779.49 1164.16,-779.39 1180.4,-779.62"/>
<polygon fill="orange" stroke="orange" stroke-width="2" points="1189.94,-781.94 1195.99,-779.97 1190.04,-777.74 1189.94,-781.94"/>
<polyline fill="none" stroke="orange" stroke-width="2" points="1188.99,-779.81 1185.99,-779.75"/>
<ellipse fill="none" stroke="orange" stroke-width="2" cx="1182.59" cy="-779.67" rx="2.4" ry="2.4"/>
</a>
</g>
<text text-anchor="middle" x="1143.56" y="-770.95" font-family="Helvetica,sans-Serif" font-size="9.00" fill="orange">no&#45;circular</text>
</g>
<!-- src/main/entities/StepEntity.ts&#45;&gt;src/main/entities/UniversityEntity.ts -->
<g id="edge38" class="edge">
<title>src/main/entities/StepEntity.ts&#45;&gt;src/main/entities/UniversityEntity.ts</title>
<g id="a_edge38"><a xlink:title="no&#45;circular">
<path fill="none" stroke="orange" stroke-width="2" d="M1646.57,-694.64C1641.22,-694.24 1635.52,-693.74 1629.73,-693.16"/>
<polygon fill="orange" stroke="orange" stroke-width="2" points="1620.42,-690 1614.22,-691.41 1619.95,-694.17 1620.42,-690"/>
<polyline fill="none" stroke="orange" stroke-width="2" points="1621.18,-692.2 1624.16,-692.53"/>
<ellipse fill="none" stroke="orange" stroke-width="2" cx="1627.54" cy="-692.91" rx="2.4" ry="2.4"/>
</a>
</g>
<text text-anchor="middle" x="1608.11" y="-695.12" font-family="Helvetica,sans-Serif" font-size="9.00" fill="orange">no&#45;circular</text>
</g>
<!-- src/main/entities/StepEntity.ts&#45;&gt;src/main/entities/base/IncrementBaseEntity.ts -->
<g id="edge37" class="edge">
<title>src/main/entities/StepEntity.ts&#45;&gt;src/main/entities/base/IncrementBaseEntity.ts</title>
<path fill="none" stroke="#000000" stroke-width="2" stroke-opacity="0.200000" d="M1712.85,-697.61C1720.07,-699.71 1727.22,-702.96 1732.75,-708 1745.01,-719.18 1733.65,-731.64 1745.75,-743 1746.24,-743.46 1746.74,-743.9 1747.25,-744.33"/>
<polygon fill="#000000" fill-opacity="0.200000" stroke="#000000" stroke-width="2" stroke-opacity="0.200000" points="1745.82,-745.9 1751.96,-747.55 1748.19,-742.44 1745.82,-745.9"/>
</g>
<!-- src/main/errors/base/BaseError..ts -->
<g id="node40" class="node">
<title>src/main/errors/base/BaseError..ts</title>
<g id="a_node40"><a xlink:href="src/main/errors/base/BaseError..ts" xlink:title="no&#45;orphans">
<path fill="#ccffcc" stroke="orange" d="M101.58,-150.25C101.58,-150.25 46.17,-150.25 46.17,-150.25 43.08,-150.25 40,-147.17 40,-144.08 40,-144.08 40,-137.92 40,-137.92 40,-134.83 43.08,-131.75 46.17,-131.75 46.17,-131.75 101.58,-131.75 101.58,-131.75 104.67,-131.75 107.75,-134.83 107.75,-137.92 107.75,-137.92 107.75,-144.08 107.75,-144.08 107.75,-147.17 104.67,-150.25 101.58,-150.25"/>
<text text-anchor="start" x="48" y="-137.7" font-family="Helvetica,sans-Serif" font-size="9.00" fill="orange">BaseError..ts</text>
</a>
</g>
</g>
<!-- src/main/errors/base/Error.ts -->
<g id="node41" class="node">
<title>src/main/errors/base/Error.ts</title>
<g id="a_node41"><a xlink:href="src/main/errors/base/Error.ts" xlink:title="no&#45;orphans">
<path fill="#ccffcc" stroke="orange" d="M94.71,-181.25C94.71,-181.25 53.04,-181.25 53.04,-181.25 49.96,-181.25 46.88,-178.17 46.88,-175.08 46.88,-175.08 46.88,-168.92 46.88,-168.92 46.88,-165.83 49.96,-162.75 53.04,-162.75 53.04,-162.75 94.71,-162.75 94.71,-162.75 97.79,-162.75 100.88,-165.83 100.88,-168.92 100.88,-168.92 100.88,-175.08 100.88,-175.08 100.88,-178.17 97.79,-181.25 94.71,-181.25"/>
<text text-anchor="start" x="59.62" y="-168.7" font-family="Helvetica,sans-Serif" font-size="9.00" fill="orange">Error.ts</text>
</a>
</g>
</g>
<!-- src/main/middlewares/AcademySchemaMiddleware.ts&#45;&gt;src/main/auth/middlewares/AuthMiddleware.ts -->
<g id="edge47" class="edge">
<title>src/main/middlewares/AcademySchemaMiddleware.ts&#45;&gt;src/main/auth/middlewares/AuthMiddleware.ts</title>
<path fill="none" stroke="#000000" stroke-width="2" stroke-opacity="0.200000" d="M683.07,-283.58C700.11,-292.73 725.71,-307.41 746,-323 765.2,-337.76 784.85,-357.48 797.68,-371.11"/>
<polygon fill="#000000" fill-opacity="0.200000" stroke="#000000" stroke-width="2" stroke-opacity="0.200000" points="796.05,-372.44 801.67,-375.4 799.13,-369.58 796.05,-372.44"/>
</g>
<!-- src/main/routers/academy/UniversityRouter.ts&#45;&gt;src/main/controllers/academy/UniversityController.ts -->
<g id="edge58" class="edge">
<title>src/main/routers/academy/UniversityRouter.ts&#45;&gt;src/main/controllers/academy/UniversityController.ts</title>
<path fill="none" stroke="#000000" stroke-width="2" stroke-opacity="0.200000" d="M360.86,-83.35C415.45,-67.81 517.28,-39 521.38,-39 521.38,-39 521.38,-39 814.12,-39 857.1,-39 975.19,-31.3 1006.25,-61 1022.51,-76.55 998.46,-94.97 1014.25,-111 1018.21,-115.03 1022.96,-118.06 1028.1,-120.33"/>
<polygon fill="#000000" fill-opacity="0.200000" stroke="#000000" stroke-width="2" stroke-opacity="0.200000" points="1027.24,-122.25 1033.6,-122.27 1028.64,-118.29 1027.24,-122.25"/>
</g>
<!-- src/main/routers/academy/AreaRouter.ts -->
<g id="node46" class="node">
<title>src/main/routers/academy/AreaRouter.ts</title>
<g id="a_node46"><a xlink:href="src/main/routers/academy/AreaRouter.ts" xlink:title="AreaRouter.ts">
<path fill="#ddfeff" stroke="black" d="M450.58,-102.25C450.58,-102.25 391.42,-102.25 391.42,-102.25 388.33,-102.25 385.25,-99.17 385.25,-96.08 385.25,-96.08 385.25,-89.92 385.25,-89.92 385.25,-86.83 388.33,-83.75 391.42,-83.75 391.42,-83.75 450.58,-83.75 450.58,-83.75 453.67,-83.75 456.75,-86.83 456.75,-89.92 456.75,-89.92 456.75,-96.08 456.75,-96.08 456.75,-99.17 453.67,-102.25 450.58,-102.25"/>
<text text-anchor="start" x="393.25" y="-89.7" font-family="Helvetica,sans-Serif" font-size="9.00">AreaRouter.ts</text>
</a>
</g>
</g>
<!-- src/main/routers/academy/UniversityRouter.ts&#45;&gt;src/main/routers/academy/AreaRouter.ts -->
<g id="edge60" class="edge">
<title>src/main/routers/academy/UniversityRouter.ts&#45;&gt;src/main/routers/academy/AreaRouter.ts</title>
<path fill="none" stroke="#000000" stroke-width="2" stroke-opacity="0.200000" d="M372.68,-93C373.85,-93 375.01,-93 376.17,-93"/>
<polygon fill="#000000" fill-opacity="0.200000" stroke="#000000" stroke-width="2" stroke-opacity="0.200000" points="375.95,-95.1 381.95,-93 375.95,-90.9 375.95,-95.1"/>
</g>
<!-- src/main/routers/base/NoMiddlewareBaseRouter.ts -->
<g id="node47" class="node">
<title>src/main/routers/base/NoMiddlewareBaseRouter.ts</title>
<g id="a_node47"><a xlink:href="src/main/routers/base/NoMiddlewareBaseRouter.ts" xlink:title="NoMiddlewareBaseRouter.ts">
<path fill="#ddfeff" stroke="black" d="M723.83,-102.25C723.83,-102.25 603.17,-102.25 603.17,-102.25 600.08,-102.25 597,-99.17 597,-96.08 597,-96.08 597,-89.92 597,-89.92 597,-86.83 600.08,-83.75 603.17,-83.75 603.17,-83.75 723.83,-83.75 723.83,-83.75 726.92,-83.75 730,-86.83 730,-89.92 730,-89.92 730,-96.08 730,-96.08 730,-99.17 726.92,-102.25 723.83,-102.25"/>
<text text-anchor="start" x="605" y="-89.7" font-family="Helvetica,sans-Serif" font-size="9.00">NoMiddlewareBaseRouter.ts</text>
</a>
</g>
</g>
<!-- src/main/routers/academy/UniversityRouter.ts&#45;&gt;src/main/routers/base/NoMiddlewareBaseRouter.ts -->
<g id="edge59" class="edge">
<title>src/main/routers/academy/UniversityRouter.ts&#45;&gt;src/main/routers/base/NoMiddlewareBaseRouter.ts</title>
<path fill="none" stroke="#000000" stroke-width="2" stroke-opacity="0.200000" d="M360.35,-102.69C368.44,-104.74 377.11,-106.67 385.25,-108 468.53,-121.56 493.89,-137.26 575,-114 579.03,-112.84 579.1,-110.55 583,-109 586.46,-107.62 590.05,-106.36 593.71,-105.2"/>
<polygon fill="#000000" fill-opacity="0.200000" stroke="#000000" stroke-width="2" stroke-opacity="0.200000" points="594.27,-107.23 599.44,-103.54 593.1,-103.2 594.27,-107.23"/>
</g>
<!-- src/main/routers/academy/AreaRouter.ts&#45;&gt;src/main/controllers/academy/AreaController.ts -->
<g id="edge53" class="edge">
<title>src/main/routers/academy/AreaRouter.ts&#45;&gt;src/main/controllers/academy/AreaController.ts</title>
<path fill="none" stroke="#000000" stroke-width="2" stroke-opacity="0.200000" d="M450.33,-83.3C456.67,-81.36 463.4,-79.46 469.75,-78 553.92,-58.59 576.12,-53 662.5,-53 662.5,-53 662.5,-53 814.12,-53 848.86,-53 973.57,-81.3 1006.25,-114 1014.5,-122.25 1005.61,-131.16 1014.25,-139 1020.89,-145.03 1029.25,-148.98 1037.94,-151.53"/>
<polygon fill="#000000" fill-opacity="0.200000" stroke="#000000" stroke-width="2" stroke-opacity="0.200000" points="1037.42,-153.57 1043.75,-152.94 1038.41,-149.49 1037.42,-153.57"/>
</g>
<!-- src/main/routers/academy/AreaRouter.ts&#45;&gt;src/main/routers/base/NoMiddlewareBaseRouter.ts -->
<g id="edge54" class="edge">
<title>src/main/routers/academy/AreaRouter.ts&#45;&gt;src/main/routers/base/NoMiddlewareBaseRouter.ts</title>
<path fill="none" stroke="#000000" stroke-width="2" stroke-opacity="0.200000" d="M447.93,-102.72C454.91,-104.9 462.54,-106.89 469.75,-108 515.55,-115.03 568.01,-110.11 606.63,-104.09"/>
<polygon fill="#000000" fill-opacity="0.200000" stroke="#000000" stroke-width="2" stroke-opacity="0.200000" points="606.57,-106.23 612.15,-103.2 605.9,-102.08 606.57,-106.23"/>
</g>
<!-- src/main/routers/academy/CourseRouter.ts -->
<g id="node48" class="node">
<title>src/main/routers/academy/CourseRouter.ts</title>
<g id="a_node48"><a xlink:href="src/main/routers/academy/CourseRouter.ts" xlink:title="CourseRouter.ts">
<path fill="#ddfeff" stroke="black" d="M557.21,-102.25C557.21,-102.25 487.54,-102.25 487.54,-102.25 484.46,-102.25 481.38,-99.17 481.38,-96.08 481.38,-96.08 481.38,-89.92 481.38,-89.92 481.38,-86.83 484.46,-83.75 487.54,-83.75 487.54,-83.75 557.21,-83.75 557.21,-83.75 560.29,-83.75 563.38,-86.83 563.38,-89.92 563.38,-89.92 563.38,-96.08 563.38,-96.08 563.38,-99.17 560.29,-102.25 557.21,-102.25"/>
<text text-anchor="start" x="489.38" y="-89.7" font-family="Helvetica,sans-Serif" font-size="9.00">CourseRouter.ts</text>
</a>
</g>
</g>
<!-- src/main/routers/academy/AreaRouter.ts&#45;&gt;src/main/routers/academy/CourseRouter.ts -->
<g id="edge55" class="edge">
<title>src/main/routers/academy/AreaRouter.ts&#45;&gt;src/main/routers/academy/CourseRouter.ts</title>
<path fill="none" stroke="#000000" stroke-width="2" stroke-opacity="0.200000" d="M457.04,-93C461.86,-93 466.88,-93 471.9,-93"/>
<polygon fill="#000000" fill-opacity="0.200000" stroke="#000000" stroke-width="2" stroke-opacity="0.200000" points="471.86,-95.1 477.86,-93 471.86,-90.9 471.86,-95.1"/>
</g>
<!-- src/main/routers/academy/CourseRouter.ts&#45;&gt;src/main/controllers/academy/CourseController.ts -->
<g id="edge56" class="edge">
<title>src/main/routers/academy/CourseRouter.ts&#45;&gt;src/main/controllers/academy/CourseController.ts</title>
<path fill="none" stroke="#000000" stroke-width="2" stroke-opacity="0.200000" d="M546.44,-83.32C557.32,-79.26 570.61,-75.02 583,-73 654.5,-61.33 674.64,-60.49 746,-73 870.87,-94.88 892.41,-134.97 1014.25,-170 1020.24,-171.72 1026.56,-173.36 1032.86,-174.88"/>
<polygon fill="#000000" fill-opacity="0.200000" stroke="#000000" stroke-width="2" stroke-opacity="0.200000" points="1032.16,-176.87 1038.48,-176.18 1033.12,-172.78 1032.16,-176.87"/>
</g>
<!-- src/main/routers/academy/CourseRouter.ts&#45;&gt;src/main/routers/base/NoMiddlewareBaseRouter.ts -->
<g id="edge57" class="edge">
<title>src/main/routers/academy/CourseRouter.ts&#45;&gt;src/main/routers/base/NoMiddlewareBaseRouter.ts</title>
<path fill="none" stroke="#000000" stroke-width="2" stroke-opacity="0.200000" d="M563.62,-93C571.22,-93 579.39,-93 587.67,-93"/>
<polygon fill="#000000" fill-opacity="0.200000" stroke="#000000" stroke-width="2" stroke-opacity="0.200000" points="587.64,-95.1 593.64,-93 587.64,-90.9 587.64,-95.1"/>
</g>
<!-- src/main/routers/base/BaseRouter.ts -->
<g id="node49" class="node">
<title>src/main/routers/base/BaseRouter.ts</title>
<g id="a_node49"><a xlink:href="src/main/routers/base/BaseRouter.ts" xlink:title="no&#45;orphans">
<path fill="#ccffcc" stroke="orange" d="M693.83,-164.25C693.83,-164.25 633.17,-164.25 633.17,-164.25 630.08,-164.25 627,-161.17 627,-158.08 627,-158.08 627,-151.92 627,-151.92 627,-148.83 630.08,-145.75 633.17,-145.75 633.17,-145.75 693.83,-145.75 693.83,-145.75 696.92,-145.75 700,-148.83 700,-151.92 700,-151.92 700,-158.08 700,-158.08 700,-161.17 696.92,-164.25 693.83,-164.25"/>
<text text-anchor="start" x="635" y="-151.7" font-family="Helvetica,sans-Serif" font-size="9.00" fill="orange">BaseRouter.ts</text>
</a>
</g>
</g>
<!-- src/main/services/base/BaseService.ts&#45;&gt;src/main/database/AppDataSource.ts -->
<g id="edge71" class="edge">
<title>src/main/services/base/BaseService.ts&#45;&gt;src/main/database/AppDataSource.ts</title>
<path fill="none" stroke="#000000" stroke-width="2" stroke-opacity="0.200000" d="M1385.61,-427.92C1391.36,-425.93 1396.83,-423.08 1401.25,-419 1449.06,-374.87 1458.91,-291.98 1460.9,-255.28"/>
<polygon fill="#000000" fill-opacity="0.200000" stroke="#000000" stroke-width="2" stroke-opacity="0.200000" points="1462.98,-255.72 1461.14,-249.64 1458.79,-255.54 1462.98,-255.72"/>
</g>
</g>
</svg>
